<svg xmlns="http://www.w3.org/2000/svg" viewBox="0 0 318.37 263.45"><defs><style>.cls-1{fill:#222323;}.cls-2{fill:#badaed;}.cls-3{fill:#575756;}.cls-4{fill:#3c3c3b;}.cls-5{fill:#1d1d1b;}.cls-6{fill:none;stroke:#1d1d1b;stroke-miterlimit:10;stroke-width:2px;}.cls-7{fill:#ededed;}.cls-8{fill:#1d71b8;}.cls-9{fill:#c6c6c6;}</style></defs><title>celunotificacion_2</title><g id="Capa_2" data-name="Capa 2"><g id="Capa_1-2" data-name="Capa 1"><path class="cls-1" d="M317.63,25.57c1.67,16.67,0,237.88,0,237.88H3V29.9S2,9.24,25,5.24H296.3S316,8.9,317.63,25.57Z"/><rect class="cls-2" x="6.67" y="39.9" width="308" height="223.54"/><rect class="cls-3" x="133.67" y="18.78" width="77" height="9" rx="4.5" ry="4.5"/><rect class="cls-3" x="110.67" y="18.78" width="9" height="9" rx="4.5" ry="4.5"/><path class="cls-4" d="M2,102.53H3a0,0,0,0,1,0,0v24.42a0,0,0,0,1,0,0H2a2,2,0,0,1-2-2V104.57A2,2,0,0,1,2,102.53Z"/><path class="cls-4" d="M2,141.53H3a0,0,0,0,1,0,0v24.42a0,0,0,0,1,0,0H2a2,2,0,0,1-2-2V143.57A2,2,0,0,1,2,141.53Z"/><path class="cls-4" d="M272.33,5.23H226.92V3a3,3,0,0,1,3-3h39.45a3,3,0,0,1,3,3Z"/><path class="cls-5" d="M278.17,3.38"/><rect class="cls-5" x="41.5" y="50.61" width="4.67" height="16.5"/><rect class="cls-5" x="34.5" y="52.65" width="4.67" height="14.46"/><rect class="cls-5" x="27.33" y="54.69" width="4.67" height="12.42"/><rect class="cls-5" x="20.5" y="56.65" width="4.67" height="10.46"/><rect class="cls-6" x="269.75" y="54.28" width="28.25" height="12.83" rx="1.71" ry="1.71"/><rect class="cls-5" x="273.25" y="56.86" width="13" height="7.75"/><path class="cls-6" d="M298,57.44h2.09a.5.5,0,0,1,.5.5v5.51a.5.5,0,0,1-.5.5H298a0,0,0,0,1,0,0v-6.5A0,0,0,0,1,298,57.44Z"/><rect class="cls-7" x="39.17" y="102.53" width="242.83" height="64.92" rx="8.21" ry="8.21"/><rect class="cls-8" x="54" y="119.78" width="31.89" height="31.89" rx="6.17" ry="6.17"/><circle class="cls-4" cx="256.29" cy="135.07" r="13.96"/><path class="cls-9" d="M253.84,129.76l1.51,2.27c.39.59.72,1.14,1.07,1.73h.07c.35-.63.7-1.18,1-1.75l1.48-2.25h2.07l-3.6,5.11,3.71,5.46H259l-1.55-2.38c-.42-.61-.76-1.2-1.14-1.83h0c-.35.63-.72,1.2-1.11,1.83l-1.53,2.38h-2.12l3.76-5.39-3.58-5.17Z"/><rect class="cls-7" x="39.27" y="178.54" width="242.83" height="64.92" rx="8.21" ry="8.21"/><rect class="cls-8" x="54.1" y="195.79" width="31.89" height="31.89" rx="6.17" ry="6.17"/><circle class="cls-4" cx="256.39" cy="211.08" r="13.96"/><path class="cls-9" d="M253.94,205.77l1.51,2.27c.39.59.72,1.14,1.07,1.73h.07c.35-.63.7-1.18,1-1.75l1.48-2.25h2.07l-3.6,5.11,3.71,5.46h-2.18L257.57,214c-.42-.61-.76-1.2-1.14-1.83h0c-.35.63-.72,1.2-1.11,1.83l-1.53,2.38h-2.12l3.76-5.39-3.58-5.17Z"/><path class="cls-5" d="M105.46,134.65a6.62,6.62,0,0,1-2.73.49,4.83,4.83,0,0,1-5.1-5.22,5.14,5.14,0,0,1,5.39-5.42,5.52,5.52,0,0,1,2.45.46l-.32,1.09a4.87,4.87,0,0,0-2.08-.43c-2.42,0-4,1.55-4,4.26,0,2.53,1.46,4.15,4,4.15a5.33,5.33,0,0,0,2.18-.43Z"/><path class="cls-5" d="M108.46,124.66V135h-1.33V124.66Z"/><path class="cls-5" d="M116.14,130.14h-4v3.72h4.47V135h-5.81V124.66h5.58v1.12h-4.24V129h4Z"/><path class="cls-5" d="M118.32,124.8a13.9,13.9,0,0,1,2.56-.21,4.22,4.22,0,0,1,3,.84,2.57,2.57,0,0,1,.81,2,2.71,2.71,0,0,1-1.95,2.63v0a2.58,2.58,0,0,1,1.52,2.08A16.46,16.46,0,0,0,125,135h-1.38a13.41,13.41,0,0,1-.69-2.47c-.31-1.42-.86-2-2.07-2h-1.26V135h-1.33Zm1.33,4.7H121c1.42,0,2.33-.78,2.33-2,0-1.33-1-1.92-2.37-1.93a5.46,5.46,0,0,0-1.32.12Z"/><path class="cls-5" d="M126.56,124.8a13.9,13.9,0,0,1,2.56-.21,4.22,4.22,0,0,1,3,.84,2.57,2.57,0,0,1,.81,2A2.71,2.71,0,0,1,131,130v0a2.58,2.58,0,0,1,1.52,2.08,16.46,16.46,0,0,0,.8,2.83h-1.38a13.41,13.41,0,0,1-.69-2.47c-.31-1.42-.86-2-2.07-2h-1.26V135h-1.33Zm1.33,4.7h1.36c1.42,0,2.33-.78,2.33-2,0-1.33-1-1.92-2.37-1.93a5.46,5.46,0,0,0-1.32.12Z"/><path class="cls-5" d="M140.15,130.14h-4v3.72h4.47V135H134.8V124.66h5.58v1.12h-4.24V129h4Z"/><path class="cls-5" d="M145.58,124.8a19,19,0,0,1,2.83-.21,5.91,5.91,0,0,1,4.18,1.29,4.75,4.75,0,0,1,1.46,3.71,5.46,5.46,0,0,1-1.49,4,6.36,6.36,0,0,1-4.56,1.49,21.62,21.62,0,0,1-2.42-.12Zm1.33,9.13a8.51,8.51,0,0,0,1.35.08c2.85,0,4.4-1.59,4.4-4.38,0-2.44-1.36-4-4.18-4a7.54,7.54,0,0,0-1.56.14Z"/><path class="cls-5" d="M161.12,130.14h-4v3.72h4.47V135h-5.81V124.66h5.58v1.12h-4.24V129h4Z"/><path class="cls-5" d="M168.67,124.66H170v6.91c0,2.74-1.35,3.58-3.12,3.58a4.32,4.32,0,0,1-1.42-.25l.2-1.09a3.17,3.17,0,0,0,1.12.2c1.2,0,1.9-.54,1.9-2.56Z"/><path class="cls-5" d="M181,129.71c0,3.55-2.16,5.44-4.79,5.44s-4.64-2.11-4.64-5.24c0-3.28,2-5.42,4.79-5.42S181,126.65,181,129.71Zm-8,.17c0,2.21,1.19,4.18,3.29,4.18s3.31-1.95,3.31-4.29c0-2.05-1.07-4.2-3.29-4.2S173,127.62,173,129.88Z"/><path class="cls-5" d="M182.77,124.8a13.91,13.91,0,0,1,2.56-.21,4.22,4.22,0,0,1,3,.84,2.57,2.57,0,0,1,.81,2,2.71,2.71,0,0,1-1.95,2.63v0a2.57,2.57,0,0,1,1.52,2.08,16.4,16.4,0,0,0,.8,2.83h-1.38a13.41,13.41,0,0,1-.69-2.47c-.31-1.42-.86-2-2.07-2h-1.26V135h-1.33Zm1.33,4.7h1.36c1.42,0,2.33-.78,2.33-2,0-1.33-1-1.92-2.37-1.93a5.46,5.46,0,0,0-1.32.12Z"/><path class="cls-5" d="M191,135V124.66h1.46l3.31,5.22a29.21,29.21,0,0,1,1.85,3.36l0,0c-.12-1.38-.15-2.63-.15-4.24v-4.32h1.26V135h-1.35l-3.28-5.24a32.82,32.82,0,0,1-1.93-3.45l0,0c.08,1.3.11,2.54.11,4.26V135Z"/><path class="cls-5" d="M202.76,131.74,201.68,135h-1.38l3.51-10.33h1.61L208.95,135h-1.42l-1.1-3.25Zm3.39-1-1-3c-.23-.67-.38-1.29-.54-1.88h0c-.15.61-.32,1.24-.52,1.87l-1,3Z"/><path class="cls-5" d="M210.46,124.8a19,19,0,0,1,2.83-.21,5.91,5.91,0,0,1,4.18,1.29,4.76,4.76,0,0,1,1.46,3.71,5.46,5.46,0,0,1-1.49,4,6.36,6.36,0,0,1-4.57,1.49,21.63,21.63,0,0,1-2.42-.12Zm1.33,9.13a8.51,8.51,0,0,0,1.35.08c2.85,0,4.4-1.59,4.4-4.38,0-2.44-1.36-4-4.18-4a7.54,7.54,0,0,0-1.56.14Z"/><path class="cls-5" d="M222.11,131.74,221,135h-1.38l3.51-10.33h1.61L228.3,135h-1.42l-1.1-3.25Zm3.39-1-1-3c-.23-.67-.38-1.29-.54-1.88h0c-.15.61-.32,1.24-.52,1.87l-1,3Z"/><path class="cls-5" d="M105.76,210.67a6.72,6.72,0,0,1-2.77.5,4.9,4.9,0,0,1-5.18-5.31,5.22,5.22,0,0,1,5.48-5.51,5.63,5.63,0,0,1,2.49.47l-.33,1.11a4.92,4.92,0,0,0-2.12-.44c-2.46,0-4.09,1.57-4.09,4.33,0,2.57,1.48,4.22,4,4.22a5.42,5.42,0,0,0,2.21-.44Z"/><path class="cls-5" d="M116.09,205.66c0,3.61-2.19,5.53-4.87,5.53s-4.72-2.15-4.72-5.32c0-3.33,2.07-5.51,4.87-5.51S116.09,202.55,116.09,205.66Zm-8.14.17c0,2.24,1.21,4.25,3.35,4.25s3.36-2,3.36-4.36c0-2.08-1.09-4.26-3.35-4.26S108,203.53,108,205.83Z"/><path class="cls-5" d="M126.69,206.41c-.08-1.46-.17-3.22-.16-4.53h0c-.36,1.23-.79,2.54-1.32,4L123.31,211h-1l-1.7-5c-.5-1.48-.92-2.83-1.21-4.08h0c0,1.31-.11,3.07-.2,4.64l-.28,4.5h-1.29l.73-10.49H120l1.79,5.07c.44,1.29.79,2.44,1.06,3.53h0c.26-1.06.64-2.21,1.1-3.53l1.87-5.07h1.73l.65,10.49H127Z"/><path class="cls-5" d="M130.36,200.65a15.64,15.64,0,0,1,2.6-.2,4.31,4.31,0,0,1,2.94.87,2.82,2.82,0,0,1,.92,2.19,3.09,3.09,0,0,1-.81,2.24,4.35,4.35,0,0,1-3.21,1.15,4.64,4.64,0,0,1-1.09-.09V211h-1.35Zm1.35,5.06a4.52,4.52,0,0,0,1.12.11c1.63,0,2.63-.79,2.63-2.24s-1-2.05-2.48-2.05a5.66,5.66,0,0,0-1.28.11Z"/><path class="cls-5" d="M138.64,200.67a14,14,0,0,1,2.6-.22,4.29,4.29,0,0,1,3,.86,2.61,2.61,0,0,1,.83,2,2.75,2.75,0,0,1-2,2.68v0a2.62,2.62,0,0,1,1.54,2.12,16.63,16.63,0,0,0,.81,2.88h-1.4a13.55,13.55,0,0,1-.7-2.51c-.31-1.45-.87-2-2.1-2H140V211h-1.35Zm1.35,4.78h1.39c1.45,0,2.37-.79,2.37-2,0-1.35-1-1.95-2.41-2a5.55,5.55,0,0,0-1.34.13Z"/><path class="cls-5" d="M148.78,207.72l-1.09,3.3h-1.4l3.56-10.49h1.63L155.07,211h-1.45l-1.12-3.3Zm3.44-1.06-1-3c-.23-.69-.39-1.31-.54-1.92h0c-.16.62-.33,1.26-.53,1.9l-1,3Z"/><path class="cls-5" d="M159.91,200.67a19.33,19.33,0,0,1,2.88-.22,6,6,0,0,1,4.25,1.31,4.83,4.83,0,0,1,1.48,3.77A5.55,5.55,0,0,1,167,209.6a6.46,6.46,0,0,1-4.64,1.51,21.78,21.78,0,0,1-2.46-.12Zm1.35,9.28a8.51,8.51,0,0,0,1.37.08c2.9,0,4.47-1.62,4.47-4.45,0-2.47-1.38-4-4.25-4a7.66,7.66,0,0,0-1.59.14Z"/><path class="cls-5" d="M175.7,206.1h-4.08v3.78h4.54V211h-5.9V200.53h5.67v1.14h-4.31V205h4.08Z"/><path class="cls-5" d="M181,209.37a4.8,4.8,0,0,0,2.43.68c1.39,0,2.19-.73,2.19-1.79s-.56-1.54-2-2.09c-1.71-.61-2.77-1.49-2.77-3,0-1.63,1.35-2.85,3.39-2.85a4.77,4.77,0,0,1,2.32.51l-.37,1.1a4.18,4.18,0,0,0-2-.5c-1.43,0-2,.86-2,1.57,0,1,.64,1.46,2.09,2,1.77.68,2.68,1.54,2.68,3.08s-1.2,3-3.67,3a5.42,5.42,0,0,1-2.68-.67Z"/><path class="cls-5" d="M190.89,201.68H187.7v-1.15h7.77v1.15h-3.21V211h-1.37Z"/><path class="cls-5" d="M205.17,205.66c0,3.61-2.19,5.53-4.87,5.53s-4.72-2.15-4.72-5.32c0-3.33,2.07-5.51,4.87-5.51S205.17,202.55,205.17,205.66Zm-8.14.17c0,2.24,1.21,4.25,3.35,4.25s3.36-2,3.36-4.36c0-2.08-1.09-4.26-3.35-4.26S197,203.53,197,205.83Z"/><path class="cls-5" d="M214.26,210.67a6.72,6.72,0,0,1-2.77.5,4.9,4.9,0,0,1-5.18-5.31,5.22,5.22,0,0,1,5.48-5.51,5.63,5.63,0,0,1,2.49.47l-.33,1.11a4.92,4.92,0,0,0-2.12-.44c-2.46,0-4.09,1.57-4.09,4.33,0,2.57,1.48,4.22,4,4.22a5.42,5.42,0,0,0,2.21-.44Z"/><path class="cls-5" d="M216,200.53h1.35v5.06h0c.28-.41.56-.78.82-1.12l3.21-3.94h1.68l-3.8,4.45,4.09,6h-1.6l-3.46-5.15-1,1.15v4H216Z"/><path class="cls-5" d="M155.34,63.94V63.3l.83-.8c2-1.89,2.89-2.9,2.9-4.08a1.39,1.39,0,0,0-1.55-1.52,2.65,2.65,0,0,0-1.66.66l-.34-.74a3.42,3.42,0,0,1,2.21-.79,2.19,2.19,0,0,1,2.39,2.27c0,1.44-1,2.6-2.69,4.19l-.62.58v0h3.5v.88Z"/><path class="cls-5" d="M163.78,57.13h0l-1.36.73-.2-.8,1.7-.91h.9v7.8h-1Z"/><path class="cls-5" d="M167.73,59.1a.71.71,0,1,1,1.43,0,.71.71,0,1,1-1.43,0Zm0,4.23a.71.71,0,1,1,1.43,0,.71.71,0,1,1-1.43,0Z"/><path class="cls-5" d="M175.31,60c0,2.65-1,4.11-2.71,4.11-1.52,0-2.55-1.43-2.58-4S171.15,56,172.73,56,175.31,57.48,175.31,60Zm-4.23.12c0,2,.62,3.18,1.58,3.18S174.26,62,174.26,60s-.49-3.18-1.58-3.18C171.75,56.83,171.08,58,171.08,60.08Z"/><path class="cls-5" d="M180.74,56.89a3.77,3.77,0,0,0-.79,0,3.17,3.17,0,0,0-2.71,2.77h0a2.38,2.38,0,0,1,4.23,1.62,2.61,2.61,0,0,1-2.59,2.75c-1.67,0-2.76-1.29-2.76-3.32a4.9,4.9,0,0,1,1.32-3.51,4.25,4.25,0,0,1,2.5-1.15,5.09,5.09,0,0,1,.77-.06Zm-.3,4.5a1.58,1.58,0,0,0-1.61-1.79,1.74,1.74,0,0,0-1.51,1,.89.89,0,0,0-.12.47c0,1.28.61,2.23,1.71,2.23C179.82,63.26,180.44,62.5,180.44,61.39Z"/><path class="cls-5" d="M97.19,159.52v-.65l.83-.8c2-1.89,2.89-2.9,2.9-4.08a1.39,1.39,0,0,0-1.55-1.52,2.65,2.65,0,0,0-1.66.66l-.34-.74a3.42,3.42,0,0,1,2.21-.79,2.19,2.19,0,0,1,2.39,2.27c0,1.44-1,2.6-2.69,4.19l-.62.58v0h3.5v.88Z"/><path class="cls-5" d="M105.64,152.7h0l-1.36.73-.2-.8,1.7-.91h.9v7.8h-1Z"/><path class="cls-5" d="M109.59,154.67a.71.71,0,1,1,1.43,0,.71.71,0,1,1-1.43,0Zm0,4.23a.71.71,0,1,1,1.43,0,.71.71,0,1,1-1.43,0Z"/><path class="cls-5" d="M117.17,155.54c0,2.65-1,4.11-2.71,4.11-1.52,0-2.55-1.43-2.58-4s1.13-4.05,2.71-4.05S117.17,153.05,117.17,155.54Zm-4.23.12c0,2,.62,3.18,1.58,3.18s1.59-1.26,1.59-3.25-.49-3.18-1.58-3.18C113.61,152.4,112.94,153.53,112.94,155.65Z"/><path class="cls-5" d="M123.33,155.54c0,2.65-1,4.11-2.71,4.11-1.52,0-2.55-1.43-2.58-4s1.13-4.05,2.71-4.05S123.33,153.05,123.33,155.54Zm-4.23.12c0,2,.62,3.18,1.58,3.18s1.59-1.26,1.59-3.25-.49-3.18-1.58-3.18C119.76,152.4,119.09,153.53,119.09,155.65Z"/><path class="cls-5" d="M100.64,230.13h0l-1.36.73-.2-.8,1.7-.91h.9v7.8h-1Z"/><path class="cls-5" d="M109.56,229.15v.7l-3.39,7.1h-1.09l3.38-6.9v0h-3.81v-.88Z"/><path class="cls-5" d="M110.74,232.1a.71.71,0,1,1,1.43,0,.71.71,0,1,1-1.43,0Zm0,4.23a.71.71,0,1,1,1.43,0,.71.71,0,1,1-1.43,0Z"/><path class="cls-5" d="M117.8,230h-3l-.3,2a4.11,4.11,0,0,1,.64,0,3.29,3.29,0,0,1,1.68.42,2.22,2.22,0,0,1,1.12,2,2.7,2.7,0,0,1-2.9,2.66,3.82,3.82,0,0,1-1.94-.48l.26-.8a3.49,3.49,0,0,0,1.67.43,1.72,1.72,0,0,0,1.85-1.69c0-1-.68-1.73-2.24-1.73a8,8,0,0,0-1.08.08l.5-3.74h3.73Z"/><path class="cls-5" d="M124.48,233c0,2.65-1,4.11-2.71,4.11-1.52,0-2.55-1.43-2.58-4s1.13-4.05,2.71-4.05S124.48,230.48,124.48,233Zm-4.23.12c0,2,.62,3.18,1.58,3.18s1.59-1.26,1.59-3.25-.49-3.18-1.58-3.18C120.92,229.83,120.24,231,120.24,233.08Z"/></g></g></svg>