<svg xmlns="http://www.w3.org/2000/svg" viewBox="0 0 540.87 518.42"><defs><style>.cls-1{fill:#209191;}.cls-2{fill:#d61e1a;}.cls-3{fill:#e5ac0e;}.cls-15,.cls-4,.cls-47{fill:#ededed;}.cls-5{fill:#d61c18;}.cls-10,.cls-11,.cls-12,.cls-13,.cls-14,.cls-48,.cls-49,.cls-6,.cls-7,.cls-8,.cls-9{fill:none;}.cls-14,.cls-15,.cls-47,.cls-48,.cls-49,.cls-6{stroke:#ededed;}.cls-10,.cls-11,.cls-12,.cls-13,.cls-14,.cls-15,.cls-47,.cls-48,.cls-49,.cls-6,.cls-7,.cls-8,.cls-9{stroke-miterlimit:10;}.cls-10,.cls-6,.cls-7,.cls-8,.cls-9{stroke-width:15px;}.cls-7{stroke:#1d1d1b;opacity:0;}.cls-13,.cls-8{stroke:#e5ac0e;}.cls-12,.cls-9{stroke:#d61e1a;}.cls-10,.cls-11{stroke:#209191;}.cls-11,.cls-12,.cls-13,.cls-14{stroke-width:3px;}.cls-15{stroke-width:1.23px;}.cls-16{fill:#1d1d1b;}.cls-17{fill:#fff;}.cls-18{fill:#9cc651;}.cls-19{fill:#df9b2d;}.cls-20{fill:#f4de3e;}.cls-21{fill:#ea5730;}.cls-22{fill:#9a371a;}.cls-23{fill:#40732e;}.cls-24{fill:#a7ce88;}.cls-25{fill:#c7dfb3;}.cls-26{fill:#662114;}.cls-27{fill:#7d3325;}.cls-28{fill:#cf5038;}.cls-29{fill:#ec644c;}.cls-30{fill:#ebca6e;}.cls-31{fill:#daa561;}.cls-32{fill:#f2d383;}.cls-33{fill:#b3874e;}.cls-34{fill:#ea503f;}.cls-35{fill:#c34332;}.cls-36{fill:#d99e83;}.cls-37{fill:#f7bba6;}.cls-38{fill:#de2f45;}.cls-39{fill:#fecc50;}.cls-40{fill:#e0f0f0;}.cls-41{fill:#d51116;}.cls-42{fill:#3f2824;}.cls-43{fill:#e8451e;}.cls-44{fill:#f38f1c;}.cls-45{fill:#3c5fa9;}.cls-46{fill:#aed3b0;}.cls-47{stroke-width:0.89px;}.cls-48{stroke-width:2.68px;}.cls-49{stroke-width:3.41px;}.cls-50{fill:#ffe082;}.cls-51{fill:#fcc010;}.cls-52{fill:#fed068;}.cls-53{fill:#9a4730;}.cls-54{fill:#d85b4b;}.cls-55{fill:#c74a41;}.cls-56{opacity:0.5;}.cls-57{fill:#060707;}</style></defs><title>estadisticas_sm</title><g id="Capa_2" data-name="Capa 2"><g id="Capa_1-2" data-name="Capa 1"><circle class="cls-1" cx="250.92" cy="35.92" r="35.92"/><circle class="cls-2" cx="250.92" cy="122.83" r="35.92"/><circle class="cls-3" cx="250.92" cy="209.74" r="35.92"/><circle class="cls-4" cx="160.92" cy="271.27" r="35.92"/><circle class="cls-3" cx="410.88" cy="269.9" r="41.35"/><circle class="cls-5" cx="497.83" cy="269.9" r="41.35"/><path class="cls-6" d="M92.75,214.67l-1.75,0a83.5,83.5,0,0,1,0-167"/><path class="cls-7" d="M95.76,214.55q-1.5.08-3,.12"/><path class="cls-8" d="M169.84,158.75a83.55,83.55,0,0,1-74.08,55.8"/><path class="cls-7" d="M170.77,155.94q-.44,1.41-.93,2.81"/><path class="cls-9" d="M170.34,105.08a84,84,0,0,1,.43,50.87"/><path class="cls-7" d="M169.35,102.25q.52,1.4,1,2.83"/><path class="cls-10" d="M95.77,47.82a83.55,83.55,0,0,1,73.58,54.42"/><path class="cls-7" d="M92.75,47.71q1.52,0,3,.12"/><path class="cls-6" d="M91,47.69l1.75,0"/><polyline class="cls-11" points="138.24 62.33 170.77 35.92 215 35.92"/><line class="cls-12" x1="176.62" y1="122.83" x2="215" y2="122.83"/><polyline class="cls-13" points="154.82 185.04 183 209.74 215 209.74"/><polyline class="cls-14" points="52.45 205.27 52.45 271.26 125 271.26"/><polygon class="cls-1" points="298.38 238.4 298.38 83.19 323.93 66.13 351 83.86 351 238.4 298.38 238.4"/><polygon class="cls-3" points="384.12 238.4 384.12 113.52 410.5 96.86 437.33 112.86 436.43 237.4 384.12 238.4"/><polygon class="cls-5" points="471.07 238.4 471.07 147.19 497.83 130.85 525 147.19 523.38 237.4 471.07 238.4"/><rect class="cls-4" x="364.88" y="15.61" width="147.68" height="49.12" rx="6.8" ry="6.8"/><circle class="cls-15" cx="93.26" cy="131.19" r="60.07"/><circle class="cls-1" cx="323.93" cy="269.9" r="41.35"/><path class="cls-16" d="M401.43,29.09v8h-1.09v-8Z"/><path class="cls-16" d="M403.33,37.12v-8h1.19l2.7,4.06a22.47,22.47,0,0,1,1.51,2.61h0c-.1-1.07-.12-2-.12-3.3V29.09h1v8h-1.1L405.88,33a25.17,25.17,0,0,1-1.57-2.68h0c.06,1,.09,2,.09,3.31v3.43Z"/><path class="cls-16" d="M418,36.76a8.2,8.2,0,0,1-2.59.44,4.46,4.46,0,0,1-3.15-1.06,4,4,0,0,1-1.17-3c0-2.39,1.74-4.14,4.56-4.14a5.43,5.43,0,0,1,2.1.37l-.26.85a4.56,4.56,0,0,0-1.86-.35,3.08,3.08,0,0,0-3.39,3.23,3,3,0,0,0,3.25,3.24,3.7,3.7,0,0,0,1.45-.21V33.74h-1.71V32.9H418Z"/><path class="cls-16" d="M419.63,29.2a11.84,11.84,0,0,1,2.09-.17,3.56,3.56,0,0,1,2.44.65,2,2,0,0,1,.66,1.52,2.12,2.12,0,0,1-1.59,2v0a2,2,0,0,1,1.24,1.62,12.29,12.29,0,0,0,.65,2.2H424a10,10,0,0,1-.56-1.92c-.25-1.11-.7-1.52-1.69-1.56h-1v3.48h-1.09Zm1.09,3.65h1.11c1.16,0,1.9-.61,1.9-1.52s-.79-1.49-1.94-1.5a4.71,4.71,0,0,0-1.07.09Z"/><path class="cls-16" d="M430.72,33.35h-3.27v2.89h3.65v.87h-4.74v-8h4.55V30h-3.46V32.5h3.27Z"/><path class="cls-16" d="M432.51,29.2a16.32,16.32,0,0,1,2.31-.17,5,5,0,0,1,3.41,1,3.61,3.61,0,0,1,1.19,2.88A4.13,4.13,0,0,1,438.21,36a5.36,5.36,0,0,1-3.72,1.15,18.39,18.39,0,0,1-2-.1Zm1.09,7.09a7.17,7.17,0,0,0,1.1.06c2.32,0,3.59-1.24,3.59-3.4,0-1.89-1.11-3.09-3.41-3.09a6.46,6.46,0,0,0-1.27.11Z"/><path class="cls-16" d="M441.92,29.09v8h-1.09v-8Z"/><path class="cls-16" d="M448.18,33.35h-3.27v2.89h3.65v.87h-4.74v-8h4.55V30h-3.46V32.5h3.27Z"/><path class="cls-16" d="M450,37.12v-8h1.19l2.7,4.06a22.47,22.47,0,0,1,1.51,2.61h0c-.1-1.07-.12-2-.12-3.3V29.09h1v8h-1.1L452.52,33a25.17,25.17,0,0,1-1.57-2.68h0c.06,1,.09,2,.09,3.31v3.43Z"/><path class="cls-16" d="M459.8,30h-2.56v-.88h6.24V30H460.9v7.14h-1.1Z"/><path class="cls-16" d="M468.77,33.35H465.5v2.89h3.65v.87h-4.74v-8H469V30H465.5V32.5h3.27Z"/><path class="cls-16" d="M470.41,35.85a4,4,0,0,0,1.95.52c1.11,0,1.76-.56,1.76-1.37s-.45-1.18-1.59-1.6c-1.37-.46-2.22-1.14-2.22-2.27S471.4,29,473,29a4,4,0,0,1,1.86.39l-.3.85a3.49,3.49,0,0,0-1.6-.38c-1.15,0-1.59.65-1.59,1.2,0,.75.51,1.12,1.67,1.55,1.42.52,2.15,1.18,2.15,2.36s-1,2.31-2.95,2.31a4.53,4.53,0,0,1-2.15-.51Z"/><path class="cls-16" d="M396.84,47.87c-.06-1.12-.14-2.46-.12-3.46h0c-.29.94-.64,1.94-1.06,3l-1.49,3.89h-.82l-1.36-3.82c-.4-1.13-.74-2.17-1-3.12h0c0,1-.09,2.34-.16,3.55l-.23,3.44h-1l.59-8h1.39l1.44,3.88c.35,1,.64,1.87.85,2.7h0c.21-.81.51-1.69.89-2.7l1.5-3.88h1.39l.52,8h-1.06Z"/><path class="cls-16" d="M401,48.87l-.87,2.52H399l2.86-8h1.31l2.87,8h-1.16l-.9-2.52Zm2.76-.81L403,45.75c-.19-.52-.31-1-.44-1.46h0c-.12.48-.26,1-.42,1.45l-.82,2.32Zm.6-6.51-1.59,1.39h-.9l1.16-1.39Z"/><path class="cls-16" d="M407.17,50.13a4,4,0,0,0,1.95.52c1.11,0,1.76-.56,1.76-1.37s-.45-1.18-1.59-1.6c-1.37-.46-2.22-1.14-2.22-2.27s1.09-2.18,2.72-2.18a4,4,0,0,1,1.86.39l-.3.85a3.49,3.49,0,0,0-1.6-.38c-1.15,0-1.59.65-1.59,1.2,0,.75.51,1.12,1.67,1.55,1.42.52,2.15,1.18,2.15,2.36s-1,2.31-2.95,2.31a4.53,4.53,0,0,1-2.15-.51Z"/><path class="cls-16" d="M422,51.13a5.64,5.64,0,0,1-2.22.38,3.84,3.84,0,0,1-4.16-4.06,4.09,4.09,0,0,1,4.4-4.21,4.72,4.72,0,0,1,2,.36l-.26.85a4.13,4.13,0,0,0-1.7-.33,3.05,3.05,0,0,0-3.29,3.31A3,3,0,0,0,420,50.64a4.55,4.55,0,0,0,1.78-.33Z"/><path class="cls-16" d="M430.32,47.3c0,2.76-1.76,4.23-3.91,4.23a3.75,3.75,0,0,1-3.79-4.07,3.89,3.89,0,0,1,3.91-4.21A3.73,3.73,0,0,1,430.32,47.3Zm-6.54.13c0,1.71,1,3.25,2.69,3.25s2.7-1.51,2.7-3.33c0-1.6-.87-3.26-2.69-3.26S423.78,45.67,423.78,47.43Z"/><path class="cls-16" d="M431.73,51.39v-8h1.19l2.7,4.06A22.47,22.47,0,0,1,437.13,50h0c-.1-1.07-.12-2-.12-3.3V43.37h1v8H437l-2.67-4.07a25.17,25.17,0,0,1-1.57-2.68h0c.06,1,.09,2,.09,3.31v3.43Z"/><path class="cls-16" d="M439.81,50.13a4,4,0,0,0,1.95.52c1.11,0,1.76-.56,1.76-1.37s-.45-1.18-1.59-1.6c-1.37-.46-2.22-1.14-2.22-2.27s1.09-2.18,2.72-2.18a4,4,0,0,1,1.86.39l-.3.85a3.49,3.49,0,0,0-1.6-.38c-1.15,0-1.59.65-1.59,1.2,0,.75.51,1.12,1.67,1.55,1.42.52,2.15,1.18,2.15,2.36s-1,2.31-2.95,2.31a4.53,4.53,0,0,1-2.15-.51Z"/><path class="cls-16" d="M447.21,43.37v4.75c0,1.8.84,2.56,2,2.56s2-.79,2-2.56V43.37h1.1V48c0,2.46-1.36,3.48-3.19,3.48s-3-.94-3-3.43V43.37Z"/><path class="cls-16" d="M461.31,47.87c-.06-1.12-.14-2.46-.12-3.46h0c-.29.94-.64,1.94-1.06,3l-1.49,3.89h-.82l-1.36-3.82c-.4-1.13-.74-2.17-1-3.12h0c0,1-.09,2.34-.16,3.55L455,51.39h-1l.59-8H456l1.44,3.88c.35,1,.64,1.87.85,2.7h0c.21-.81.51-1.69.89-2.7l1.5-3.88h1.39l.52,8h-1.06Z"/><path class="cls-16" d="M465.35,43.37v8h-1.09v-8Z"/><path class="cls-16" d="M467.25,43.48a16.32,16.32,0,0,1,2.31-.17,5,5,0,0,1,3.41,1,3.61,3.61,0,0,1,1.19,2.88,4.13,4.13,0,0,1-1.21,3.12,5.36,5.36,0,0,1-3.72,1.15,18.39,18.39,0,0,1-2-.1Zm1.09,7.09a7.17,7.17,0,0,0,1.1.06c2.32,0,3.59-1.24,3.59-3.4,0-1.89-1.11-3.09-3.41-3.09a6.46,6.46,0,0,0-1.27.11Z"/><path class="cls-16" d="M482.77,47.3c0,2.76-1.76,4.23-3.91,4.23a3.75,3.75,0,0,1-3.79-4.07A3.89,3.89,0,0,1,479,43.24,3.73,3.73,0,0,1,482.77,47.3Zm-6.54.13c0,1.71,1,3.25,2.69,3.25s2.7-1.51,2.7-3.33c0-1.6-.87-3.26-2.69-3.26S476.24,45.67,476.24,47.43Z"/><path class="cls-16" d="M484,50.13a4,4,0,0,0,1.95.52c1.11,0,1.76-.56,1.76-1.37s-.45-1.18-1.59-1.6c-1.37-.46-2.22-1.14-2.22-2.27s1.09-2.18,2.72-2.18a4,4,0,0,1,1.86.39l-.3.85a3.49,3.49,0,0,0-1.6-.38c-1.15,0-1.59.65-1.59,1.2,0,.75.51,1.12,1.67,1.55,1.42.52,2.15,1.18,2.15,2.36s-1,2.31-2.95,2.31a4.53,4.53,0,0,1-2.15-.51Z"/><path class="cls-17" d="M317.73,151.88v.9l-4.59,9.15h-1.48l4.58-8.89v0h-5.16v-1.13Z"/><path class="cls-17" d="M326.22,156.8c0,3.42-1.33,5.3-3.67,5.3-2.06,0-3.46-1.84-3.49-5.16s1.53-5.22,3.67-5.22S326.22,153.6,326.22,156.8Zm-5.73.15c0,2.61.84,4.1,2.14,4.1,1.46,0,2.16-1.62,2.16-4.19s-.67-4.1-2.14-4.1C321.4,152.77,320.49,154.22,320.49,157Z"/><path class="cls-17" d="M332.29,154.71c0,2.12-1.17,3.17-2.53,3.17s-2.45-1-2.47-3,1.15-3.14,2.55-3.14S332.29,152.8,332.29,154.71Zm-3.86.09c0,1.28.47,2.26,1.36,2.26s1.36-1,1.36-2.29-.37-2.24-1.36-2.24S328.43,153.54,328.43,154.81Zm1.23,7.3,6.2-10.39h.91l-6.2,10.39Zm9.5-3.23c0,2.12-1.17,3.17-2.52,3.17s-2.45-1-2.47-3,1.15-3.15,2.55-3.15S339.16,157,339.16,158.87Zm-3.86.09c0,1.28.5,2.26,1.38,2.26s1.36-1,1.36-2.29-.37-2.24-1.36-2.24S335.3,157.7,335.3,159Z"/><path class="cls-17" d="M404.92,175.72h-4l-.41,2.58a5.86,5.86,0,0,1,.86-.06,4.64,4.64,0,0,1,2.27.54,2.84,2.84,0,0,1,1.51,2.58c0,2-1.64,3.43-3.93,3.43a5.37,5.37,0,0,1-2.63-.62l.36-1a4.91,4.91,0,0,0,2.26.56,2.29,2.29,0,0,0,2.5-2.18c0-1.3-.93-2.23-3-2.23a11.46,11.46,0,0,0-1.46.11l.68-4.82h5Z"/><path class="cls-17" d="M414,179.49c0,3.42-1.33,5.3-3.67,5.3-2.06,0-3.46-1.84-3.49-5.16s1.53-5.22,3.67-5.22S414,176.3,414,179.49Zm-5.73.15c0,2.61.84,4.1,2.14,4.1,1.46,0,2.16-1.62,2.16-4.19s-.67-4.1-2.14-4.1C409.14,175.46,408.23,176.91,408.23,179.65Z"/><path class="cls-17" d="M420,177.41c0,2.12-1.17,3.17-2.53,3.17s-2.45-1-2.47-3,1.15-3.14,2.55-3.14S420,175.49,420,177.41Zm-3.86.09c0,1.28.47,2.26,1.36,2.26s1.36-1,1.36-2.29-.37-2.24-1.36-2.24S416.17,176.23,416.17,177.5Zm1.23,7.3,6.2-10.39h.91l-6.2,10.39Zm9.5-3.23c0,2.12-1.17,3.17-2.52,3.17s-2.45-1-2.47-3,1.15-3.15,2.55-3.15S426.9,179.65,426.9,181.57Zm-3.86.09c0,1.28.5,2.26,1.38,2.26s1.36-1,1.36-2.29-.37-2.24-1.36-2.24S423,180.39,423,181.66Z"/><path class="cls-17" d="M485.91,201.22a5,5,0,0,0,2.34.63c1.83,0,2.4-1.11,2.39-1.95,0-1.41-1.35-2-2.73-2h-.8v-1h.8c1,0,2.35-.51,2.35-1.7,0-.8-.54-1.51-1.85-1.51a4,4,0,0,0-2.11.66l-.37-1a5.2,5.2,0,0,1,2.76-.77c2.08,0,3,1.17,3,2.4a2.52,2.52,0,0,1-1.95,2.36v0a2.66,2.66,0,0,1,2.35,2.58c0,1.61-1.32,3-3.85,3a5.57,5.57,0,0,1-2.74-.68Z"/><path class="cls-17" d="M500.91,197.65c0,3.42-1.33,5.3-3.67,5.3-2.06,0-3.46-1.84-3.49-5.16s1.53-5.22,3.67-5.22S500.91,194.45,500.91,197.65Zm-5.73.15c0,2.61.84,4.1,2.14,4.1,1.46,0,2.16-1.62,2.16-4.19s-.67-4.1-2.14-4.1C496.09,193.62,495.18,195.07,495.18,197.81Z"/><path class="cls-17" d="M507,195.57c0,2.12-1.17,3.17-2.53,3.17s-2.45-1-2.47-3,1.15-3.14,2.55-3.14S507,193.65,507,195.57Zm-3.86.09c0,1.28.47,2.26,1.36,2.26s1.36-1,1.36-2.29-.37-2.24-1.36-2.24S503.12,194.39,503.12,195.66Zm1.23,7.3,6.2-10.39h.91L505.26,203Zm9.5-3.23c0,2.12-1.17,3.17-2.52,3.17s-2.45-1-2.47-3,1.15-3.15,2.55-3.15S513.85,197.81,513.85,199.72Zm-3.86.09c0,1.28.5,2.26,1.38,2.26s1.36-1,1.36-2.29-.37-2.24-1.36-2.24S510,198.55,510,199.82Z"/><path class="cls-16" d="M57.72,120.72a13.5,13.5,0,0,1,2.13-.16,3.66,3.66,0,0,1,2.41.68,2.15,2.15,0,0,1,.75,1.71,2.34,2.34,0,0,1-.66,1.75,3.67,3.67,0,0,1-2.63.9,4,4,0,0,1-.89-.07v3.28H57.72Zm1.11,3.94a3.92,3.92,0,0,0,.92.08c1.34,0,2.16-.62,2.16-1.75s-.8-1.6-2-1.6a4.91,4.91,0,0,0-1,.08Z"/><path class="cls-16" d="M64.51,120.73a12.12,12.12,0,0,1,2.13-.17,3.64,3.64,0,0,1,2.49.67,2,2,0,0,1,.68,1.55,2.16,2.16,0,0,1-1.62,2.09v0a2.05,2.05,0,0,1,1.26,1.65,12.58,12.58,0,0,0,.66,2.24H69a10.21,10.21,0,0,1-.57-2c-.26-1.13-.71-1.55-1.72-1.59h-1v3.54H64.51Zm1.11,3.72h1.14c1.19,0,1.94-.62,1.94-1.55s-.8-1.52-2-1.53a4.81,4.81,0,0,0-1.1.1Z"/><path class="cls-16" d="M78.75,124.62c0,2.81-1.8,4.31-4,4.31a3.83,3.83,0,0,1-3.87-4.15,4,4,0,0,1,4-4.29A3.8,3.8,0,0,1,78.75,124.62Zm-6.67.13c0,1.75,1,3.31,2.74,3.31s2.76-1.54,2.76-3.4c0-1.63-.89-3.32-2.74-3.32S72.08,123,72.08,124.76Z"/><path class="cls-16" d="M80.19,120.73a16.69,16.69,0,0,1,2.36-.17,5.09,5.09,0,0,1,3.48,1,3.67,3.67,0,0,1,1.21,2.94A4.21,4.21,0,0,1,86,127.69a5.47,5.47,0,0,1-3.8,1.18,18.73,18.73,0,0,1-2-.1ZM81.3,128a7.39,7.39,0,0,0,1.12.06c2.37,0,3.66-1.26,3.66-3.47,0-1.93-1.14-3.15-3.48-3.15a6.63,6.63,0,0,0-1.3.11Z"/><path class="cls-16" d="M89.79,120.62v4.84c0,1.83.85,2.61,2,2.61s2.09-.8,2.09-2.61v-4.84H95v4.77c0,2.51-1.39,3.54-3.25,3.54s-3.09-1-3.09-3.49v-4.82Z"/><path class="cls-16" d="M102.94,128.53a5.75,5.75,0,0,1-2.27.39,3.92,3.92,0,0,1-4.25-4.14,4.18,4.18,0,0,1,4.49-4.29,4.81,4.81,0,0,1,2,.36l-.27.86a4.22,4.22,0,0,0-1.73-.34,3.11,3.11,0,0,0-3.35,3.37,3,3,0,0,0,3.3,3.29,4.63,4.63,0,0,0,1.81-.34Z"/><path class="cls-16" d="M106.32,121.52H103.7v-.9h6.37v.9h-2.63v7.28h-1.12Z"/><path class="cls-16" d="M118,124.62c0,2.81-1.8,4.31-4,4.31a3.83,3.83,0,0,1-3.86-4.15,4,4,0,0,1,4-4.29A3.8,3.8,0,0,1,118,124.62Zm-6.67.13c0,1.75,1,3.31,2.74,3.31s2.76-1.54,2.76-3.4c0-1.63-.89-3.32-2.74-3.32S111.35,123,111.35,124.76Z"/><path class="cls-16" d="M119.31,127.51a4.09,4.09,0,0,0,2,.53c1.14,0,1.8-.57,1.8-1.4s-.46-1.2-1.62-1.63c-1.4-.47-2.27-1.16-2.27-2.32s1.11-2.22,2.78-2.22a4.07,4.07,0,0,1,1.9.4l-.31.86a3.56,3.56,0,0,0-1.63-.39c-1.17,0-1.62.67-1.62,1.23,0,.76.52,1.14,1.71,1.58,1.45.53,2.19,1.2,2.19,2.4s-1,2.35-3,2.35a4.63,4.63,0,0,1-2.19-.52Z"/><path class="cls-16" d="M59.56,139.77c-.06-1.14-.14-2.51-.13-3.53h0c-.29,1-.65,2-1.08,3.11l-1.52,4H56l-1.39-3.89c-.41-1.15-.75-2.21-1-3.18h0c0,1-.09,2.39-.17,3.61l-.23,3.51H52.09l.6-8.18H54.1l1.47,4c.36,1,.65,1.9.87,2.75h0c.22-.82.52-1.72.91-2.75l1.53-4h1.42l.54,8.18H59.78Z"/><path class="cls-16" d="M63.83,140.79l-.89,2.57H61.79l2.92-8.18h1.34L69,143.36H67.8l-.92-2.57Zm2.82-.82-.84-2.35c-.19-.53-.32-1-.45-1.49h0c-.13.49-.27,1-.43,1.48L64.06,140Zm.61-6.64-1.62,1.42h-.92l1.19-1.42Z"/><path class="cls-16" d="M70.09,142.07a4.09,4.09,0,0,0,2,.53c1.14,0,1.8-.57,1.8-1.4s-.46-1.2-1.62-1.63c-1.4-.47-2.27-1.16-2.27-2.32S71.1,135,72.77,135a4.07,4.07,0,0,1,1.9.4l-.31.86a3.56,3.56,0,0,0-1.63-.39c-1.17,0-1.62.67-1.62,1.23,0,.76.52,1.14,1.71,1.58,1.45.53,2.19,1.2,2.19,2.4s-1,2.35-3,2.35a4.63,4.63,0,0,1-2.19-.52Z"/><path class="cls-16" d="M80.66,143.36l-2.81-8.18h1.2l1.34,4c.37,1.1.69,2.1.92,3.06h0c.24-.95.6-2,1-3l1.45-4H85l-3.07,8.18Z"/><path class="cls-16" d="M90.34,139.52H87v2.95h3.73v.89H85.89v-8.18h4.64v.89H87v2.58h3.34Z"/><path class="cls-16" d="M92.16,143.36v-8.18h1.21l2.76,4.14A22.8,22.8,0,0,1,97.67,142h0c-.1-1.09-.13-2.09-.13-3.36v-3.42h1v8.18H97.49l-2.73-4.15a25.6,25.6,0,0,1-1.61-2.73h0c.06,1,.09,2,.09,3.37v3.49Z"/><path class="cls-16" d="M100.55,135.29a16.67,16.67,0,0,1,2.36-.17,5.09,5.09,0,0,1,3.48,1,3.67,3.67,0,0,1,1.21,2.94,4.21,4.21,0,0,1-1.24,3.18,5.47,5.47,0,0,1-3.8,1.18,18.72,18.72,0,0,1-2-.1Zm1.11,7.23a7.39,7.39,0,0,0,1.12.06c2.37,0,3.66-1.26,3.66-3.47,0-1.93-1.14-3.15-3.48-3.15a6.63,6.63,0,0,0-1.3.11Z"/><path class="cls-16" d="M110.15,135.18v8.18H109v-8.18Z"/><path class="cls-16" d="M112.09,135.29a16.67,16.67,0,0,1,2.36-.17,5.09,5.09,0,0,1,3.48,1,3.67,3.67,0,0,1,1.21,2.94,4.21,4.21,0,0,1-1.24,3.18,5.47,5.47,0,0,1-3.8,1.18,18.72,18.72,0,0,1-2-.1Zm1.11,7.23a7.39,7.39,0,0,0,1.12.06c2.37,0,3.66-1.26,3.66-3.47,0-1.93-1.14-3.15-3.48-3.15a6.63,6.63,0,0,0-1.3.11Z"/><path class="cls-16" d="M127.93,139.18c0,2.81-1.8,4.31-4,4.31a3.83,3.83,0,0,1-3.87-4.15,4,4,0,0,1,4-4.29A3.8,3.8,0,0,1,127.93,139.18Zm-6.67.13c0,1.75,1,3.31,2.74,3.31s2.76-1.54,2.76-3.4c0-1.63-.89-3.32-2.74-3.32S121.26,137.52,121.26,139.32Z"/><path class="cls-16" d="M129.21,142.07a4.09,4.09,0,0,0,2,.53c1.14,0,1.8-.57,1.8-1.4s-.46-1.2-1.62-1.63c-1.4-.47-2.27-1.16-2.27-2.32s1.11-2.22,2.78-2.22a4.07,4.07,0,0,1,1.9.4l-.31.86a3.56,3.56,0,0,0-1.63-.39c-1.17,0-1.62.67-1.62,1.23,0,.76.52,1.14,1.71,1.58,1.45.53,2.19,1.2,2.19,2.4s-1,2.35-3,2.35a4.63,4.63,0,0,1-2.19-.52Z"/><polygon class="cls-18" points="181.1 258.53 181.1 267.56 158.37 267.56 147.04 267.56 140.5 267.56 140.5 258.53 181.1 258.53"/><path class="cls-19" d="M183.5,260.78a2.07,2.07,0,0,1-2.07,2.07H139.84a2.07,2.07,0,0,1-2.07-2.07,13.54,13.54,0,0,1,13.53-13.54H170a13.54,13.54,0,0,1,13.54,13.54Z"/><path class="cls-19" d="M148.95,260.78a13.54,13.54,0,0,1,13.53-13.54H152a13.54,13.54,0,0,0-13.53,13.54,2.07,2.07,0,0,0,2.07,2.07H151a2.07,2.07,0,0,1-2.07-2.07Z"/><circle class="cls-20" cx="150.54" cy="251.45" r="1.03"/><circle class="cls-20" cx="170.73" cy="251.45" r="1.03"/><circle class="cls-20" cx="157.27" cy="251.45" r="1.03"/><circle class="cls-20" cx="164" cy="251.45" r="1.03"/><path class="cls-19" d="M181.59,281.26a2.07,2.07,0,0,1,2.07,2.07v2.52a5.44,5.44,0,0,1-5.44,5.43H143.37a5.43,5.43,0,0,1-5.43-5.43v-2.52a2.07,2.07,0,0,1,2.07-2.07h.37l20-4.64,20.88,4.64h.37Z"/><polygon class="cls-21" points="181.1 274.76 181.1 281.68 176.18 281.68 164.85 281.68 140.5 281.68 140.5 274.76 181.1 274.76"/><path class="cls-22" d="M181.34,267.56a4.56,4.56,0,0,1,0,9.12H140.5a4.56,4.56,0,0,1,0-9.12h40.84Z"/><polygon class="cls-20" points="176.43 267.56 170.92 273.38 165.1 267.56 176.43 267.56"/><polygon class="cls-20" points="158.99 267.56 153.48 273.38 147.66 267.56 158.99 267.56"/><path class="cls-23" d="M518.25,253.78c2.93,7.4-1.76,25.16-12.86,32.46s-25,4.38-28.29-7.89c-2-7.58,3.42-13.13,14.52-20.43s23.74-11.44,26.63-4.14"/><path class="cls-23" d="M500.62,278.43c-8,5.57-18.72,6.31-22.62.71s.51-15.41,8.5-21,26.89-12,30.78-6.4-8.68,21.1-16.67,26.67"/><path class="cls-24" d="M499.65,279.1c-7.05,4.92-16.51,3.79-20-1.14s.58-13.68,7.63-18.59S512.15,248,515.59,253s-5.91,19.81-15.93,26.15"/><path class="cls-25" d="M497.64,275.86c-5.52,3.85-12.17,3.83-14.86,0s-.4-10.11,5.11-14,19.39-8.87,22.09-5-6.82,15.15-12.34,19"/><path class="cls-26" d="M489.06,261.85a9.19,9.19,0,0,1,12,1.22c1.75,1.81-1.08,6.59-5.34,9.45s-9.52,2.16-10.09.9a9.12,9.12,0,0,1,3.43-11.56"/><path class="cls-27" d="M491.39,262.6c1.85-1.24,4.18-1,5.21.53s.36,3.78-1.49,5-4.18,1-5.21-.53-.36-3.78,1.49-5"/><path class="cls-28" d="M396.11,287.58a23.8,23.8,0,0,0,31.73-.86,21.73,21.73,0,0,0,5.94-9.57c3.2-10.83-1.79-24.08-13.73-26.27-3-.55-6.31,0-8.46,2.2a.79.79,0,0,1-1.1,0c-2.27-2.09-5.61-2.44-8.56-1.74-11.8,2.83-16.06,16.33-12.28,27A21.72,21.72,0,0,0,396.11,287.58Z"/><path class="cls-29" d="M412.05,290a20.36,20.36,0,0,1-13.83-4.85,18.4,18.4,0,0,1-5.51-7.86,20,20,0,0,1,1-15.76,13.67,13.67,0,0,1,9-7,8.72,8.72,0,0,1,1.79-.24,5.26,5.26,0,0,1,4.13,1.53l1.3,1.5a1.62,1.62,0,0,0,2.51-.07l1.21-1.57a5.26,5.26,0,0,1,4-1.75,8.72,8.72,0,0,1,1.8.14,13.67,13.67,0,0,1,9.33,6.49,20,20,0,0,1,1.88,15.68,18.41,18.41,0,0,1-5.07,8.15,20.36,20.36,0,0,1-13.55,5.6Z"/><path class="cls-28" d="M407.49,285.94a2.82,2.82,0,0,1-1.71-.52c-3.82-2.69-10.25-8.37-10.46-16.16a10.25,10.25,0,0,1,2.86-7.81,6.75,6.75,0,0,1,8.61-.35,2.83,2.83,0,0,1-3.26,4.64c-.16-.11-1-.63-1.52-.11a5,5,0,0,0-1,3.48c.15,5.53,5.69,10,8.06,11.69a2.83,2.83,0,0,1-1.56,5.15Z"/><path class="cls-28" d="M416.37,285.7a2.82,2.82,0,0,0,1.68-.61c3.66-2.89,9.78-8.91,9.57-16.71a10.25,10.25,0,0,0-3.28-7.64,6.75,6.75,0,0,0-8.62.12,2.83,2.83,0,0,0,3.51,4.46c.15-.12.92-.68,1.51-.2a5,5,0,0,1,1.21,3.42c.15,5.53-5.14,10.31-7.42,12.11a2.83,2.83,0,0,0,1.84,5.06Z"/><path class="cls-28" d="M411.72,269.17c1.43-.58,4.07-1.08,4.74.86a3.56,3.56,0,0,1,.12,1.49,7.52,7.52,0,0,1-4.33,6.25,5.51,5.51,0,0,1-.53.18h.13l-.54-.15a7.52,7.52,0,0,1-4.67-6,3.56,3.56,0,0,1,0-1.5c.57-2,3.23-1.62,4.69-1.12Z"/><path class="cls-30" d="M402.43,263.64a1,1,0,0,1-.31,0,1.17,1.17,0,0,1-.27-.17.8.8,0,0,1-.25-.57.67.67,0,0,1,.06-.31.93.93,0,0,1,.16-.27l.12-.1.14-.08.14-.05a.82.82,0,0,1,.74.2.93.93,0,0,1,.18.26.8.8,0,0,1-.15.89,1.19,1.19,0,0,1-.26.19A1,1,0,0,1,402.43,263.64Z"/><path class="cls-30" d="M398.53,269.42a.8.8,0,0,1-.58-.22.93.93,0,0,1-.18-.26.81.81,0,0,1-.07-.31.85.85,0,0,1,.22-.58.84.84,0,0,1,1.15,0,.85.85,0,0,1,.25.57.8.8,0,0,1-.22.58,1.19,1.19,0,0,1-.26.19A1,1,0,0,1,398.53,269.42Z"/><path class="cls-30" d="M399.5,275.07a.81.81,0,0,1-.31-.06.73.73,0,0,1-.45-.43.76.76,0,0,1,0-.62.93.93,0,0,1,.16-.27l.12-.1.14-.08.14-.05a.83.83,0,0,1,.74.2.93.93,0,0,1,.18.26.76.76,0,0,1,0,.62.93.93,0,0,1-.16.27.8.8,0,0,1-.57.25Z"/><path class="cls-30" d="M402.87,279.84a.8.8,0,0,1-.58-.22.83.83,0,0,1-.18-.26A.67.67,0,0,1,402,279a.81.81,0,0,1,.06-.31.93.93,0,0,1,.16-.27.75.75,0,0,1,.26-.18.83.83,0,0,1,.89.15.93.93,0,0,1,.18.26.76.76,0,0,1,0,.62.83.83,0,0,1-.16.27A.8.8,0,0,1,402.87,279.84Z"/><path class="cls-30" d="M406.19,283a1,1,0,0,1-.31,0,1.17,1.17,0,0,1-.27-.17.8.8,0,0,1-.25-.57.85.85,0,0,1,.22-.58.83.83,0,0,1,.88-.19.84.84,0,0,1,.27.16.93.93,0,0,1,.18.26.8.8,0,0,1-.15.89,1.19,1.19,0,0,1-.26.19,1,1,0,0,1-.31.07Z"/><path class="cls-30" d="M420.24,263.16a1,1,0,0,1-.31,0,1.17,1.17,0,0,1-.27-.17.93.93,0,0,1-.18-.26.76.76,0,0,1,0-.62.73.73,0,0,1,.43-.45A.78.78,0,0,1,421,262a.8.8,0,0,1-.15.89,1.19,1.19,0,0,1-.26.19,1,1,0,0,1-.31.07Z"/><path class="cls-30" d="M424.44,268.72a.8.8,0,0,1-.58-.22,1.19,1.19,0,0,1-.19-.26.81.81,0,0,1,1.3-.92.93.93,0,0,1,.18.26.76.76,0,0,1,0,.62.93.93,0,0,1-.16.27A.8.8,0,0,1,424.44,268.72Z"/><path class="cls-30" d="M423.78,274.41a.81.81,0,0,1-.31-.06.83.83,0,0,1-.27-.16.93.93,0,0,1-.18-.26.76.76,0,0,1,0-.62.93.93,0,0,1,.16-.27.83.83,0,0,1,.26-.18.77.77,0,0,1,.47-.06l.15,0,.15.07.12.09a.93.93,0,0,1,.18.26.76.76,0,0,1,0,.62.93.93,0,0,1-.16.27A.8.8,0,0,1,423.78,274.41Z"/><path class="cls-30" d="M420.68,279.35a.8.8,0,0,1-.58-.22.93.93,0,0,1-.18-.26.76.76,0,0,1,0-.62.93.93,0,0,1,.16-.27.8.8,0,0,1,.72-.24l.16,0,.15.07.12.09a.93.93,0,0,1,.18.26.76.76,0,0,1,0,.62.83.83,0,0,1-.16.27.94.94,0,0,1-.26.18.81.81,0,0,1-.31.07Z"/><path class="cls-30" d="M417.53,282.68a.8.8,0,0,1-.78-1.1.93.93,0,0,1,.16-.27.83.83,0,0,1,.72-.24l.16,0a.44.44,0,0,1,.14.07l.13.09a.93.93,0,0,1,.18.26.8.8,0,0,1-.71,1.14Z"/><path class="cls-31" d="M250.92,13.61a47.33,47.33,0,0,0-24.46,6.77l24.46,40.79,24.46-40.79A47.33,47.33,0,0,0,250.92,13.61Z"/><path class="cls-32" d="M250.92,20.49A40.49,40.49,0,0,0,230,26.28l13.49,22.49s0,0,0,.05V62.3a1.85,1.85,0,0,0,3.7,0V54.94l3.74,6.23,8.46-14.11v5.65a1.85,1.85,0,0,0,3.7,0V40.89l1.7-2.83v5.26a1.85,1.85,0,0,0,3.7,0V31.89l3.36-5.61A40.49,40.49,0,0,0,250.92,20.49Z"/><path class="cls-33" d="M250.92,20.49A40.49,40.49,0,0,0,230,26.28l1,1.7a38.72,38.72,0,0,1,39.81,0l1-1.7A40.49,40.49,0,0,0,250.92,20.49Z"/><path class="cls-34" d="M256.91,40.18a6.88,6.88,0,0,0-1.55,13.59l6.74-11.23A6.87,6.87,0,0,0,256.91,40.18Z"/><path class="cls-34" d="M240.82,30.51a6.88,6.88,0,0,0-6.09,3.67l6.06,10.1h0a6.89,6.89,0,1,0,0-13.77Z"/><circle class="cls-34" cx="257.4" cy="30.84" r="6.89"/><path class="cls-34" d="M246.91,20.69a40.41,40.41,0,0,0-13.21,3.62,6.88,6.88,0,0,0,13.21-3.62Z"/><path class="cls-35" d="M246.91,20.69a40.41,40.41,0,0,0-13.21,3.62,6.88,6.88,0,0,0,1,1.73A38.44,38.44,0,0,1,247,22.68a6.79,6.79,0,0,0,0-2Z"/><circle class="cls-33" cx="230" cy="20.57" r="0.66"/><circle class="cls-33" cx="235.39" cy="21.89" r="0.66"/><circle class="cls-33" cx="241.22" cy="17.38" r="0.66"/><circle class="cls-33" cx="248.77" cy="18.71" r="0.66"/><circle class="cls-33" cx="256.72" cy="16.06" r="0.66"/><circle class="cls-33" cx="260.58" cy="19.91" r="0.66"/><circle class="cls-33" cx="272.51" cy="21.15" r="0.66"/><circle class="cls-33" cx="266.96" cy="19.83" r="0.66"/><path class="cls-36" d="M270.31,142.08a13.14,13.14,0,0,1-18.58,0l-20.65-20.65a13.14,13.14,0,1,1,18.58-18.58l20.65,20.65a13.14,13.14,0,0,1,0,18.58"/><path class="cls-37" d="M267.26,126.65c5.13,5.13,6.73,11.85,3.61,15s-9.84,1.52-15-3.61l-20.65-20.65c-5.13-5.13-6.73-11.85-3.61-15s9.84-1.52,15,3.61Z"/><path class="cls-38" d="M272.86,138.44c2.07,2.07,2.35,5.12.64,6.84s-4.77,1.42-6.84-.64L228.43,106.4c-2.07-2.06-2.35-5.13-.64-6.84s4.77-1.42,6.84.64Z"/><path class="cls-39" d="M271.34,142.64a1.58,1.58,0,0,1-1.12-.47,6,6,0,0,0-3.53-1.81,9.64,9.64,0,0,1-7.74-7.74,6.48,6.48,0,0,0-5.34-5.34,9.63,9.63,0,0,1-7.74-7.74,6.46,6.46,0,0,0-5.33-5.33,9.62,9.62,0,0,1-7.73-7.73,6,6,0,0,0-1.81-3.53,1.59,1.59,0,0,1,2.25-2.25,9.16,9.16,0,0,1,2.66,5.07,6.47,6.47,0,0,0,5.33,5.33,9.62,9.62,0,0,1,7.73,7.73,6.47,6.47,0,0,0,5.34,5.34,9.64,9.64,0,0,1,7.74,7.74,6.49,6.49,0,0,0,5.35,5.34,9.18,9.18,0,0,1,5.08,2.67,1.59,1.59,0,0,1-1.12,2.71Z"/><path class="cls-40" d="M240.31,192.5v-5.72H234.6v5.72c0,3.5-6.92,3.69-6.92,12.09V227a5.72,5.72,0,0,0,5.72,5.72h8.15a5.72,5.72,0,0,0,5.72-5.72h0V204.59C247.24,196.19,240.31,196,240.31,192.5Z"/><rect class="cls-41" x="233.52" y="186.78" width="7.86" height="3.57"/><path class="cls-42" d="M233.39,232.69h8.15a5.72,5.72,0,0,0,5.72-5.72h0V204.59H227.67V227A5.72,5.72,0,0,0,233.39,232.69Z"/><path class="cls-40" d="M266.69,192.5v-5.72H261v5.72c0,3.5-6.92,3.69-6.92,12.09V227a5.72,5.72,0,0,0,5.72,5.72h8.15a5.72,5.72,0,0,0,5.7-5.72V204.59C273.61,196.19,266.69,196,266.69,192.5Z"/><rect class="cls-43" x="259.9" y="186.78" width="7.86" height="3.57"/><path class="cls-44" d="M259.76,232.69h8.15a5.72,5.72,0,0,0,5.7-5.72V204.59H254V227A5.72,5.72,0,0,0,259.76,232.69Z"/><path class="cls-40" d="M253.49,194.5v-5.72h-5.7v5.72c0,3.5-6.92,3.69-6.92,12.09V229a5.72,5.72,0,0,0,5.72,5.72h8.15a5.72,5.72,0,0,0,5.72-5.72h0V206.59C260.43,198.19,253.49,198,253.49,194.5Z"/><rect class="cls-45" x="246.72" y="188.78" width="7.86" height="3.57"/><path class="cls-46" d="M246.57,234.69h8.15a5.72,5.72,0,0,0,5.72-5.72h0V206.59H240.85V229A5.72,5.72,0,0,0,246.57,234.69Z"/><rect class="cls-4" x="4.99" y="300.55" width="118.5" height="40.58" rx="5.41" ry="5.41"/><rect class="cls-4" x="386.69" y="351.15" width="72.39" height="20.11" rx="4.47" ry="4.47"/><rect class="cls-4" x="468.47" y="351.15" width="72.39" height="20.11" rx="4.47" ry="4.47"/><rect class="cls-4" x="304.91" y="351.15" width="72.39" height="20.11" rx="4.47" ry="4.47"/><rect class="cls-4" x="221.35" y="351.15" width="72.39" height="20.11" rx="4.47" ry="4.47"/><rect class="cls-47" x="141.8" y="351.15" width="72.39" height="20.11" rx="4.47" ry="4.47"/><line class="cls-14" x1="64.99" y1="359.09" x2="64.99" y2="339.59"/><polyline class="cls-48" points="114.99 323.67 422.89 323.67 422.89 351.15"/><line class="cls-48" x1="178" y1="323.67" x2="178" y2="351.15"/><line class="cls-48" x1="257.55" y1="323.67" x2="257.55" y2="351.15"/><line class="cls-48" x1="341.11" y1="323.67" x2="341.11" y2="351.15"/><line class="cls-49" x1="124.49" y1="418.59" x2="509.73" y2="418.59"/><rect class="cls-4" x="153.75" y="445.51" width="48.33" height="28.5" rx="5" ry="5"/><rect class="cls-4" x="236.41" y="445.51" width="48.33" height="28.5" rx="5" ry="5"/><rect class="cls-4" x="319.07" y="445.51" width="48.33" height="28.5" rx="5" ry="5"/><rect class="cls-4" x="399.83" y="445.51" width="48.33" height="28.5" rx="5" ry="5"/><rect class="cls-4" x="480.5" y="445.51" width="48.33" height="28.5" rx="5" ry="5"/><circle class="cls-4" cx="64.99" cy="418.59" r="59.5"/><path class="cls-16" d="M168.8,357.71a12.39,12.39,0,0,1,1.94-.14,3.33,3.33,0,0,1,2.2.62,2,2,0,0,1,.69,1.56,2.14,2.14,0,0,1-.61,1.6,3.35,3.35,0,0,1-2.4.82,3.64,3.64,0,0,1-.81-.07v3h-1Zm1,3.6a3.6,3.6,0,0,0,.84.08c1.22,0,2-.56,2-1.59s-.73-1.46-1.85-1.46a4.41,4.41,0,0,0-1,.08Z"/><path class="cls-16" d="M175.28,362.74l-.81,2.35h-1l2.67-7.47h1.22l2.68,7.47h-1.08l-.84-2.35Zm2.57-.75-.77-2.15c-.17-.49-.29-.93-.41-1.36h0c-.12.44-.24.9-.4,1.35l-.77,2.16Z"/><path class="cls-16" d="M181.14,365.09v-7.47h1.11l2.52,3.78a20.83,20.83,0,0,1,1.41,2.43h0c-.09-1-.12-1.91-.12-3.07v-3.12h1v7.47h-1l-2.49-3.79a23.41,23.41,0,0,1-1.47-2.49h0c.06.94.08,1.84.08,3.08v3.19Z"/><path class="cls-16" d="M17,316.31v3.91h4.75v-3.91H23v9.35H21.75v-4.38H17v4.38H15.73v-9.35Z"/><path class="cls-16" d="M26.82,322.72l-1,2.94H24.49l3.34-9.35h1.53l3.35,9.35H31.35l-1-2.94Zm3.22-.94-1-2.69c-.22-.61-.36-1.17-.51-1.71h0c-.15.55-.31,1.12-.5,1.69l-1,2.7Z"/><path class="cls-16" d="M42.36,321.55c-.07-1.3-.16-2.87-.15-4h0c-.33,1.1-.74,2.26-1.24,3.55L39.2,325.6h-1l-1.59-4.45c-.47-1.32-.86-2.52-1.14-3.63h0c0,1.17-.1,2.73-.19,4.13l-.26,4H33.82l.69-9.35h1.62l1.68,4.52c.41,1.15.74,2.18,1,3.15h0c.25-.94.6-2,1-3.15l1.75-4.52h1.62l.61,9.35H42.61Z"/><path class="cls-16" d="M45.8,316.43a12.85,12.85,0,0,1,2.32-.19,4.21,4.21,0,0,1,2.7.68,1.93,1.93,0,0,1,.82,1.65A2.24,2.24,0,0,1,50,320.62v0a2.42,2.42,0,0,1,1.2,4.22,5.11,5.11,0,0,1-3.4.87,15.74,15.74,0,0,1-2-.11Zm1.27,3.83h1.15c1.34,0,2.13-.67,2.13-1.57,0-1.1-.87-1.53-2.16-1.53a5.67,5.67,0,0,0-1.12.08Zm0,4.48a7.21,7.21,0,0,0,1.06.05c1.31,0,2.52-.46,2.52-1.82s-1.15-1.8-2.54-1.8h-1Z"/><path class="cls-16" d="M55,316.31v5.53c0,2.09,1,3,2.29,3s2.39-.92,2.39-3v-5.53h1.28v5.45c0,2.87-1.59,4-3.72,4s-3.53-1.1-3.53-4v-5.51Z"/><path class="cls-16" d="M63.12,316.43a13.84,13.84,0,0,1,2.43-.19,4.16,4.16,0,0,1,2.84.76,2.28,2.28,0,0,1,.77,1.78,2.47,2.47,0,0,1-1.85,2.39v0a2.35,2.35,0,0,1,1.44,1.89,14.28,14.28,0,0,0,.76,2.57H68.21a11.65,11.65,0,0,1-.66-2.23c-.29-1.29-.82-1.78-2-1.82H64.39v4H63.12Zm1.27,4.26h1.3c1.35,0,2.21-.71,2.21-1.78s-.92-1.73-2.26-1.75a5.47,5.47,0,0,0-1.25.11Z"/><path class="cls-16" d="M78.48,325.24a9.56,9.56,0,0,1-3,.51,5.2,5.2,0,0,1-3.67-1.23A4.68,4.68,0,0,1,70.42,321c0-2.79,2-4.83,5.32-4.83a6.34,6.34,0,0,1,2.45.43l-.31,1a5.31,5.31,0,0,0-2.17-.4c-2.39,0-3.95,1.42-3.95,3.76a3.51,3.51,0,0,0,3.79,3.77,4.32,4.32,0,0,0,1.69-.25v-2.79h-2v-1h3.23Z"/><path class="cls-16" d="M81.68,316.31v5.53c0,2.09,1,3,2.29,3s2.39-.92,2.39-3v-5.53h1.28v5.45c0,2.87-1.59,4-3.72,4s-3.53-1.1-3.53-4v-5.51Z"/><path class="cls-16" d="M94.92,321.27H91.1v3.37h4.25v1H89.83v-9.35h5.3v1h-4v3h3.82Z"/><path class="cls-16" d="M96.83,324.19a4.66,4.66,0,0,0,2.27.61c1.3,0,2.05-.65,2.05-1.59s-.52-1.37-1.85-1.86c-1.6-.54-2.59-1.33-2.59-2.65s1.27-2.54,3.18-2.54a4.64,4.64,0,0,1,2.17.46l-.35,1a4.07,4.07,0,0,0-1.87-.44c-1.34,0-1.85.76-1.85,1.4,0,.87.6,1.3,2,1.8,1.66.61,2.51,1.37,2.51,2.75s-1.12,2.69-3.44,2.69a5.28,5.28,0,0,1-2.51-.6Z"/><path class="cls-16" d="M105.77,322.72l-1,2.94h-1.31l3.34-9.35h1.53l3.35,9.35H110.3l-1-2.94Zm3.22-.94-1-2.69c-.22-.61-.36-1.17-.51-1.71h0c-.15.55-.31,1.12-.5,1.69l-1,2.7Z"/><path class="cls-16" d="M247.21,364.85a5.24,5.24,0,0,1-2.07.35,3.58,3.58,0,0,1-3.88-3.78,3.81,3.81,0,0,1,4.1-3.92,4.39,4.39,0,0,1,1.86.33l-.24.79a3.86,3.86,0,0,0-1.58-.31,2.84,2.84,0,0,0-3.06,3.08,2.78,2.78,0,0,0,3,3,4.23,4.23,0,0,0,1.65-.31Z"/><path class="cls-16" d="M249.79,362.74l-.81,2.35h-1l2.67-7.47h1.22l2.68,7.47h-1.08l-.84-2.35Zm2.57-.75-.77-2.15c-.17-.49-.29-.93-.41-1.36h0c-.12.44-.24.9-.4,1.35L250,362Z"/><path class="cls-16" d="M255.64,357.72a11.09,11.09,0,0,1,1.94-.15,3.32,3.32,0,0,1,2.27.61,1.82,1.82,0,0,1,.62,1.42A2,2,0,0,1,259,361.5v0a1.87,1.87,0,0,1,1.15,1.51,11.4,11.4,0,0,0,.61,2h-1a9.29,9.29,0,0,1-.52-1.78c-.23-1-.65-1.42-1.57-1.45h-1v3.23h-1Zm1,3.4h1c1.08,0,1.77-.57,1.77-1.42s-.73-1.38-1.8-1.4a4.4,4.4,0,0,0-1,.09Z"/><path class="cls-16" d="M261.91,365.09v-7.47H263l2.52,3.78a20.83,20.83,0,0,1,1.41,2.43h0c-.09-1-.12-1.91-.12-3.07v-3.12h1v7.47h-1l-2.49-3.79a23.41,23.41,0,0,1-1.47-2.49h0c.06.94.08,1.84.08,3.08v3.19Z"/><path class="cls-16" d="M273.63,361.59h-3.05v2.69H274v.81h-4.41v-7.47h4.24v.81h-3.22v2.36h3.05Z"/><path class="cls-16" d="M327.46,357.71a12.39,12.39,0,0,1,1.94-.14,3.33,3.33,0,0,1,2.2.62,2,2,0,0,1,.69,1.56,2.14,2.14,0,0,1-.61,1.6,3.35,3.35,0,0,1-2.4.82,3.64,3.64,0,0,1-.81-.07v3h-1Zm1,3.6a3.6,3.6,0,0,0,.84.08c1.22,0,2-.56,2-1.59s-.73-1.46-1.85-1.46a4.4,4.4,0,0,0-1,.08Z"/><path class="cls-16" d="M333.94,362.74l-.81,2.35h-1l2.67-7.47H336l2.68,7.47h-1.08l-.84-2.35Zm2.57-.75-.77-2.15c-.17-.49-.29-.93-.41-1.36h0c-.12.44-.24.9-.4,1.35l-.77,2.16Z"/><path class="cls-16" d="M339.8,357.62h1v6.66h3.35v.81H339.8Z"/><path class="cls-16" d="M345.76,358.44h-2.39v-.82h5.81v.82h-2.4v6.65h-1Z"/><path class="cls-16" d="M350.45,362.74l-.82,2.35h-1l2.67-7.47h1.22l2.68,7.47h-1.08l-.84-2.35ZM353,362l-.77-2.15c-.17-.49-.29-.93-.41-1.36h0c-.12.44-.25.9-.4,1.35l-.77,2.16Z"/><path class="cls-16" d="M405.64,358.84h-2.39V358h5.81v.82h-2.4v6.65h-1Z"/><path class="cls-16" d="M416.33,361.68a3.57,3.57,0,0,1-3.64,3.93,3.49,3.49,0,0,1-3.53-3.79,3.62,3.62,0,0,1,3.64-3.92A3.47,3.47,0,0,1,416.33,361.68Zm-6.09.12c0,1.59.91,3,2.5,3s2.51-1.41,2.51-3.1c0-1.48-.81-3-2.5-3S410.24,360.16,410.24,361.8Z"/><path class="cls-16" d="M424.26,362.21c-.06-1-.13-2.29-.12-3.22h0c-.27.88-.59,1.81-1,2.84l-1.39,3.62H421l-1.27-3.56c-.37-1.05-.69-2-.91-2.9h0c0,.93-.08,2.18-.15,3.3l-.21,3.2h-1L418,358h1.29l1.34,3.61c.33.92.59,1.74.79,2.51h0c.2-.75.48-1.57.83-2.51l1.4-3.61H425l.49,7.47h-1Z"/><path class="cls-16" d="M428.16,363.14l-.82,2.35h-1L429,358h1.22l2.68,7.47h-1.08l-.84-2.35Zm2.57-.75-.77-2.15c-.17-.49-.29-.93-.41-1.36h0c-.12.44-.25.9-.4,1.35l-.77,2.16Z"/><path class="cls-16" d="M434.61,358.84h-2.39V358H438v.82h-2.4v6.65h-1Z"/><path class="cls-16" d="M443,362h-3v2.69h3.4v.81H438.9V358h4.24v.81h-3.22v2.36h3Z"/><path class="cls-16" d="M491.58,366.19c-1.06-.27-2.1-.57-3-.86a1.59,1.59,0,0,0-.48-.11,3.51,3.51,0,0,1-3.46-3.78,3.61,3.61,0,0,1,3.66-3.93,3.87,3.87,0,0,1,1.28,7.36v0c.78.19,1.63.37,2.29.48Zm-.84-4.86c0-1.5-.82-3-2.48-3s-2.55,1.51-2.54,3.12.91,3,2.49,3S490.74,363,490.74,361.32Z"/><path class="cls-16" d="M494.14,357.62V362c0,1.67.78,2.38,1.83,2.38s1.91-.73,1.91-2.38v-4.42h1V362c0,2.29-1.27,3.24-3,3.24s-2.82-.87-2.82-3.19v-4.4Z"/><path class="cls-16" d="M504.72,361.59h-3v2.69h3.4v.81h-4.41v-7.47h4.24v.81h-3.22v2.36h3Z"/><path class="cls-16" d="M506.24,363.92a3.73,3.73,0,0,0,1.82.49c1,0,1.64-.52,1.64-1.27s-.42-1.1-1.48-1.48c-1.28-.43-2.07-1.06-2.07-2.12s1-2,2.54-2a3.71,3.71,0,0,1,1.73.37l-.28.79a3.25,3.25,0,0,0-1.49-.35c-1.07,0-1.48.61-1.48,1.12,0,.7.48,1,1.56,1.44,1.33.49,2,1.1,2,2.19s-.9,2.15-2.75,2.15a4.22,4.22,0,0,1-2-.48Z"/><path class="cls-16" d="M518.83,361.28a3.57,3.57,0,0,1-3.64,3.93,3.49,3.49,0,0,1-3.53-3.79,3.62,3.62,0,0,1,3.64-3.92A3.47,3.47,0,0,1,518.83,361.28Zm-6.09.12c0,1.59.91,3,2.5,3s2.52-1.41,2.52-3.1c0-1.48-.82-3-2.5-3S512.74,359.76,512.74,361.4Z"/><path class="cls-16" d="M168.51,457.44h0l-1.32.68-.2-.74,1.65-.84h.87v7.2h-1Z"/><path class="cls-16" d="M179.77,462.27c0,.55,0,1,0,1.46h-.91l-.06-.87h0a2.14,2.14,0,0,1-1.86,1c-.88,0-1.94-.47-1.94-2.35v-3.13h1v3c0,1,.33,1.71,1.26,1.71a1.48,1.48,0,0,0,1.35-.89,1.35,1.35,0,0,0,.09-.5v-3.29h1Z"/><path class="cls-16" d="M181.47,459.83c0-.55,0-1,0-1.45h.91l.06.89h0a2.09,2.09,0,0,1,1.86-1,2,2,0,0,1,2,2.28v3.2h-1v-3.09c0-.86-.34-1.58-1.3-1.58a1.45,1.45,0,0,0-1.37,1,1.34,1.34,0,0,0-.07.45v3.22h-1Z"/><path class="cls-16" d="M246.61,463.74v-.6l.8-.74c1.93-1.75,2.81-2.68,2.82-3.77a1.32,1.32,0,0,0-1.5-1.41,2.65,2.65,0,0,0-1.61.61l-.33-.69a3.42,3.42,0,0,1,2.14-.73,2.08,2.08,0,0,1,2.32,2.09c0,1.33-1,2.4-2.61,3.87l-.61.53v0h3.4v.81Z"/><path class="cls-16" d="M257.1,457.36h-2.89l-.29,1.85a4.35,4.35,0,0,1,.62,0,3.33,3.33,0,0,1,1.63.39,2,2,0,0,1,1.08,1.85,2.57,2.57,0,0,1-2.82,2.46,3.85,3.85,0,0,1-1.89-.44l.26-.74a3.53,3.53,0,0,0,1.62.4,1.64,1.64,0,0,0,1.79-1.56c0-.93-.66-1.6-2.18-1.6a8.22,8.22,0,0,0-1,.08l.49-3.46h3.62Z"/><path class="cls-16" d="M263.59,460.06c0,2.45-1,3.8-2.63,3.8-1.48,0-2.48-1.32-2.5-3.7s1.09-3.74,2.63-3.74S263.59,457.77,263.59,460.06Zm-4.11.11c0,1.87.6,2.94,1.54,2.94s1.55-1.16,1.55-3-.48-2.94-1.54-2.94C260.13,457.17,259.48,458.21,259.48,460.17Z"/><path class="cls-16" d="M272.18,458.37c0,.39,0,.82,0,1.47V463a3,3,0,0,1-.8,2.45,3.09,3.09,0,0,1-2,.64,3.78,3.78,0,0,1-1.87-.44l.26-.74a3.3,3.3,0,0,0,1.65.42,1.65,1.65,0,0,0,1.82-1.87v-.6h0a2,2,0,0,1-1.79.9,2.44,2.44,0,0,1-2.4-2.61,2.62,2.62,0,0,1,2.54-2.85,1.89,1.89,0,0,1,1.76.93h0l0-.81Zm-1.06,2.12a1.31,1.31,0,0,0-.06-.44,1.46,1.46,0,0,0-1.43-1c-1,0-1.68.79-1.68,2a1.7,1.7,0,0,0,1.67,1.93,1.49,1.49,0,0,0,1.42-1,1.62,1.62,0,0,0,.08-.52Z"/><path class="cls-16" d="M273.76,460c0-.63,0-1.17,0-1.67h.9l0,1.05h0a1.68,1.68,0,0,1,1.56-1.17,1.15,1.15,0,0,1,.29,0v.92a1.66,1.66,0,0,0-.35,0,1.41,1.41,0,0,0-1.37,1.25,2.7,2.7,0,0,0,0,.45v2.86h-1Z"/><path class="cls-16" d="M331.33,457.44h0l-1.32.68-.2-.74,1.65-.84h.87v7.2h-1Z"/><path class="cls-16" d="M340.11,460.06c0,2.45-1,3.8-2.63,3.8-1.48,0-2.48-1.32-2.5-3.7s1.09-3.74,2.63-3.74S340.11,457.77,340.11,460.06Zm-4.11.11c0,1.87.61,2.94,1.54,2.94s1.55-1.16,1.55-3-.48-2.94-1.54-2.94C336.65,457.17,336,458.21,336,460.17Z"/><path class="cls-16" d="M346.08,460.06c0,2.45-1,3.8-2.63,3.8-1.48,0-2.48-1.32-2.5-3.7s1.09-3.74,2.63-3.74S346.08,457.77,346.08,460.06Zm-4.11.11c0,1.87.61,2.94,1.54,2.94s1.55-1.16,1.55-3-.48-2.94-1.54-2.94C342.62,457.17,342,458.21,342,460.17Z"/><path class="cls-16" d="M354.67,458.37c0,.39,0,.82,0,1.47V463a3,3,0,0,1-.8,2.45,3.09,3.09,0,0,1-2,.64,3.78,3.78,0,0,1-1.87-.44l.26-.74a3.3,3.3,0,0,0,1.65.42,1.65,1.65,0,0,0,1.82-1.87v-.6h0a2,2,0,0,1-1.79.9,2.44,2.44,0,0,1-2.4-2.61,2.62,2.62,0,0,1,2.54-2.85,1.89,1.89,0,0,1,1.76.93h0l0-.81Zm-1.06,2.12a1.31,1.31,0,0,0-.06-.44,1.46,1.46,0,0,0-1.43-1c-1,0-1.68.79-1.68,2a1.7,1.7,0,0,0,1.67,1.93,1.49,1.49,0,0,0,1.42-1,1.64,1.64,0,0,0,.08-.52Z"/><path class="cls-16" d="M356.25,460c0-.63,0-1.17,0-1.67h.9l0,1.05h0a1.68,1.68,0,0,1,1.56-1.17,1.14,1.14,0,0,1,.29,0v.92a1.65,1.65,0,0,0-.35,0,1.41,1.41,0,0,0-1.37,1.25,2.6,2.6,0,0,0,0,.45v2.86h-1Z"/><path class="cls-16" d="M411.93,461.91a2.07,2.07,0,0,1,1.5-1.93v0a1.79,1.79,0,0,1-1.2-1.62,2.09,2.09,0,0,1,2.34-1.92c1.47,0,2.2.88,2.2,1.77a1.83,1.83,0,0,1-1.25,1.68v0a2,2,0,0,1,1.53,1.86c0,1.25-1.13,2.09-2.57,2.09S411.93,463,411.93,461.91Zm4.08,0c0-.87-.64-1.3-1.67-1.57a1.59,1.59,0,0,0-1.36,1.48,1.37,1.37,0,0,0,1.51,1.37A1.34,1.34,0,0,0,416,461.86Zm-2.82-3.6c0,.72.57,1.11,1.44,1.33a1.44,1.44,0,0,0,1.15-1.31,1.15,1.15,0,0,0-1.28-1.17A1.18,1.18,0,0,0,413.19,458.26Z"/><path class="cls-16" d="M423,460.06c0,2.45-1,3.8-2.63,3.8-1.48,0-2.48-1.32-2.5-3.7s1.09-3.74,2.63-3.74S423,457.76,423,460.06Zm-4.11.11c0,1.87.61,2.94,1.54,2.94s1.55-1.16,1.55-3-.48-2.94-1.54-2.94C419.57,457.17,418.91,458.21,418.91,460.17Z"/><path class="cls-16" d="M431.61,458.37c0,.39,0,.82,0,1.47V463a3,3,0,0,1-.8,2.45,3.09,3.09,0,0,1-2,.64,3.78,3.78,0,0,1-1.87-.44l.26-.74a3.3,3.3,0,0,0,1.65.42,1.65,1.65,0,0,0,1.82-1.87v-.6h0a2,2,0,0,1-1.79.9,2.44,2.44,0,0,1-2.4-2.61,2.62,2.62,0,0,1,2.54-2.85,1.89,1.89,0,0,1,1.76.93h0l0-.81Zm-1.06,2.12a1.31,1.31,0,0,0-.06-.44,1.46,1.46,0,0,0-1.43-1c-1,0-1.68.79-1.68,2a1.7,1.7,0,0,0,1.67,1.93,1.49,1.49,0,0,0,1.42-1,1.64,1.64,0,0,0,.08-.52Z"/><path class="cls-16" d="M433.2,460c0-.63,0-1.17,0-1.67h.9l0,1.05h0a1.68,1.68,0,0,1,1.56-1.17,1.14,1.14,0,0,1,.29,0v.92a1.65,1.65,0,0,0-.35,0,1.41,1.41,0,0,0-1.37,1.25,2.6,2.6,0,0,0,0,.45v2.86h-1Z"/><path class="cls-16" d="M494.07,463.74v-.6l.8-.74c1.93-1.75,2.81-2.68,2.82-3.77a1.32,1.32,0,0,0-1.5-1.41,2.64,2.64,0,0,0-1.61.61l-.33-.69a3.42,3.42,0,0,1,2.14-.73,2.08,2.08,0,0,1,2.32,2.09c0,1.33-1,2.4-2.61,3.87l-.61.53v0h3.4v.81Z"/><path class="cls-16" d="M505.07,460.06c0,2.45-1,3.8-2.63,3.8-1.48,0-2.48-1.32-2.5-3.7s1.09-3.74,2.63-3.74S505.07,457.77,505.07,460.06Zm-4.11.11c0,1.87.61,2.94,1.54,2.94s1.55-1.16,1.55-3-.48-2.94-1.54-2.94C501.61,457.17,501,458.21,501,460.17Z"/><path class="cls-16" d="M513.66,458.37c0,.39,0,.82,0,1.47V463a3,3,0,0,1-.8,2.45,3.09,3.09,0,0,1-2,.64,3.78,3.78,0,0,1-1.87-.44l.26-.74a3.3,3.3,0,0,0,1.65.42,1.65,1.65,0,0,0,1.82-1.87v-.6h0a2,2,0,0,1-1.79.9,2.44,2.44,0,0,1-2.4-2.61,2.62,2.62,0,0,1,2.54-2.85,1.89,1.89,0,0,1,1.76.93h0l0-.81Zm-1.06,2.12a1.31,1.31,0,0,0-.06-.44,1.47,1.47,0,0,0-1.43-1c-1,0-1.68.79-1.68,2A1.7,1.7,0,0,0,511.1,463a1.49,1.49,0,0,0,1.42-1,1.61,1.61,0,0,0,.08-.52Z"/><path class="cls-16" d="M515.24,460c0-.63,0-1.17,0-1.67h.9l0,1.05h0a1.68,1.68,0,0,1,1.56-1.17,1.15,1.15,0,0,1,.29,0v.92a1.66,1.66,0,0,0-.35,0,1.41,1.41,0,0,0-1.37,1.25,2.7,2.7,0,0,0,0,.45v2.86h-1Z"/><polygon class="cls-18" points="95.05 400.83 95.05 414.94 59.56 414.94 41.87 414.94 31.66 414.94 31.66 400.83 95.05 400.83"/><path class="cls-19" d="M98.8,404.34a3.23,3.23,0,0,1-3.23,3.23H30.63a3.23,3.23,0,0,1-3.23-3.23A21.14,21.14,0,0,1,48.54,383.2H77.67A21.14,21.14,0,0,1,98.8,404.34Z"/><path class="cls-19" d="M44.84,404.34A21.14,21.14,0,0,1,66,383.2H49.54A21.14,21.14,0,0,0,28.4,404.34a3.23,3.23,0,0,0,3.23,3.23H48.07a3.23,3.23,0,0,1-3.23-3.23Z"/><circle class="cls-20" cx="47.34" cy="389.77" r="1.61"/><circle class="cls-20" cx="78.87" cy="389.77" r="1.61"/><circle class="cls-20" cx="57.85" cy="389.77" r="1.61"/><circle class="cls-20" cx="68.36" cy="389.77" r="1.61"/><path class="cls-19" d="M95.82,436.32a3.23,3.23,0,0,1,3.23,3.23v3.94A8.49,8.49,0,0,1,90.57,452H36.14a8.49,8.49,0,0,1-8.49-8.49v-3.94a3.23,3.23,0,0,1,3.23-3.23h.58l31.18-7.25,32.6,7.25h.58Z"/><polygon class="cls-21" points="95.05 426.18 95.05 436.98 87.37 436.98 69.69 436.98 31.66 436.98 31.66 426.18 95.05 426.18"/><path class="cls-22" d="M95.44,414.93a7.12,7.12,0,0,1,0,14.24H31.66a7.12,7.12,0,0,1,0-14.24H95.44Z"/><polygon class="cls-20" points="87.75 414.94 79.15 424.02 70.07 414.94 87.75 414.94"/><polygon class="cls-20" points="60.53 414.94 51.93 424.02 42.84 414.94 60.53 414.94"/><path class="cls-19" d="M200.67,417.56a2.06,2.06,0,0,1-2.06,2.06H157.23a2.06,2.06,0,0,1-2.06-2.06,13.47,13.47,0,0,1,13.47-13.47H187.2a13.47,13.47,0,0,1,13.47,13.47Z"/><circle class="cls-20" cx="167.87" cy="408.27" r="1.03"/><circle class="cls-20" cx="187.97" cy="408.27" r="1.03"/><circle class="cls-20" cx="174.57" cy="408.27" r="1.03"/><circle class="cls-20" cx="181.27" cy="408.27" r="1.03"/><path class="cls-19" d="M198.77,420.21a2.06,2.06,0,0,1,2.06,2.06v2.51a5.41,5.41,0,0,1-5.41,5.41H160.74a5.41,5.41,0,0,1-5.41-5.41v-2.51a2.06,2.06,0,0,1,2.06-2.06h.37l20.16-.79,20.48.79h.37Z"/><path class="cls-23" d="M352.67,411c1.66,4.19-1,14.24-7.28,18.37s-14.14,2.48-16-4.47c-1.16-4.29,1.93-7.43,8.22-11.56S351,406.83,352.67,411"/><path class="cls-23" d="M342.69,424.92c-4.52,3.15-10.6,3.57-12.8.4s.29-8.72,4.81-11.87,15.22-6.79,17.42-3.63-4.91,11.94-9.43,15.09"/><path class="cls-24" d="M342.14,425.3c-4,2.78-9.35,2.15-11.29-.65s.33-7.74,4.32-10.52,14-6.42,16-3.63-3.35,11.21-9,14.8"/><path class="cls-25" d="M341,423.46c-3.12,2.18-6.89,2.17-8.41,0s-.23-5.72,2.9-7.9,11-5,12.5-2.83-3.86,8.57-7,10.75"/><path class="cls-26" d="M336.14,415.53a5.2,5.2,0,0,1,6.79.69c1,1-.61,3.73-3,5.35s-5.39,1.22-5.71.51a5.16,5.16,0,0,1,1.94-6.54"/><path class="cls-27" d="M337.47,416a1.92,1.92,0,1,1-.84,2.84,2.12,2.12,0,0,1,.84-2.84"/><path class="cls-28" d="M414.1,429.1a13.58,13.58,0,0,0,18.1-.49,12.4,12.4,0,0,0,3.39-5.46c1.82-6.18-1-13.74-7.83-15a5.35,5.35,0,0,0-4.82,1.25.45.45,0,0,1-.63,0,5.35,5.35,0,0,0-4.89-1c-6.73,1.62-9.16,9.32-7,15.39A12.4,12.4,0,0,0,414.1,429.1Z"/><path class="cls-29" d="M423.19,430.47a11.61,11.61,0,0,1-7.89-2.77,10.5,10.5,0,0,1-3.14-4.48,11.4,11.4,0,0,1,.58-9,7.8,7.8,0,0,1,5.11-4,5,5,0,0,1,1-.14,3,3,0,0,1,2.36.87l.74.86a.92.92,0,0,0,1.43,0l.69-.9a3,3,0,0,1,2.31-1,5,5,0,0,1,1,.08,7.8,7.8,0,0,1,5.32,3.7,11.4,11.4,0,0,1,1.07,8.95,10.5,10.5,0,0,1-2.9,4.65,11.62,11.62,0,0,1-7.73,3.19Z"/><path class="cls-28" d="M420.59,428.17a1.61,1.61,0,0,1-1-.29c-2.18-1.53-5.85-4.77-6-9.22a5.85,5.85,0,0,1,1.63-4.46,3.85,3.85,0,0,1,4.91-.2,1.62,1.62,0,1,1-1.86,2.65c-.09-.06-.55-.36-.87-.06a2.83,2.83,0,0,0-.58,2c.09,3.15,3.25,5.71,4.6,6.67a1.62,1.62,0,0,1-.89,2.94Z"/><path class="cls-28" d="M425.66,428a1.61,1.61,0,0,0,1-.35c2.09-1.65,5.58-5.08,5.46-9.53a5.85,5.85,0,0,0-1.87-4.36,3.85,3.85,0,0,0-4.92.07,1.62,1.62,0,1,0,2,2.54c.09-.07.53-.39.86-.11a2.83,2.83,0,0,1,.69,1.95c.08,3.15-2.93,5.88-4.23,6.91a1.62,1.62,0,0,0,1,2.89Z"/><path class="cls-28" d="M423,418.6c.81-.33,2.32-.61,2.71.49a2,2,0,0,1,.07.85,4.29,4.29,0,0,1-2.47,3.56l-.3.1h.08l-.31-.09a4.29,4.29,0,0,1-2.66-3.42,2,2,0,0,1,0-.85c.32-1.12,1.84-.92,2.68-.64Z"/><path class="cls-30" d="M417.7,415.45l-.18,0-.16-.1a.46.46,0,0,1-.14-.32.38.38,0,0,1,0-.18.53.53,0,0,1,.09-.16l.07-.06.08,0,.08,0a.47.47,0,0,1,.42.11.53.53,0,0,1,.1.15.46.46,0,0,1-.08.51.68.68,0,0,1-.15.11Z"/><path class="cls-30" d="M415.48,418.75a.46.46,0,0,1-.33-.13.53.53,0,0,1-.1-.15.46.46,0,0,1,0-.17.48.48,0,0,1,.13-.33.48.48,0,0,1,.66,0,.49.49,0,0,1,.14.32.46.46,0,0,1-.13.33.68.68,0,0,1-.15.11Z"/><path class="cls-30" d="M416,422a.46.46,0,0,1-.18,0,.42.42,0,0,1-.26-.24.43.43,0,0,1,0-.35.53.53,0,0,1,.09-.16l.07-.06.08,0,.08,0a.47.47,0,0,1,.42.11.53.53,0,0,1,.1.15.43.43,0,0,1,0,.35.53.53,0,0,1-.09.16.46.46,0,0,1-.32.14Z"/><path class="cls-30" d="M418,424.69a.46.46,0,0,1-.33-.13.48.48,0,0,1-.1-.15.38.38,0,0,1,0-.17.46.46,0,0,1,0-.18.53.53,0,0,1,.09-.16.43.43,0,0,1,.15-.1.47.47,0,0,1,.51.08.53.53,0,0,1,.1.15.43.43,0,0,1,0,.35.48.48,0,0,1-.09.16A.46.46,0,0,1,418,424.69Z"/><path class="cls-30" d="M419.85,426.49l-.18,0-.16-.1a.46.46,0,0,1-.14-.32.48.48,0,0,1,.13-.33.47.47,0,0,1,.5-.11.48.48,0,0,1,.16.09.53.53,0,0,1,.1.15.46.46,0,0,1-.08.51.68.68,0,0,1-.15.11l-.17,0Z"/><path class="cls-30" d="M427.86,415.17l-.18,0-.16-.1a.53.53,0,0,1-.1-.15.43.43,0,0,1,0-.35.42.42,0,0,1,.24-.26.45.45,0,0,1,.61.23.46.46,0,0,1-.08.51.68.68,0,0,1-.15.11l-.17,0Z"/><path class="cls-30" d="M430.26,418.34a.46.46,0,0,1-.33-.13.68.68,0,0,1-.11-.15.46.46,0,0,1,.74-.52.53.53,0,0,1,.1.15.43.43,0,0,1,0,.35.53.53,0,0,1-.09.16A.46.46,0,0,1,430.26,418.34Z"/><path class="cls-30" d="M429.89,421.59a.46.46,0,0,1-.18,0,.48.48,0,0,1-.16-.09.53.53,0,0,1-.1-.15.43.43,0,0,1,0-.35.53.53,0,0,1,.09-.16.48.48,0,0,1,.15-.1.44.44,0,0,1,.27,0l.08,0,.08,0,.07.05a.53.53,0,0,1,.1.15.43.43,0,0,1,0,.35.53.53,0,0,1-.09.16A.46.46,0,0,1,429.89,421.59Z"/><path class="cls-30" d="M428.11,424.41a.46.46,0,0,1-.33-.13.53.53,0,0,1-.1-.15.43.43,0,0,1,0-.35.53.53,0,0,1,.09-.16.46.46,0,0,1,.41-.14l.09,0,.08,0,.07.05a.53.53,0,0,1,.1.15.43.43,0,0,1,0,.35.48.48,0,0,1-.09.16.54.54,0,0,1-.15.1.46.46,0,0,1-.17,0Z"/><path class="cls-30" d="M426.32,426.31a.46.46,0,0,1-.44-.63.53.53,0,0,1,.09-.16.47.47,0,0,1,.41-.14l.09,0,.08,0,.08.05a.53.53,0,0,1,.1.15.46.46,0,0,1-.41.65Z"/><path class="cls-50" d="M518.17,414.85s-1.46-8.44-14.4-8.44l-12.6,10.13"/><path class="cls-51" d="M518.17,414.85l-27,1.69v14.28a.84.84,0,0,0,.9.84l25.31-1.76a.84.84,0,0,0,.78-.84Z"/><circle class="cls-52" cx="512.26" cy="420.76" r="2.53"/><circle class="cls-52" cx="503.83" cy="424.14" r="2.53"/><path class="cls-52" d="M492,421.6a2.5,2.5,0,0,0-.84.16v4.75a2.5,2.5,0,0,0,.84.16,2.53,2.53,0,0,0,0-5.06Z"/><polyline class="cls-48" points="422.89 323.67 504.67 323.67 504.67 351.15"/><path class="cls-53" d="M246.57,426.4a11.75,11.75,0,0,0,6.67,5.64,14.59,14.59,0,0,0,3.31.54c4.6.41,15.62-.57,18.16-11.09a16.3,16.3,0,0,0-.84-9.94c-1.84-4.54-6-10.35-14.52-6.46-4.87,2.22-4.5,6-3.46,8.64a4.41,4.41,0,0,1-4.71,6C247,419.21,244.95,421.73,246.57,426.4Z"/><path class="cls-54" d="M248.76,425.4a9.5,9.5,0,0,0,5.33,4.42,11.85,11.85,0,0,0,2.62.42h.16c.48,0,1,.06,1.53.06,10.63,0,13.36-6.56,14-9.38a13.81,13.81,0,0,0-.72-8.47c-1.71-4.2-4.16-6.33-7.28-6.33a10.52,10.52,0,0,0-4.3,1.07c-1.75.8-3.9,2.29-2.41,6.06a5.94,5.94,0,0,1-.6,5.61,6,6,0,0,1-5.78,2.57,6.33,6.33,0,0,0-.82-.06,2.27,2.27,0,0,0-1.85.67C248.22,422.68,248.25,423.9,248.76,425.4Z"/><path class="cls-55" d="M258.4,430.9c-.55,0-1.09,0-1.58-.07h-.17a12.17,12.17,0,0,1-2.75-.45,10.06,10.06,0,0,1-5.66-4.7l0-.08c-.58-1.71-.58-3.08,0-3.88s1.69-1.06,3.23-.85a5.4,5.4,0,0,0,5.76-7.38c-1.86-4.71,1.58-6.29,2.72-6.8,5.66-2.58,9.83-.68,12.36,5.57a14.39,14.39,0,0,1,.75,8.83C272.29,424,269.44,430.9,258.4,430.9Zm-9.1-5.73a9,9,0,0,0,5,4.09,11.42,11.42,0,0,0,2.49.39h.17c.46,0,1,.06,1.48.06,10.21,0,12.82-6.24,13.47-8.93a13.23,13.23,0,0,0-.7-8.11c-1.61-4-3.88-6-6.74-6a10,10,0,0,0-4.05,1c-1.77.8-3.4,2.06-2.11,5.31a6.57,6.57,0,0,1-7,9c-1-.14-1.87,0-2.12.37S248.8,423.66,249.3,425.17Z"/><g class="cls-56"><circle class="cls-53" cx="264.99" cy="411.14" r="2.34"/><path class="cls-53" d="M265,414.06a2.92,2.92,0,1,1,2.92-2.92A2.93,2.93,0,0,1,265,414.06Zm0-4.68a1.75,1.75,0,1,0,1.75,1.75A1.76,1.76,0,0,0,265,409.38Z"/></g><path class="cls-55" d="M261,430.37l-1.13-.28c.25-1-.62-1.88-2-2.84a7.43,7.43,0,0,1-3.11-5c-.11-.74-.25-1.34-.25-1.34l1.12-.32a4.63,4.63,0,0,0,2.33,2.52,5.43,5.43,0,0,0,4.47-.49c6.77-3.25,10-1.55,10.13-1.47l-.57,1s-2.91-1.45-9.06,1.5a6.51,6.51,0,0,1-5.44.5,4.9,4.9,0,0,1-1.21-.74,6.23,6.23,0,0,0,2.26,2.87C259.55,427,261.49,428.35,261,430.37Z"/><path class="cls-55" d="M261.84,419.79a5.21,5.21,0,0,1-4.46-2.19l1-.59-.5.3.5-.3c.06.1,1.59,2.53,5.69,1.23.9-.46,7-3.51,9.13-1.34l-.84.81c-1.16-1.2-5.39.34-7.79,1.59l-.09,0A8.59,8.59,0,0,1,261.84,419.79Z"/><path class="cls-53" d="M300.76,285.33a19.24,19.24,0,0,0,10.92,9.23,23.9,23.9,0,0,0,5.43.88c7.53.67,25.57-.93,29.74-18.17A26.7,26.7,0,0,0,345.47,261c-3-7.43-9.78-17-23.77-10.58-8,3.63-7.37,9.84-5.66,14.16a7.22,7.22,0,0,1-7.72,9.88C301.44,273.55,298.1,277.68,300.76,285.33Z"/><path class="cls-54" d="M304.34,283.69a15.56,15.56,0,0,0,8.72,7.23,19.41,19.41,0,0,0,4.29.69l.27,0c.78.07,1.63.11,2.51.11,17.4,0,21.88-10.74,23-15.36a22.62,22.62,0,0,0-1.18-13.87c-2.79-6.88-6.81-10.37-11.93-10.37a17.23,17.23,0,0,0-7,1.75c-2.86,1.31-6.39,3.75-4,9.92a9.73,9.73,0,0,1-1,9.18,9.89,9.89,0,0,1-9.47,4.2,10.37,10.37,0,0,0-1.34-.09,3.72,3.72,0,0,0-3,1.09C303.45,279.24,303.51,281.23,304.34,283.69Z"/><path class="cls-55" d="M320.13,292.7c-.91,0-1.78,0-2.59-.11l-.27,0a19.94,19.94,0,0,1-4.51-.73,16.47,16.47,0,0,1-9.27-7.7l-.06-.13c-.94-2.79-1-5,0-6.35s2.77-1.73,5.29-1.39a8.85,8.85,0,0,0,9.44-12.08c-3.05-7.72,2.59-10.29,4.45-11.14,9.27-4.22,16.09-1.11,20.25,9.13A23.56,23.56,0,0,1,344,276.61C342.88,281.45,338.21,292.7,320.13,292.7Zm-14.91-9.38a14.75,14.75,0,0,0,8.14,6.7,18.71,18.71,0,0,0,4.07.64l.27,0c.75.07,1.57.1,2.42.1,16.72,0,21-10.23,22.06-14.62A21.67,21.67,0,0,0,341,262.88c-2.63-6.48-6.35-9.77-11-9.77a16.29,16.29,0,0,0-6.64,1.67c-2.89,1.32-5.56,3.38-3.46,8.7a10.76,10.76,0,0,1-11.47,14.68c-1.72-.23-3.06,0-3.48.61S304.4,280.85,305.22,283.32Z"/><g class="cls-56"><circle class="cls-53" cx="330.92" cy="260.33" r="3.83"/><path class="cls-53" d="M330.92,265.12a4.79,4.79,0,1,1,4.79-4.79A4.79,4.79,0,0,1,330.92,265.12Zm0-7.66a2.87,2.87,0,1,0,2.87,2.87A2.88,2.88,0,0,0,330.92,257.46Z"/></g><path class="cls-55" d="M324.37,291.83l-1.86-.46c.42-1.69-1-3.08-3.3-4.65a12.17,12.17,0,0,1-5.1-8.23c-.18-1.21-.41-2.19-.41-2.2l1.84-.52a7.58,7.58,0,0,0,3.81,4.13c2,.84,4.47.57,7.32-.8,11.08-5.32,16.37-2.53,16.59-2.41l-.93,1.68s-4.76-2.37-14.84,2.46c-3.38,1.62-6.38,1.9-8.91.83a8,8,0,0,1-2-1.21,10.21,10.21,0,0,0,3.7,4.7C322,286.33,325.19,288.52,324.37,291.83Z"/><path class="cls-55" d="M325.76,274.51a8.53,8.53,0,0,1-7.31-3.58l1.65-1-.83.48.82-.49c.1.17,2.6,4.15,9.32,2,1.47-.76,11.52-5.75,15-2.19L343,271.11c-1.89-2-8.84.55-12.76,2.6l-.15.06A14.06,14.06,0,0,1,325.76,274.51Z"/><rect class="cls-4" x="4.99" y="483.08" width="534.19" height="35.33" rx="3.18" ry="3.18"/><path class="cls-57" d="M223.92,496.06a4,4,0,0,0,1.95.52c1.11,0,1.76-.56,1.76-1.37s-.45-1.18-1.59-1.6c-1.37-.46-2.22-1.14-2.22-2.27s1.09-2.18,2.72-2.18a4,4,0,0,1,1.86.39l-.3.85a3.49,3.49,0,0,0-1.6-.38c-1.15,0-1.59.65-1.59,1.2,0,.75.51,1.12,1.67,1.55,1.42.52,2.15,1.18,2.15,2.36s-1,2.31-2.95,2.31a4.53,4.53,0,0,1-2.15-.51Z"/><path class="cls-57" d="M231.83,490.18h-2.56v-.88h6.24v.88h-2.57v7.14h-1.1Z"/><path class="cls-57" d="M243.31,493.23c0,2.76-1.76,4.23-3.91,4.23a3.75,3.75,0,0,1-3.79-4.07,3.89,3.89,0,0,1,3.91-4.21A3.73,3.73,0,0,1,243.31,493.23Zm-6.54.13c0,1.71,1,3.25,2.69,3.25s2.7-1.51,2.7-3.33c0-1.6-.87-3.26-2.69-3.26S236.77,491.6,236.77,493.36Z"/><path class="cls-57" d="M250.61,497.06a5.64,5.64,0,0,1-2.22.38,3.84,3.84,0,0,1-4.16-4.06,4.09,4.09,0,0,1,4.4-4.21,4.72,4.72,0,0,1,2,.36l-.26.85a4.13,4.13,0,0,0-1.7-.33,3.05,3.05,0,0,0-3.29,3.31,3,3,0,0,0,3.24,3.23,4.55,4.55,0,0,0,1.78-.33Z"/><path class="cls-57" d="M252,489.3h1.09v3.87h0c.23-.31.45-.6.66-.86l2.57-3h1.35l-3,3.4,3.29,4.62h-1.29l-2.77-3.94-.8.88v3.06H252Z"/><path class="cls-57" d="M265.76,493.56h-3.27v2.89h3.65v.87H261.4v-8h4.55v.87h-3.46v2.54h3.27Z"/><path class="cls-57" d="M267.55,497.32v-8h1.19l2.7,4.06a22.47,22.47,0,0,1,1.51,2.61h0c-.1-1.07-.12-2-.12-3.3V489.3h1v8h-1.1l-2.67-4.07a25.17,25.17,0,0,1-1.57-2.68h0c.06,1,.09,2,.09,3.31v3.43Z"/><path class="cls-57" d="M278.43,489.41a11,11,0,0,1,2-.17,3.61,3.61,0,0,1,2.31.58,1.65,1.65,0,0,1,.7,1.42A1.92,1.92,0,0,1,282,493v0a2.08,2.08,0,0,1,1,3.62,4.38,4.38,0,0,1-2.91.75,13.28,13.28,0,0,1-1.69-.1Zm1.09,3.28h1c1.15,0,1.82-.57,1.82-1.34,0-.94-.75-1.31-1.85-1.31a4.89,4.89,0,0,0-1,.07Zm0,3.84a6.09,6.09,0,0,0,.91,0c1.13,0,2.16-.39,2.16-1.56s-1-1.55-2.17-1.55h-.9Z"/><path class="cls-57" d="M292.4,493.23c0,2.76-1.76,4.23-3.91,4.23a3.75,3.75,0,0,1-3.79-4.07,3.89,3.89,0,0,1,3.91-4.21A3.73,3.73,0,0,1,292.4,493.23Zm-6.54.13c0,1.71,1,3.25,2.69,3.25s2.7-1.51,2.7-3.33c0-1.6-.87-3.26-2.69-3.26S285.86,491.6,285.86,493.36Z"/><path class="cls-57" d="M293.82,489.41a16.32,16.32,0,0,1,2.31-.17,5,5,0,0,1,3.41,1,3.61,3.61,0,0,1,1.19,2.88,4.13,4.13,0,0,1-1.21,3.12,5.36,5.36,0,0,1-3.72,1.15,18.39,18.39,0,0,1-2-.1Zm1.09,7.09a7.17,7.17,0,0,0,1.1.06c2.32,0,3.59-1.24,3.59-3.4,0-1.89-1.11-3.09-3.41-3.09a6.46,6.46,0,0,0-1.27.11Z"/><path class="cls-57" d="M306.5,493.56h-3.27v2.89h3.65v.87h-4.74v-8h4.55v.87h-3.46v2.54h3.27Z"/><path class="cls-57" d="M314.7,497a8.2,8.2,0,0,1-2.59.44,4.46,4.46,0,0,1-3.15-1.06,4,4,0,0,1-1.17-3c0-2.39,1.74-4.14,4.56-4.14a5.43,5.43,0,0,1,2.1.37l-.26.85a4.56,4.56,0,0,0-1.86-.35,3.08,3.08,0,0,0-3.39,3.23,3,3,0,0,0,3.25,3.24,3.7,3.7,0,0,0,1.45-.21v-2.39h-1.71v-.83h2.77Z"/><path class="cls-57" d="M317.73,494.8l-.87,2.52h-1.12l2.86-8h1.31l2.87,8h-1.16l-.9-2.52Zm2.76-.81-.83-2.31c-.19-.52-.31-1-.44-1.46h0c-.12.48-.26,1-.42,1.45L318,494Z"/><path class="cls-16" d="M9.87,504.64a11.39,11.39,0,0,1,1.89-.15,3.13,3.13,0,0,1,2.14.63,2,2,0,0,1,.67,1.59,2.25,2.25,0,0,1-.59,1.63,3.16,3.16,0,0,1-2.33.84,3.38,3.38,0,0,1-.79-.07v3.05h-1Zm1,3.67a3.3,3.3,0,0,0,.81.08c1.19,0,1.91-.58,1.91-1.63s-.71-1.49-1.8-1.49a4.15,4.15,0,0,0-.93.08Z"/><path class="cls-16" d="M16.17,509.78l-.79,2.4h-1l2.59-7.62h1.19l2.6,7.62H19.68l-.81-2.4Zm2.5-.77-.75-2.19c-.17-.5-.28-1-.4-1.39h0c-.11.45-.24.92-.38,1.38L16.37,509Z"/><path class="cls-16" d="M21.86,512.17v-7.62h1.07l2.44,3.86a21.58,21.58,0,0,1,1.37,2.48h0c-.09-1-.11-1.95-.11-3.13v-3.19h.93v7.62h-1l-2.42-3.87a24.09,24.09,0,0,1-1.42-2.54h0c.06,1,.08,1.88.08,3.14v3.26Z"/><path class="cls-16" d="M29,507.6a.67.67,0,1,1,1.35,0,.67.67,0,1,1-1.35,0Zm0,4a.67.67,0,1,1,1.35,0,.67.67,0,1,1-1.35,0Z"/><path class="cls-16" d="M36.76,512.17v-2H33.35v-.66l3.28-4.69H37.7v4.57h1v.78h-1v2Zm0-2.78v-2.45q0-.58,0-1.15h0c-.23.43-.41.75-.61,1.09l-1.8,2.5v0Z"/><path class="cls-16" d="M39.4,510.31a2.1,2.1,0,0,1,1.46-2v0a1.82,1.82,0,0,1-1.16-1.65,2.06,2.06,0,0,1,2.27-2,1.9,1.9,0,0,1,2.14,1.81,1.87,1.87,0,0,1-1.21,1.72v0a2,2,0,0,1,1.48,1.9,2.26,2.26,0,0,1-2.5,2.14C40.33,512.3,39.4,511.38,39.4,510.31Zm4,0c0-.89-.62-1.32-1.62-1.61a1.6,1.6,0,0,0-1.32,1.52,1.36,1.36,0,0,0,1.47,1.4A1.33,1.33,0,0,0,43.36,510.26Zm-2.74-3.67c0,.74.55,1.13,1.4,1.36a1.45,1.45,0,0,0,1.12-1.33,1.14,1.14,0,0,0-1.24-1.2A1.17,1.17,0,0,0,40.62,506.59Z"/><path class="cls-16" d="M52.59,510.68c0,.57,0,1.06,0,1.49h-.88l-.06-.89h0a2.06,2.06,0,0,1-1.81,1c-.86,0-1.89-.47-1.89-2.4v-3.2h1v3c0,1,.32,1.74,1.22,1.74a1.44,1.44,0,0,0,1.31-.9,1.47,1.47,0,0,0,.09-.51V506.7h1Z"/><path class="cls-16" d="M54.24,508.18c0-.57,0-1,0-1.48h.88l.06.9h0a2,2,0,0,1,1.81-1c.76,0,1.93.45,1.93,2.33v3.27h-1V509c0-.88-.33-1.62-1.27-1.62a1.46,1.46,0,0,0-1.4,1.48v3.29h-1Z"/><path class="cls-16" d="M59.87,513.56a16.3,16.3,0,0,0,.68-2.7l1.11-.11a13.78,13.78,0,0,1-1.07,2.75Z"/><path class="cls-16" d="M70.61,511.92a4.87,4.87,0,0,1-2,.36,3.56,3.56,0,0,1-3.77-3.86,3.79,3.79,0,0,1,4-4,4.09,4.09,0,0,1,1.81.34l-.24.8a3.59,3.59,0,0,0-1.54-.32,2.83,2.83,0,0,0-3,3.14,2.77,2.77,0,0,0,2.93,3.06,3.94,3.94,0,0,0,1.61-.32Z"/><path class="cls-16" d="M73.13,509.78l-.79,2.4h-1l2.59-7.62h1.19l2.6,7.62H76.64l-.81-2.4Zm2.5-.77-.75-2.19c-.17-.5-.28-1-.4-1.39h0c-.11.45-.24.92-.38,1.38L73.33,509Z"/><path class="cls-16" d="M78.82,504.65a10.17,10.17,0,0,1,1.89-.16,3.12,3.12,0,0,1,2.2.62,1.9,1.9,0,0,1,.6,1.45,2,2,0,0,1-1.44,1.95v0a1.9,1.9,0,0,1,1.12,1.54,12.18,12.18,0,0,0,.59,2.09h-1a9.92,9.92,0,0,1-.51-1.82c-.23-1.05-.63-1.45-1.53-1.48H79.8v3.3h-1Zm1,3.47h1c1.05,0,1.72-.58,1.72-1.45s-.71-1.41-1.75-1.42a4,4,0,0,0-1,.09Z"/><path class="cls-16" d="M84.9,512.17v-7.62H86l2.44,3.86a21.58,21.58,0,0,1,1.37,2.48h0c-.09-1-.11-1.95-.11-3.13v-3.19h.93v7.62h-1l-2.42-3.87a24.09,24.09,0,0,1-1.42-2.54h0c.06,1,.08,1.88.08,3.14v3.26Z"/><path class="cls-16" d="M96.29,508.6h-3v2.75h3.3v.83H92.34v-7.62h4.12v.83H93.33v2.41h3Z"/><path class="cls-16" d="M97.64,507.6a.67.67,0,1,1,1.35,0,.67.67,0,1,1-1.35,0Zm0,4a.67.67,0,1,1,1.35,0,.67.67,0,1,1-1.35,0Z"/><path class="cls-16" d="M102.3,512.17v-.61l.78-.76c1.88-1.79,2.72-2.74,2.74-3.84a1.31,1.31,0,0,0-1.46-1.44,2.5,2.5,0,0,0-1.56.62l-.32-.7a3.22,3.22,0,0,1,2.08-.75,2.07,2.07,0,0,1,2.25,2.14c0,1.36-1,2.45-2.53,3.95l-.59.54v0H107v.83Z"/><path class="cls-16" d="M112.29,505.52a3.58,3.58,0,0,0-.75,0,3,3,0,0,0-2.56,2.61h0a2.24,2.24,0,0,1,4,1.53,2.46,2.46,0,0,1-2.44,2.59c-1.57,0-2.6-1.22-2.6-3.13a4.62,4.62,0,0,1,1.24-3.31,4,4,0,0,1,2.35-1.09,4.82,4.82,0,0,1,.72-.06Zm-.28,4.24a1.49,1.49,0,0,0-1.52-1.68,1.64,1.64,0,0,0-1.42.9.85.85,0,0,0-.11.44c0,1.21.58,2.1,1.62,2.1C111.43,511.53,112,510.82,112,509.77Z"/><path class="cls-16" d="M114,511.59a.67.67,0,0,1,.68-.71.71.71,0,1,1-.68.71Z"/><path class="cls-16" d="M116.24,512.17v-.61l.78-.76c1.88-1.79,2.72-2.74,2.74-3.84a1.31,1.31,0,0,0-1.46-1.44,2.5,2.5,0,0,0-1.56.62l-.32-.7a3.22,3.22,0,0,1,2.08-.75,2.07,2.07,0,0,1,2.25,2.14c0,1.36-1,2.45-2.53,3.95l-.59.54v0h3.3v.83Z"/><path class="cls-16" d="M125.74,509.21h0c.14-.19.33-.43.49-.62l1.61-1.89h1.2L126.94,509l2.41,3.22h-1.21l-1.89-2.62-.51.57v2.06h-1v-8h1Z"/><path class="cls-16" d="M134.78,506.7c0,.4,0,.84,0,1.5v3.18a3.14,3.14,0,0,1-.78,2.5,2.9,2.9,0,0,1-2,.66,3.53,3.53,0,0,1-1.82-.45l.25-.76a3.08,3.08,0,0,0,1.61.43c1,0,1.76-.53,1.76-1.91v-.61h0a2,2,0,0,1-1.74.92,2.45,2.45,0,0,1-2.33-2.67,2.63,2.63,0,0,1,2.46-2.91,1.82,1.82,0,0,1,1.71.95h0l0-.83Zm-1,2.16a1.45,1.45,0,0,0-1.45-1.5c-.95,0-1.63.8-1.63,2.07,0,1.07.54,2,1.62,2a1.45,1.45,0,0,0,1.38-1,1.73,1.73,0,0,0,.08-.53Z"/><path class="cls-16" d="M135.57,513.56a16.25,16.25,0,0,0,.68-2.7l1.11-.11a13.78,13.78,0,0,1-1.07,2.75Z"/><path class="cls-16" d="M141,504.64a11.39,11.39,0,0,1,1.89-.15,3.13,3.13,0,0,1,2.14.63,2,2,0,0,1,.67,1.59,2.25,2.25,0,0,1-.59,1.63,3.16,3.16,0,0,1-2.33.84,3.38,3.38,0,0,1-.79-.07v3.05h-1Zm1,3.67a3.3,3.3,0,0,0,.81.08c1.19,0,1.91-.58,1.91-1.63s-.71-1.49-1.8-1.49a4.15,4.15,0,0,0-.93.08Z"/><path class="cls-16" d="M147.29,509.78l-.79,2.4h-1l2.59-7.62h1.19l2.6,7.62H150.8l-.81-2.4Zm2.5-.77-.75-2.19c-.17-.5-.28-1-.4-1.39h0c-.11.45-.24.92-.38,1.38l-.75,2.21Z"/><path class="cls-16" d="M153,504.55h1v6.8h3.26v.83H153Z"/><path class="cls-16" d="M158.77,505.39h-2.32v-.84h5.64v.84h-2.33v6.78h-1Z"/><path class="cls-16" d="M163.32,509.78l-.79,2.4h-1l2.59-7.62h1.19l2.6,7.62h-1.05l-.81-2.4Zm2.5-.77-.75-2.19c-.17-.5-.28-1-.4-1.39h0c-.11.45-.24.92-.38,1.38l-.75,2.21Z"/><path class="cls-16" d="M168.74,507.6a.67.67,0,1,1,1.35,0,.67.67,0,1,1-1.35,0Zm0,4a.67.67,0,1,1,1.35,0,.67.67,0,1,1-1.35,0Z"/><path class="cls-16" d="M175.56,505.75h0l-1.28.69-.19-.76,1.61-.86h.85v7.35h-1Z"/><path class="cls-16" d="M184.09,508.42c0,2.5-.93,3.88-2.56,3.88-1.44,0-2.41-1.34-2.43-3.78s1.06-3.82,2.56-3.82S184.09,506.08,184.09,508.42Zm-4,.11c0,1.91.59,3,1.49,3s1.5-1.19,1.5-3.06-.46-3-1.49-3C180.73,505.47,180.1,506.53,180.1,508.53Z"/><path class="cls-16" d="M188.7,509.21h0c.14-.19.33-.43.49-.62l1.61-1.89H192L189.9,509l2.41,3.22H191.1l-1.89-2.62-.51.57v2.06h-1v-8h1Z"/><path class="cls-16" d="M197.74,506.7c0,.4,0,.84,0,1.5v3.18a3.15,3.15,0,0,1-.78,2.5,2.9,2.9,0,0,1-2,.66,3.54,3.54,0,0,1-1.82-.45l.25-.76a3.08,3.08,0,0,0,1.61.43c1,0,1.76-.53,1.76-1.91v-.61h0a2,2,0,0,1-1.74.92,2.45,2.45,0,0,1-2.33-2.67,2.63,2.63,0,0,1,2.46-2.91,1.82,1.82,0,0,1,1.71.95h0l0-.83Zm-1,2.16a1.45,1.45,0,0,0-1.45-1.5c-.95,0-1.63.8-1.63,2.07,0,1.07.54,2,1.62,2a1.45,1.45,0,0,0,1.38-1,1.73,1.73,0,0,0,.08-.53Z"/><path class="cls-16" d="M198.53,513.56a16.3,16.3,0,0,0,.68-2.7l1.11-.11a13.78,13.78,0,0,1-1.07,2.75Z"/><path class="cls-16" d="M204.93,505.39h-2.32v-.84h5.64v.84h-2.33v6.78h-1Z"/><path class="cls-16" d="M215.32,508.28c0,2.62-1.59,4-3.54,4s-3.43-1.56-3.43-3.87,1.5-4,3.54-4S215.32,506,215.32,508.28Zm-5.91.12c0,1.63.88,3.09,2.43,3.09s2.44-1.44,2.44-3.17c0-1.51-.79-3.1-2.43-3.1S209.4,506.73,209.4,508.41Z"/><path class="cls-16" d="M223,508.83c-.06-1.06-.12-2.34-.11-3.29h0c-.26.89-.58,1.84-1,2.89l-1.35,3.7h-.75l-1.23-3.63c-.36-1.07-.67-2.06-.88-3h0c0,.95-.08,2.23-.15,3.37l-.2,3.27h-.94l.53-7.62h1.26l1.3,3.69c.32.94.58,1.78.77,2.57h0c.19-.77.46-1.61.8-2.57l1.36-3.69h1.25l.48,7.62h-1Z"/><path class="cls-16" d="M226.81,509.78l-.79,2.4h-1l2.59-7.62h1.19l2.6,7.62h-1.05l-.81-2.4Zm2.5-.77-.75-2.19c-.17-.5-.28-1-.4-1.39h0c-.11.45-.24.92-.38,1.38L227,509Z"/><path class="cls-16" d="M233.07,505.39h-2.32v-.84h5.64v.84h-2.33v6.78h-1Z"/><path class="cls-16" d="M241.19,508.6h-3v2.75h3.3v.83h-4.29v-7.62h4.12v.83h-3.13v2.41h3Z"/><path class="cls-16" d="M242.54,507.6a.67.67,0,1,1,1.35,0,.67.67,0,1,1-1.35,0Zm0,4a.67.67,0,1,1,1.35,0,.67.67,0,1,1-1.35,0Z"/><path class="cls-16" d="M249.36,505.75h0l-1.28.69-.19-.76,1.61-.86h.85v7.35h-1Z"/><path class="cls-16" d="M253,512.17v-.61l.78-.76c1.88-1.79,2.72-2.74,2.74-3.84a1.31,1.31,0,0,0-1.46-1.44,2.5,2.5,0,0,0-1.56.62l-.32-.7a3.22,3.22,0,0,1,2.08-.75,2.07,2.07,0,0,1,2.25,2.14c0,1.36-1,2.45-2.53,3.95l-.59.54v0h3.3v.83Z"/><path class="cls-16" d="M262.5,509.21h0c.14-.19.33-.43.49-.62l1.61-1.89h1.2L263.7,509l2.41,3.22H264.9L263,509.55l-.51.57v2.06h-1v-8h1Z"/><path class="cls-16" d="M271.54,506.7c0,.4,0,.84,0,1.5v3.18a3.15,3.15,0,0,1-.78,2.5,2.9,2.9,0,0,1-2,.66,3.54,3.54,0,0,1-1.82-.45l.25-.76a3.08,3.08,0,0,0,1.61.43c1,0,1.76-.53,1.76-1.91v-.61h0a2,2,0,0,1-1.74.92,2.45,2.45,0,0,1-2.33-2.67,2.63,2.63,0,0,1,2.46-2.91,1.82,1.82,0,0,1,1.71.95h0l0-.83Zm-1,2.16a1.45,1.45,0,0,0-1.45-1.5c-.95,0-1.63.8-1.63,2.07,0,1.07.54,2,1.62,2a1.45,1.45,0,0,0,1.38-1,1.73,1.73,0,0,0,.08-.53Z"/><path class="cls-16" d="M272.33,513.56a16.3,16.3,0,0,0,.68-2.7l1.11-.11A13.78,13.78,0,0,1,273,513.5Z"/><path class="cls-16" d="M284,513.29c-1-.27-2-.58-2.92-.88a1.46,1.46,0,0,0-.46-.11c-1.81-.07-3.36-1.4-3.36-3.86s1.49-4,3.55-4,3.41,1.61,3.41,3.86c0,2-.9,3.21-2.17,3.65v0c.76.19,1.58.37,2.23.49Zm-.81-5c0-1.53-.79-3.1-2.41-3.1s-2.48,1.54-2.46,3.19.88,3.08,2.42,3.08S283.22,510.07,283.22,508.33Z"/><path class="cls-16" d="M286.53,504.55v4.51c0,1.71.76,2.43,1.78,2.43s1.85-.75,1.85-2.43v-4.51h1V509c0,2.34-1.23,3.3-2.88,3.3s-2.74-.89-2.74-3.26v-4.49Z"/><path class="cls-16" d="M296.81,508.6h-3v2.75h3.3v.83h-4.29v-7.62H297v.83h-3.13v2.41h3Z"/><path class="cls-16" d="M298.29,511a3.48,3.48,0,0,0,1.76.5c1,0,1.59-.53,1.59-1.3s-.41-1.12-1.44-1.52c-1.24-.44-2-1.08-2-2.16a2.19,2.19,0,0,1,2.46-2.07,3.46,3.46,0,0,1,1.68.37l-.27.8a3,3,0,0,0-1.45-.36c-1,0-1.44.62-1.44,1.14,0,.71.46,1.06,1.51,1.47,1.29.5,1.94,1.12,1.94,2.24s-.87,2.19-2.67,2.19a3.93,3.93,0,0,1-1.94-.49Z"/><path class="cls-16" d="M310.51,508.28c0,2.62-1.59,4-3.54,4s-3.43-1.56-3.43-3.87,1.5-4,3.54-4S310.51,506,310.51,508.28Zm-5.91.12c0,1.63.88,3.09,2.43,3.09s2.44-1.44,2.44-3.17c0-1.51-.79-3.1-2.43-3.1S304.6,506.73,304.6,508.41Z"/><path class="cls-16" d="M311.52,507.6a.67.67,0,1,1,1.35,0,.67.67,0,1,1-1.35,0Zm0,4a.67.67,0,1,1,1.35,0,.67.67,0,1,1-1.35,0Z"/><path class="cls-16" d="M319.26,512.17v-2h-3.42v-.66l3.28-4.69h1.07v4.57h1v.78h-1v2Zm0-2.78v-2.45q0-.58,0-1.15h0c-.23.43-.41.75-.61,1.09l-1.8,2.5v0Z"/><path class="cls-16" d="M322.22,511a3.33,3.33,0,0,0,1.63.46c1.28,0,1.67-.81,1.66-1.42,0-1-.94-1.47-1.9-1.47h-.55v-.75h.55c.72,0,1.64-.37,1.64-1.24,0-.59-.37-1.11-1.29-1.11a2.7,2.7,0,0,0-1.47.49l-.26-.72a3.49,3.49,0,0,1,1.92-.57c1.45,0,2.1.86,2.1,1.75a1.83,1.83,0,0,1-1.36,1.73v0a1.91,1.91,0,0,1,1.64,1.89c0,1.18-.92,2.2-2.68,2.2a3.74,3.74,0,0,1-1.91-.5Z"/><path class="cls-16" d="M331.48,509.21h0c.14-.19.33-.43.49-.62l1.61-1.89h1.2L332.68,509l2.41,3.22h-1.21L332,509.55l-.51.57v2.06h-1v-8h1Z"/><path class="cls-16" d="M340.52,506.7c0,.4,0,.84,0,1.5v3.18a3.15,3.15,0,0,1-.78,2.5,2.9,2.9,0,0,1-2,.66,3.54,3.54,0,0,1-1.82-.45l.25-.76a3.08,3.08,0,0,0,1.61.43c1,0,1.76-.53,1.76-1.91v-.61h0a2,2,0,0,1-1.74.92,2.45,2.45,0,0,1-2.33-2.67,2.63,2.63,0,0,1,2.46-2.91,1.82,1.82,0,0,1,1.71.95h0l0-.83Zm-1,2.16a1.45,1.45,0,0,0-1.45-1.5c-.95,0-1.63.8-1.63,2.07,0,1.07.54,2,1.62,2a1.45,1.45,0,0,0,1.38-1,1.73,1.73,0,0,0,.08-.53Z"/><path class="cls-16" d="M341.31,513.56a16.3,16.3,0,0,0,.68-2.7l1.11-.11A13.78,13.78,0,0,1,342,513.5Z"/><path class="cls-16" d="M352.05,511.92a4.87,4.87,0,0,1-2,.36,3.56,3.56,0,0,1-3.77-3.86,3.79,3.79,0,0,1,4-4,4.09,4.09,0,0,1,1.81.34l-.24.8a3.59,3.59,0,0,0-1.54-.32,2.83,2.83,0,0,0-3,3.14,2.77,2.77,0,0,0,2.93,3.06,3.94,3.94,0,0,0,1.61-.32Z"/><path class="cls-16" d="M354.27,504.55v3.19H358v-3.19h1v7.62h-1V508.6h-3.69v3.57h-1v-7.62Z"/><path class="cls-16" d="M361.65,504.55v4.51c0,1.71.76,2.43,1.78,2.43s1.85-.75,1.85-2.43v-4.51h1V509c0,2.34-1.23,3.3-2.88,3.3s-2.74-.89-2.74-3.26v-4.49Z"/><path class="cls-16" d="M368,504.55h1v6.8h3.26v.83H368Z"/><path class="cls-16" d="M377.27,508.6h-3v2.75h3.3v.83h-4.29v-7.62h4.12v.83H374.3v2.41h3Z"/><path class="cls-16" d="M380.51,505.39h-2.32v-.84h5.64v.84h-2.33v6.78h-1Z"/><path class="cls-16" d="M385.07,509.78l-.79,2.4h-1l2.59-7.62H387l2.6,7.62h-1.05l-.81-2.4Zm2.5-.77-.75-2.19c-.17-.5-.28-1-.4-1.39h0c-.11.45-.24.92-.38,1.38l-.75,2.21Z"/><path class="cls-16" d="M390.49,507.6a.67.67,0,1,1,1.35,0,.67.67,0,1,1-1.35,0Zm0,4a.67.67,0,1,1,1.35,0,.67.67,0,1,1-1.35,0Z"/><path class="cls-16" d="M399.34,505.52a3.58,3.58,0,0,0-.75,0,3,3,0,0,0-2.56,2.61h0a2.24,2.24,0,0,1,4,1.53,2.46,2.46,0,0,1-2.44,2.59c-1.57,0-2.6-1.22-2.6-3.13a4.62,4.62,0,0,1,1.24-3.31,4,4,0,0,1,2.35-1.09,4.82,4.82,0,0,1,.72-.06Zm-.28,4.24a1.49,1.49,0,0,0-1.52-1.68,1.64,1.64,0,0,0-1.42.9.85.85,0,0,0-.11.44c0,1.21.58,2.1,1.62,2.1C398.48,511.53,399.06,510.82,399.06,509.77Z"/><path class="cls-16" d="M401.19,511a3.33,3.33,0,0,0,1.63.46c1.28,0,1.67-.81,1.66-1.42,0-1-.94-1.47-1.9-1.47H402v-.75h.55c.72,0,1.64-.37,1.64-1.24,0-.59-.37-1.11-1.29-1.11a2.7,2.7,0,0,0-1.47.49l-.26-.72a3.49,3.49,0,0,1,1.92-.57c1.45,0,2.1.86,2.1,1.75a1.83,1.83,0,0,1-1.36,1.73v0a1.91,1.91,0,0,1,1.64,1.89c0,1.18-.92,2.2-2.68,2.2a3.74,3.74,0,0,1-1.91-.5Z"/><path class="cls-16" d="M414,510.68c0,.57,0,1.06,0,1.49h-.88l-.06-.89h0a2.06,2.06,0,0,1-1.81,1c-.86,0-1.89-.47-1.89-2.4v-3.2h1v3c0,1,.32,1.74,1.22,1.74a1.44,1.44,0,0,0,1.31-.9,1.47,1.47,0,0,0,.09-.51V506.7h1Z"/><path class="cls-16" d="M415.7,508.18c0-.57,0-1,0-1.48h.88l.06.9h0a2,2,0,0,1,1.81-1c.76,0,1.93.45,1.93,2.33v3.27h-1V509c0-.88-.33-1.62-1.27-1.62a1.46,1.46,0,0,0-1.4,1.48v3.29h-1Z"/><path class="cls-16" d="M421.33,513.56a16.25,16.25,0,0,0,.68-2.7l1.11-.11A13.78,13.78,0,0,1,422,513.5Z"/><path class="cls-16" d="M426.75,504.65a9.49,9.49,0,0,1,1.8-.16,3.15,3.15,0,0,1,2.09.55,1.6,1.6,0,0,1,.63,1.35,1.81,1.81,0,0,1-1.29,1.67v0a2,2,0,0,1,1.57,1.91,2.05,2.05,0,0,1-.64,1.53,3.83,3.83,0,0,1-2.63.71,11.57,11.57,0,0,1-1.53-.09Zm1,3.12h.89c1,0,1.65-.54,1.65-1.28,0-.89-.68-1.24-1.67-1.24a4.19,4.19,0,0,0-.87.07Zm0,3.65a5.24,5.24,0,0,0,.83,0c1,0,2-.37,2-1.48s-.89-1.47-2-1.47h-.81Z"/><path class="cls-16" d="M434.11,509.78l-.79,2.4h-1l2.59-7.62h1.19l2.6,7.62h-1.05l-.81-2.4Zm2.5-.77-.75-2.19c-.17-.5-.28-1-.4-1.39h0c-.11.45-.24.92-.38,1.38l-.75,2.21Z"/><path class="cls-16" d="M439.8,504.65a10.17,10.17,0,0,1,1.89-.16,3.12,3.12,0,0,1,2.2.62,1.9,1.9,0,0,1,.6,1.45,2,2,0,0,1-1.44,1.95v0a1.9,1.9,0,0,1,1.12,1.54,12.18,12.18,0,0,0,.59,2.09h-1a9.92,9.92,0,0,1-.51-1.82c-.23-1.05-.63-1.45-1.53-1.48h-.93v3.3h-1Zm1,3.47h1c1.05,0,1.72-.58,1.72-1.45s-.71-1.41-1.75-1.42a4,4,0,0,0-1,.09Z"/><path class="cls-16" d="M445.89,504.65a10.17,10.17,0,0,1,1.89-.16,3.12,3.12,0,0,1,2.2.62,1.9,1.9,0,0,1,.6,1.45,2,2,0,0,1-1.44,1.95v0a1.9,1.9,0,0,1,1.12,1.54,12.18,12.18,0,0,0,.59,2.09h-1a9.92,9.92,0,0,1-.51-1.82c-.23-1.05-.63-1.45-1.53-1.48h-.93v3.3h-1Zm1,3.47h1c1.05,0,1.72-.58,1.72-1.45s-.71-1.41-1.75-1.42a4,4,0,0,0-1,.09Z"/><path class="cls-16" d="M453,504.55v7.62h-1v-7.62Z"/><path class="cls-16" d="M454.67,504.55h1v6.8h3.26v.83h-4.24Z"/><path class="cls-16" d="M467.74,511.92a4.87,4.87,0,0,1-2,.36,3.56,3.56,0,0,1-3.77-3.86,3.79,3.79,0,0,1,4-4,4.09,4.09,0,0,1,1.81.34l-.24.8a3.59,3.59,0,0,0-1.54-.32,2.83,2.83,0,0,0-3,3.14,2.77,2.77,0,0,0,2.93,3.06,3.94,3.94,0,0,0,1.61-.32Z"/><path class="cls-16" d="M472.92,508.6h-3v2.75h3.3v.83H469v-7.62h4.12v.83H470v2.41h3Z"/><path class="cls-16" d="M474.53,504.65a10.17,10.17,0,0,1,1.89-.16,3.12,3.12,0,0,1,2.2.62,1.9,1.9,0,0,1,.6,1.45,2,2,0,0,1-1.44,1.95v0a1.9,1.9,0,0,1,1.12,1.54,12.18,12.18,0,0,0,.59,2.09h-1a9.92,9.92,0,0,1-.51-1.82c-.23-1.05-.63-1.45-1.53-1.48h-.93v3.3h-1Zm1,3.47h1c1.05,0,1.72-.58,1.72-1.45s-.71-1.41-1.75-1.42a4,4,0,0,0-1,.09Z"/><path class="cls-16" d="M482.47,512.17,480,504.55H481l1.19,3.75c.33,1,.61,2,.81,2.85h0c.21-.88.53-1.84.87-2.84l1.29-3.77h1.05l-2.73,7.62Z"/><path class="cls-16" d="M491.06,508.6h-3v2.75h3.3v.83h-4.29v-7.62h4.12v.83h-3.13v2.41h3Z"/><path class="cls-16" d="M492.16,511.6l4.23-6.19v0h-3.87v-.83h5.14v.6l-4.21,6.16v0h4.26v.83h-5.56Z"/><path class="cls-16" d="M500.16,509.78l-.79,2.4h-1l2.59-7.62h1.19l2.6,7.62h-1.05l-.81-2.4Zm2.5-.77-.75-2.19c-.17-.5-.28-1-.4-1.39h0c-.11.45-.24.92-.38,1.38l-.75,2.21Z"/><path class="cls-16" d="M505.58,507.6a.67.67,0,1,1,1.35,0,.67.67,0,1,1-1.35,0Zm0,4a.67.67,0,1,1,1.35,0,.67.67,0,1,1-1.35,0Z"/><path class="cls-16" d="M514.63,505.66h-2.8l-.28,1.89a3.81,3.81,0,0,1,.6,0,3.11,3.11,0,0,1,1.58.4,2.1,2.1,0,0,1,1.05,1.89A2.55,2.55,0,0,1,512,512.3a3.59,3.59,0,0,1-1.83-.45l.25-.76a3.28,3.28,0,0,0,1.57.41,1.62,1.62,0,0,0,1.74-1.59c0-1-.64-1.63-2.11-1.63a7.57,7.57,0,0,0-1,.08l.48-3.53h3.52Z"/><path class="cls-16" d="M519.12,512.17v-2H515.7v-.66l3.28-4.69h1.07v4.57h1v.78h-1v2Zm0-2.78v-2.45q0-.58,0-1.15h0c-.23.43-.41.75-.61,1.09l-1.8,2.5v0Z"/><path class="cls-16" d="M524.56,504.15h1v8h-1Z"/><path class="cls-16" d="M528.43,505.13v1.57h1.42v.76h-1.42v3c0,.68.19,1.06.75,1.06a2.25,2.25,0,0,0,.58-.07l0,.75a2.44,2.44,0,0,1-.88.14,1.38,1.38,0,0,1-1.07-.42,2,2,0,0,1-.38-1.42v-3h-.85v-.76h.85v-1.31Z"/><path class="cls-16" d="M530.84,511.16a2.61,2.61,0,0,0,1.31.4c.72,0,1.06-.36,1.06-.81s-.28-.74-1-1c-1-.35-1.45-.89-1.45-1.55a1.69,1.69,0,0,1,1.89-1.61,2.73,2.73,0,0,1,1.35.34l-.25.72a2.13,2.13,0,0,0-1.12-.32c-.59,0-.92.34-.92.75s.33.66,1,.93c.95.36,1.44.84,1.44,1.65s-.75,1.64-2,1.64a3.13,3.13,0,0,1-1.54-.37Z"/></g></g></svg>