<svg xmlns="http://www.w3.org/2000/svg" viewBox="0 0 895.56 332.25"><defs><style>.cls-1,.cls-10,.cls-11,.cls-12,.cls-13,.cls-14,.cls-15,.cls-7,.cls-8,.cls-9{fill:none;}.cls-1,.cls-15,.cls-16,.cls-48,.cls-7{stroke:#ededed;}.cls-1,.cls-10,.cls-11,.cls-12,.cls-13,.cls-14,.cls-15,.cls-16,.cls-48,.cls-7,.cls-8,.cls-9{stroke-miterlimit:10;}.cls-1{stroke-width:2.79px;}.cls-2{fill:#209191;}.cls-3{fill:#d61e1a;}.cls-4{fill:#e5ac0e;}.cls-16,.cls-48,.cls-5{fill:#ededed;}.cls-6{fill:#d61c18;}.cls-10,.cls-11,.cls-7,.cls-8,.cls-9{stroke-width:15px;}.cls-8{stroke:#1d1d1b;opacity:0;}.cls-14,.cls-9{stroke:#e5ac0e;}.cls-10,.cls-13{stroke:#d61e1a;}.cls-11,.cls-12{stroke:#209191;}.cls-12,.cls-13,.cls-14,.cls-15{stroke-width:3px;}.cls-16{stroke-width:1.23px;}.cls-17{fill:#1d1d1b;}.cls-18{fill:#fff;}.cls-19{fill:#9cc651;}.cls-20{fill:#df9b2d;}.cls-21{fill:#f4de3e;}.cls-22{fill:#ea5730;}.cls-23{fill:#9a371a;}.cls-24{fill:#40732e;}.cls-25{fill:#a7ce88;}.cls-26{fill:#c7dfb3;}.cls-27{fill:#662114;}.cls-28{fill:#7d3325;}.cls-29{fill:#cf5038;}.cls-30{fill:#ec644c;}.cls-31{fill:#ebca6e;}.cls-32{fill:#daa561;}.cls-33{fill:#f2d383;}.cls-34{fill:#b3874e;}.cls-35{fill:#ea503f;}.cls-36{fill:#c34332;}.cls-37{fill:#d99e83;}.cls-38{fill:#f7bba6;}.cls-39{fill:#de2f45;}.cls-40{fill:#fecc50;}.cls-41{fill:#e0f0f0;}.cls-42{fill:#d51116;}.cls-43{fill:#3f2824;}.cls-44{fill:#e8451e;}.cls-45{fill:#f38f1c;}.cls-46{fill:#3c5fa9;}.cls-47{fill:#aed3b0;}.cls-48{stroke-width:0.86px;}.cls-49{fill:#ffe082;}.cls-50{fill:#fcc010;}.cls-51{fill:#fed068;}.cls-52{fill:#9a4730;}.cls-53{fill:#d85b4b;}.cls-54{fill:#c74a41;}.cls-55{opacity:0.5;}.cls-56{fill:#060707;}</style></defs><title>estadisticas_1</title><g id="Capa_2" data-name="Capa 2"><g id="Capa_1-2" data-name="Capa 1"><line class="cls-1" x1="99.76" y1="136.59" x2="99.76" y2="318.93"/><circle class="cls-2" cx="450.05" cy="35.92" r="35.92"/><circle class="cls-3" cx="450.05" cy="122.83" r="35.92"/><circle class="cls-4" cx="450.05" cy="209.74" r="35.92"/><circle class="cls-5" cx="360.05" cy="271.27" r="35.92"/><circle class="cls-4" cx="610.01" cy="290.9" r="41.35"/><circle class="cls-6" cx="696.96" cy="290.9" r="41.35"/><path class="cls-7" d="M291.88,214.67l-1.75,0a83.5,83.5,0,0,1,0-167"/><path class="cls-8" d="M294.89,214.55q-1.5.08-3,.12"/><path class="cls-9" d="M369,158.75a83.55,83.55,0,0,1-74.08,55.8"/><path class="cls-8" d="M369.89,155.94q-.44,1.41-.93,2.81"/><path class="cls-10" d="M369.46,105.08a84,84,0,0,1,.43,50.87"/><path class="cls-8" d="M368.47,102.25q.52,1.4,1,2.83"/><path class="cls-11" d="M294.9,47.82a83.55,83.55,0,0,1,73.58,54.42"/><path class="cls-8" d="M291.88,47.71q1.52,0,3,.12"/><path class="cls-7" d="M290.13,47.69l1.75,0"/><polyline class="cls-12" points="337.36 62.33 369.89 35.92 414.13 35.92"/><line class="cls-13" x1="375.74" y1="122.83" x2="414.13" y2="122.83"/><polyline class="cls-14" points="353.94 185.04 382.13 209.74 414.13 209.74"/><polyline class="cls-15" points="251.58 205.27 251.58 271.26 324.13 271.26"/><polygon class="cls-2" points="497.51 259.4 497.51 104.19 523.05 87.13 550.13 104.86 550.13 259.4 497.51 259.4"/><polygon class="cls-4" points="583.24 259.4 583.24 134.52 609.63 117.86 636.46 133.85 635.55 258.4 583.24 259.4"/><polygon class="cls-6" points="670.19 259.4 670.19 168.19 696.96 151.85 724.13 168.19 722.5 258.4 670.19 259.4"/><rect class="cls-5" x="564.01" y="36.61" width="147.68" height="49.12" rx="6.8" ry="6.8"/><circle class="cls-16" cx="292.38" cy="131.19" r="60.07"/><circle class="cls-2" cx="523.06" cy="290.9" r="41.35"/><path class="cls-17" d="M600.55,50.09v8h-1.09v-8Z"/><path class="cls-17" d="M602.46,58.12v-8h1.19l2.7,4.06a22.47,22.47,0,0,1,1.51,2.61h0c-.1-1.07-.12-2-.12-3.3V50.09h1v8h-1.1L605,54a25.17,25.17,0,0,1-1.57-2.68h0c.06,1,.09,2,.09,3.31v3.43Z"/><path class="cls-17" d="M617.09,57.76a8.2,8.2,0,0,1-2.59.44,4.46,4.46,0,0,1-3.15-1.06,4,4,0,0,1-1.17-3c0-2.39,1.74-4.14,4.56-4.14a5.43,5.43,0,0,1,2.1.37l-.26.85a4.56,4.56,0,0,0-1.86-.35,3.08,3.08,0,0,0-3.39,3.23,3,3,0,0,0,3.25,3.24,3.7,3.7,0,0,0,1.45-.21V54.74h-1.71V53.9h2.77Z"/><path class="cls-17" d="M618.76,50.2a11.84,11.84,0,0,1,2.09-.17,3.56,3.56,0,0,1,2.44.65,2,2,0,0,1,.66,1.52,2.12,2.12,0,0,1-1.59,2v0a2,2,0,0,1,1.24,1.62,12.29,12.29,0,0,0,.65,2.2h-1.12a10,10,0,0,1-.56-1.92c-.25-1.11-.7-1.52-1.69-1.56h-1v3.48h-1.09Zm1.09,3.65H621c1.16,0,1.9-.61,1.9-1.52s-.79-1.49-1.94-1.5a4.71,4.71,0,0,0-1.07.09Z"/><path class="cls-17" d="M629.84,54.35h-3.27v2.89h3.65v.87h-4.74v-8H630V51h-3.46V53.5h3.27Z"/><path class="cls-17" d="M631.63,50.2a16.32,16.32,0,0,1,2.31-.17,5,5,0,0,1,3.41,1,3.61,3.61,0,0,1,1.19,2.88A4.13,4.13,0,0,1,637.33,57a5.36,5.36,0,0,1-3.72,1.15,18.39,18.39,0,0,1-2-.1Zm1.09,7.09a7.17,7.17,0,0,0,1.1.06c2.32,0,3.59-1.24,3.59-3.4,0-1.89-1.11-3.09-3.41-3.09a6.46,6.46,0,0,0-1.27.11Z"/><path class="cls-17" d="M641,50.09v8H640v-8Z"/><path class="cls-17" d="M647.31,54.35H644v2.89h3.65v.87h-4.74v-8h4.55V51H644V53.5h3.27Z"/><path class="cls-17" d="M649.1,58.12v-8h1.19l2.7,4.06a22.47,22.47,0,0,1,1.51,2.61h0c-.1-1.07-.12-2-.12-3.3V50.09h1v8h-1.1L651.65,54a25.17,25.17,0,0,1-1.57-2.68h0c.06,1,.09,2,.09,3.31v3.43Z"/><path class="cls-17" d="M658.92,51h-2.56v-.88h6.24V51H660v7.14h-1.1Z"/><path class="cls-17" d="M667.9,54.35h-3.27v2.89h3.65v.87h-4.74v-8h4.55V51h-3.46V53.5h3.27Z"/><path class="cls-17" d="M669.54,56.85a4,4,0,0,0,1.95.52c1.11,0,1.76-.56,1.76-1.37s-.45-1.18-1.59-1.6c-1.37-.46-2.22-1.14-2.22-2.27S670.52,50,672.16,50a4,4,0,0,1,1.86.39l-.3.85a3.49,3.49,0,0,0-1.6-.38c-1.15,0-1.59.65-1.59,1.2,0,.75.51,1.12,1.67,1.55,1.42.52,2.15,1.18,2.15,2.36s-1,2.31-2.95,2.31a4.53,4.53,0,0,1-2.15-.51Z"/><path class="cls-17" d="M596,68.87c-.06-1.12-.14-2.46-.12-3.46h0c-.29.94-.64,1.94-1.06,3l-1.49,3.89h-.82l-1.36-3.82c-.4-1.13-.74-2.17-1-3.12h0c0,1-.09,2.34-.16,3.55l-.23,3.44h-1l.59-8h1.39l1.44,3.88c.35,1,.64,1.87.85,2.7h0c.21-.81.51-1.69.89-2.7l1.5-3.88h1.39l.52,8h-1.06Z"/><path class="cls-17" d="M600.15,69.87l-.87,2.52h-1.12l2.86-8h1.31l2.87,8H604l-.9-2.52Zm2.76-.81-.83-2.31c-.19-.52-.31-1-.44-1.46h0c-.12.48-.26,1-.42,1.45l-.82,2.32Zm.6-6.51-1.59,1.39H601l1.16-1.39Z"/><path class="cls-17" d="M606.29,71.13a4,4,0,0,0,1.95.52c1.11,0,1.76-.56,1.76-1.37s-.45-1.18-1.59-1.6c-1.37-.46-2.22-1.14-2.22-2.27s1.09-2.18,2.72-2.18a4,4,0,0,1,1.86.39l-.3.85a3.49,3.49,0,0,0-1.6-.38c-1.15,0-1.59.65-1.59,1.2,0,.75.51,1.12,1.67,1.55,1.42.52,2.15,1.18,2.15,2.36s-1,2.31-2.95,2.31A4.53,4.53,0,0,1,606,72Z"/><path class="cls-17" d="M621.14,72.13a5.64,5.64,0,0,1-2.22.38,3.84,3.84,0,0,1-4.16-4.06,4.09,4.09,0,0,1,4.4-4.21,4.72,4.72,0,0,1,2,.36l-.26.85a4.13,4.13,0,0,0-1.7-.33,3.05,3.05,0,0,0-3.29,3.31,3,3,0,0,0,3.24,3.23,4.55,4.55,0,0,0,1.78-.33Z"/><path class="cls-17" d="M629.44,68.3c0,2.76-1.76,4.23-3.91,4.23a3.75,3.75,0,0,1-3.79-4.07,3.89,3.89,0,0,1,3.91-4.21A3.73,3.73,0,0,1,629.44,68.3Zm-6.54.13c0,1.71,1,3.25,2.69,3.25s2.7-1.51,2.7-3.33c0-1.6-.87-3.26-2.69-3.26S622.91,66.67,622.91,68.43Z"/><path class="cls-17" d="M630.86,72.39v-8H632l2.7,4.06A22.47,22.47,0,0,1,636.26,71h0c-.1-1.07-.12-2-.12-3.3V64.37h1v8h-1.1l-2.67-4.07a25.17,25.17,0,0,1-1.57-2.68h0c.06,1,.09,2,.09,3.31v3.43Z"/><path class="cls-17" d="M638.93,71.13a4,4,0,0,0,1.95.52c1.11,0,1.76-.56,1.76-1.37s-.45-1.18-1.59-1.6c-1.37-.46-2.22-1.14-2.22-2.27s1.09-2.18,2.72-2.18a4,4,0,0,1,1.86.39l-.3.85a3.49,3.49,0,0,0-1.6-.38c-1.15,0-1.59.65-1.59,1.2,0,.75.51,1.12,1.67,1.55,1.42.52,2.15,1.18,2.15,2.36s-1,2.31-2.95,2.31a4.53,4.53,0,0,1-2.15-.51Z"/><path class="cls-17" d="M646.34,64.37v4.75c0,1.8.84,2.56,2,2.56s2-.79,2-2.56V64.37h1.1V69c0,2.46-1.36,3.48-3.19,3.48s-3-.94-3-3.43V64.37Z"/><path class="cls-17" d="M660.43,68.87c-.06-1.12-.14-2.46-.12-3.46h0c-.29.94-.64,1.94-1.06,3l-1.49,3.89h-.82l-1.36-3.82c-.4-1.13-.74-2.17-1-3.12h0c0,1-.09,2.34-.16,3.55l-.23,3.44h-1l.59-8h1.39l1.44,3.88c.35,1,.64,1.87.85,2.7h0c.21-.81.51-1.69.89-2.7l1.5-3.88h1.39l.52,8h-1.06Z"/><path class="cls-17" d="M664.47,64.37v8h-1.09v-8Z"/><path class="cls-17" d="M666.38,64.48a16.32,16.32,0,0,1,2.31-.17,5,5,0,0,1,3.41,1,3.61,3.61,0,0,1,1.19,2.88,4.13,4.13,0,0,1-1.21,3.12,5.36,5.36,0,0,1-3.72,1.15,18.39,18.39,0,0,1-2-.1Zm1.09,7.09a7.17,7.17,0,0,0,1.1.06c2.32,0,3.59-1.24,3.59-3.4,0-1.89-1.11-3.09-3.41-3.09a6.46,6.46,0,0,0-1.27.11Z"/><path class="cls-17" d="M681.9,68.3c0,2.76-1.76,4.23-3.91,4.23a3.75,3.75,0,0,1-3.79-4.07,3.89,3.89,0,0,1,3.91-4.21A3.73,3.73,0,0,1,681.9,68.3Zm-6.54.13c0,1.71,1,3.25,2.69,3.25s2.7-1.51,2.7-3.33c0-1.6-.87-3.26-2.69-3.26S675.36,66.67,675.36,68.43Z"/><path class="cls-17" d="M683.16,71.13a4,4,0,0,0,1.95.52c1.11,0,1.76-.56,1.76-1.37s-.45-1.18-1.59-1.6c-1.37-.46-2.22-1.14-2.22-2.27s1.09-2.18,2.72-2.18a4,4,0,0,1,1.86.39l-.3.85a3.49,3.49,0,0,0-1.6-.38c-1.15,0-1.59.65-1.59,1.2,0,.75.51,1.12,1.67,1.55,1.42.52,2.15,1.18,2.15,2.36s-1,2.31-2.95,2.31a4.53,4.53,0,0,1-2.15-.51Z"/><path class="cls-18" d="M516.86,172.88v.9l-4.59,9.15h-1.48l4.58-8.89v0H510.2v-1.13Z"/><path class="cls-18" d="M525.35,177.8c0,3.42-1.33,5.3-3.67,5.3-2.06,0-3.46-1.84-3.49-5.16s1.53-5.22,3.67-5.22S525.35,174.6,525.35,177.8Zm-5.73.15c0,2.61.84,4.1,2.14,4.1,1.46,0,2.16-1.62,2.16-4.19s-.67-4.1-2.14-4.1C520.53,173.77,519.62,175.22,519.62,178Z"/><path class="cls-18" d="M531.42,175.71c0,2.12-1.17,3.17-2.53,3.17s-2.45-1-2.47-3,1.15-3.14,2.55-3.14S531.42,173.8,531.42,175.71Zm-3.86.09c0,1.28.47,2.26,1.36,2.26s1.36-1,1.36-2.29-.37-2.24-1.36-2.24S527.56,174.54,527.56,175.81Zm1.23,7.3,6.2-10.39h.91l-6.2,10.39Zm9.5-3.23c0,2.12-1.17,3.17-2.52,3.17s-2.45-1-2.47-3,1.15-3.15,2.55-3.15S538.29,178,538.29,179.87Zm-3.86.09c0,1.28.5,2.26,1.38,2.26s1.36-1,1.36-2.29-.37-2.24-1.36-2.24S534.42,178.7,534.42,180Z"/><path class="cls-18" d="M604,196.72h-4l-.41,2.58a5.86,5.86,0,0,1,.86-.06,4.64,4.64,0,0,1,2.27.54,2.84,2.84,0,0,1,1.51,2.58c0,2-1.64,3.43-3.93,3.43a5.37,5.37,0,0,1-2.63-.62l.36-1a4.91,4.91,0,0,0,2.26.56,2.29,2.29,0,0,0,2.5-2.18c0-1.3-.93-2.23-3-2.23a11.46,11.46,0,0,0-1.46.11l.68-4.82h5Z"/><path class="cls-18" d="M613.08,200.49c0,3.42-1.33,5.3-3.67,5.3-2.06,0-3.46-1.84-3.49-5.16s1.53-5.22,3.67-5.22S613.08,197.3,613.08,200.49Zm-5.73.15c0,2.61.84,4.1,2.14,4.1,1.46,0,2.16-1.62,2.16-4.19s-.67-4.1-2.14-4.1C608.26,196.46,607.35,197.91,607.35,200.65Z"/><path class="cls-18" d="M619.16,198.41c0,2.12-1.17,3.17-2.53,3.17s-2.45-1-2.47-3,1.15-3.14,2.55-3.14S619.16,196.49,619.16,198.41Zm-3.86.09c0,1.28.47,2.26,1.36,2.26s1.36-1,1.36-2.29-.37-2.24-1.36-2.24S615.29,197.23,615.29,198.5Zm1.23,7.3,6.2-10.39h.91l-6.2,10.39Zm9.5-3.23c0,2.12-1.17,3.17-2.52,3.17s-2.45-1-2.47-3,1.15-3.15,2.55-3.15S626,200.65,626,202.57Zm-3.86.09c0,1.28.5,2.26,1.38,2.26s1.36-1,1.36-2.29-.37-2.24-1.36-2.24S622.16,201.39,622.16,202.66Z"/><path class="cls-18" d="M685,222.22a5,5,0,0,0,2.34.63c1.83,0,2.4-1.11,2.39-1.95,0-1.41-1.35-2-2.73-2h-.8v-1h.8c1,0,2.35-.51,2.35-1.7,0-.8-.54-1.51-1.85-1.51a4,4,0,0,0-2.11.66l-.37-1a5.2,5.2,0,0,1,2.76-.77c2.08,0,3,1.17,3,2.4a2.52,2.52,0,0,1-1.95,2.36v0a2.66,2.66,0,0,1,2.35,2.58c0,1.61-1.32,3-3.85,3a5.57,5.57,0,0,1-2.74-.68Z"/><path class="cls-18" d="M700,218.65c0,3.42-1.33,5.3-3.67,5.3-2.06,0-3.46-1.84-3.49-5.16s1.53-5.22,3.67-5.22S700,215.45,700,218.65Zm-5.73.15c0,2.61.84,4.1,2.14,4.1,1.46,0,2.16-1.62,2.16-4.19s-.67-4.1-2.14-4.1C695.21,214.62,694.3,216.07,694.3,218.81Z"/><path class="cls-18" d="M706.11,216.57c0,2.12-1.17,3.17-2.53,3.17s-2.45-1-2.47-3,1.15-3.14,2.55-3.14S706.11,214.65,706.11,216.57Zm-3.86.09c0,1.28.47,2.26,1.36,2.26s1.36-1,1.36-2.29-.37-2.24-1.36-2.24S702.24,215.39,702.24,216.66Zm1.23,7.3,6.2-10.39h.91L704.39,224Zm9.5-3.23c0,2.12-1.17,3.17-2.52,3.17s-2.45-1-2.47-3,1.15-3.15,2.55-3.15S713,218.81,713,220.72Zm-3.86.09c0,1.28.5,2.26,1.38,2.26s1.36-1,1.36-2.29-.37-2.24-1.36-2.24S709.11,219.55,709.11,220.82Z"/><path class="cls-17" d="M256.85,120.72a13.5,13.5,0,0,1,2.13-.16,3.66,3.66,0,0,1,2.41.68,2.15,2.15,0,0,1,.75,1.71,2.34,2.34,0,0,1-.66,1.75,3.67,3.67,0,0,1-2.63.9,4,4,0,0,1-.89-.07v3.28h-1.11Zm1.11,3.94a3.92,3.92,0,0,0,.92.08c1.34,0,2.16-.62,2.16-1.75s-.8-1.6-2-1.6a4.91,4.91,0,0,0-1,.08Z"/><path class="cls-17" d="M263.63,120.73a12.12,12.12,0,0,1,2.13-.17,3.64,3.64,0,0,1,2.49.67,2,2,0,0,1,.68,1.55,2.16,2.16,0,0,1-1.62,2.09v0a2.05,2.05,0,0,1,1.26,1.65,12.58,12.58,0,0,0,.66,2.24h-1.15a10.21,10.21,0,0,1-.57-2c-.26-1.13-.71-1.55-1.72-1.59h-1v3.54h-1.11Zm1.11,3.72h1.14c1.19,0,1.94-.62,1.94-1.55s-.8-1.52-2-1.53a4.81,4.81,0,0,0-1.1.1Z"/><path class="cls-17" d="M277.88,124.62c0,2.81-1.8,4.31-4,4.31a3.83,3.83,0,0,1-3.87-4.15,4,4,0,0,1,4-4.29A3.8,3.8,0,0,1,277.88,124.62Zm-6.67.13c0,1.75,1,3.31,2.74,3.31s2.76-1.54,2.76-3.4c0-1.63-.89-3.32-2.74-3.32S271.21,123,271.21,124.76Z"/><path class="cls-17" d="M279.32,120.73a16.69,16.69,0,0,1,2.36-.17,5.09,5.09,0,0,1,3.48,1,3.67,3.67,0,0,1,1.21,2.94,4.21,4.21,0,0,1-1.24,3.18,5.47,5.47,0,0,1-3.8,1.18,18.73,18.73,0,0,1-2-.1Zm1.11,7.23a7.39,7.39,0,0,0,1.12.06c2.37,0,3.66-1.26,3.66-3.47,0-1.93-1.14-3.15-3.48-3.15a6.63,6.63,0,0,0-1.3.11Z"/><path class="cls-17" d="M288.92,120.62v4.84c0,1.83.85,2.61,2,2.61s2.09-.8,2.09-2.61v-4.84h1.12v4.77c0,2.51-1.39,3.54-3.25,3.54s-3.09-1-3.09-3.49v-4.82Z"/><path class="cls-17" d="M302.06,128.53a5.75,5.75,0,0,1-2.27.39,3.92,3.92,0,0,1-4.25-4.14,4.18,4.18,0,0,1,4.49-4.29,4.81,4.81,0,0,1,2,.36l-.27.86a4.22,4.22,0,0,0-1.73-.34,3.11,3.11,0,0,0-3.35,3.37A3,3,0,0,0,300,128a4.63,4.63,0,0,0,1.81-.34Z"/><path class="cls-17" d="M305.44,121.52h-2.62v-.9h6.37v.9h-2.63v7.28h-1.12Z"/><path class="cls-17" d="M317.15,124.62c0,2.81-1.8,4.31-4,4.31a3.83,3.83,0,0,1-3.86-4.15,4,4,0,0,1,4-4.29A3.8,3.8,0,0,1,317.15,124.62Zm-6.67.13c0,1.75,1,3.31,2.74,3.31s2.76-1.54,2.76-3.4c0-1.63-.89-3.32-2.74-3.32S310.48,123,310.48,124.76Z"/><path class="cls-17" d="M318.43,127.51a4.09,4.09,0,0,0,2,.53c1.14,0,1.8-.57,1.8-1.4s-.46-1.2-1.62-1.63c-1.4-.47-2.27-1.16-2.27-2.32s1.11-2.22,2.78-2.22a4.07,4.07,0,0,1,1.9.4l-.31.86a3.56,3.56,0,0,0-1.63-.39c-1.17,0-1.62.67-1.62,1.23,0,.76.52,1.14,1.71,1.58,1.45.53,2.19,1.2,2.19,2.4s-1,2.35-3,2.35a4.63,4.63,0,0,1-2.19-.52Z"/><path class="cls-17" d="M258.69,139.77c-.06-1.14-.14-2.51-.13-3.53h0c-.29,1-.65,2-1.08,3.11l-1.52,4h-.84l-1.39-3.89c-.41-1.15-.75-2.21-1-3.18h0c0,1-.09,2.39-.17,3.61l-.23,3.51h-1.06l.6-8.18h1.42l1.47,4c.36,1,.65,1.9.87,2.75h0c.22-.82.52-1.72.91-2.75l1.53-4h1.42l.54,8.18h-1.08Z"/><path class="cls-17" d="M263,140.79l-.89,2.57h-1.15l2.92-8.18h1.34l2.93,8.18h-1.19l-.92-2.57Zm2.82-.82-.84-2.35c-.19-.53-.32-1-.45-1.49h0c-.13.49-.27,1-.43,1.48l-.84,2.37Zm.61-6.64-1.62,1.42h-.92l1.19-1.42Z"/><path class="cls-17" d="M269.22,142.07a4.09,4.09,0,0,0,2,.53c1.14,0,1.8-.57,1.8-1.4s-.46-1.2-1.62-1.63c-1.4-.47-2.27-1.16-2.27-2.32s1.11-2.22,2.78-2.22a4.07,4.07,0,0,1,1.9.4l-.31.86a3.56,3.56,0,0,0-1.63-.39c-1.17,0-1.62.67-1.62,1.23,0,.76.52,1.14,1.71,1.58,1.45.53,2.19,1.2,2.19,2.4s-1,2.35-3,2.35a4.63,4.63,0,0,1-2.19-.52Z"/><path class="cls-17" d="M279.79,143.36,277,135.18h1.2l1.34,4c.37,1.1.69,2.1.92,3.06h0c.24-.95.6-2,1-3l1.45-4h1.19L281,143.36Z"/><path class="cls-17" d="M289.47,139.52h-3.34v2.95h3.73v.89H285v-8.18h4.64v.89h-3.53v2.58h3.34Z"/><path class="cls-17" d="M291.29,143.36v-8.18h1.21l2.76,4.14A22.8,22.8,0,0,1,296.8,142h0c-.1-1.09-.13-2.09-.13-3.36v-3.42h1v8.18h-1.12l-2.73-4.15a25.6,25.6,0,0,1-1.61-2.73h0c.06,1,.09,2,.09,3.37v3.49Z"/><path class="cls-17" d="M299.68,135.29a16.67,16.67,0,0,1,2.36-.17,5.09,5.09,0,0,1,3.48,1,3.67,3.67,0,0,1,1.21,2.94,4.21,4.21,0,0,1-1.24,3.18,5.47,5.47,0,0,1-3.8,1.18,18.72,18.72,0,0,1-2-.1Zm1.11,7.23a7.39,7.39,0,0,0,1.12.06c2.37,0,3.66-1.26,3.66-3.47,0-1.93-1.14-3.15-3.48-3.15a6.63,6.63,0,0,0-1.3.11Z"/><path class="cls-17" d="M309.28,135.18v8.18h-1.11v-8.18Z"/><path class="cls-17" d="M311.22,135.29a16.67,16.67,0,0,1,2.36-.17,5.09,5.09,0,0,1,3.48,1,3.67,3.67,0,0,1,1.21,2.94,4.21,4.21,0,0,1-1.24,3.18,5.47,5.47,0,0,1-3.8,1.18,18.72,18.72,0,0,1-2-.1Zm1.11,7.23a7.39,7.39,0,0,0,1.12.06c2.37,0,3.66-1.26,3.66-3.47,0-1.93-1.14-3.15-3.48-3.15a6.63,6.63,0,0,0-1.3.11Z"/><path class="cls-17" d="M327.06,139.18c0,2.81-1.8,4.31-4,4.31a3.83,3.83,0,0,1-3.87-4.15,4,4,0,0,1,4-4.29A3.8,3.8,0,0,1,327.06,139.18Zm-6.67.13c0,1.75,1,3.31,2.74,3.31s2.76-1.54,2.76-3.4c0-1.63-.89-3.32-2.74-3.32S320.38,137.52,320.38,139.32Z"/><path class="cls-17" d="M328.34,142.07a4.09,4.09,0,0,0,2,.53c1.14,0,1.8-.57,1.8-1.4s-.46-1.2-1.62-1.63c-1.4-.47-2.27-1.16-2.27-2.32S329.35,135,331,135a4.07,4.07,0,0,1,1.9.4l-.31.86a3.56,3.56,0,0,0-1.63-.39c-1.17,0-1.62.67-1.62,1.23,0,.76.52,1.14,1.71,1.58,1.45.53,2.19,1.2,2.19,2.4s-1,2.35-3,2.35a4.63,4.63,0,0,1-2.19-.52Z"/><polygon class="cls-19" points="380.22 258.53 380.22 267.56 357.49 267.56 346.17 267.56 339.63 267.56 339.63 258.53 380.22 258.53"/><path class="cls-20" d="M382.63,260.78a2.07,2.07,0,0,1-2.07,2.07H339a2.07,2.07,0,0,1-2.07-2.07,13.54,13.54,0,0,1,13.53-13.54h18.65a13.54,13.54,0,0,1,13.54,13.54Z"/><path class="cls-20" d="M348.07,260.78a13.54,13.54,0,0,1,13.53-13.54H351.08a13.54,13.54,0,0,0-13.53,13.54,2.07,2.07,0,0,0,2.07,2.07h10.53a2.07,2.07,0,0,1-2.07-2.07Z"/><circle class="cls-21" cx="349.67" cy="251.45" r="1.03"/><circle class="cls-21" cx="369.86" cy="251.45" r="1.03"/><circle class="cls-21" cx="356.4" cy="251.45" r="1.03"/><circle class="cls-21" cx="363.13" cy="251.45" r="1.03"/><path class="cls-20" d="M380.72,281.26a2.07,2.07,0,0,1,2.07,2.07v2.52a5.44,5.44,0,0,1-5.44,5.43H342.5a5.43,5.43,0,0,1-5.43-5.43v-2.52a2.07,2.07,0,0,1,2.07-2.07h.37l20-4.64,20.88,4.64h.37Z"/><polygon class="cls-22" points="380.22 274.76 380.22 281.68 375.3 281.68 363.98 281.68 339.63 281.68 339.63 274.76 380.22 274.76"/><path class="cls-23" d="M380.47,267.56a4.56,4.56,0,1,1,0,9.12H339.63a4.56,4.56,0,0,1,0-9.12h40.84Z"/><polygon class="cls-21" points="375.55 267.56 370.04 273.38 364.23 267.56 375.55 267.56"/><polygon class="cls-21" points="358.11 267.56 352.61 273.38 346.79 267.56 358.11 267.56"/><path class="cls-24" d="M717.38,274.78c2.93,7.4-1.76,25.16-12.86,32.46s-25,4.38-28.29-7.89c-2-7.58,3.42-13.13,14.52-20.43s23.74-11.44,26.63-4.14"/><path class="cls-24" d="M699.75,299.43c-8,5.57-18.72,6.31-22.62.71s.51-15.41,8.5-21,26.89-12,30.78-6.4-8.68,21.1-16.67,26.67"/><path class="cls-25" d="M698.78,300.1c-7.05,4.92-16.51,3.79-20-1.14s.58-13.68,7.63-18.59S711.27,269,714.71,274s-5.91,19.81-15.93,26.15"/><path class="cls-26" d="M696.76,296.86c-5.52,3.85-12.17,3.83-14.86,0s-.4-10.11,5.11-14,19.39-8.87,22.09-5-6.82,15.15-12.34,19"/><path class="cls-27" d="M688.18,282.85a9.19,9.19,0,0,1,12,1.22c1.75,1.81-1.08,6.59-5.34,9.45s-9.52,2.16-10.09.9a9.12,9.12,0,0,1,3.43-11.56"/><path class="cls-28" d="M690.52,283.6c1.85-1.24,4.18-1,5.21.53s.36,3.78-1.49,5-4.18,1-5.21-.53-.36-3.78,1.49-5"/><path class="cls-29" d="M595.24,308.58a23.8,23.8,0,0,0,31.73-.86,21.73,21.73,0,0,0,5.94-9.57c3.2-10.83-1.79-24.08-13.73-26.27-3-.55-6.31,0-8.46,2.2a.79.79,0,0,1-1.1,0c-2.27-2.09-5.61-2.44-8.56-1.74-11.8,2.83-16.06,16.33-12.28,27A21.72,21.72,0,0,0,595.24,308.58Z"/><path class="cls-30" d="M611.18,311a20.36,20.36,0,0,1-13.83-4.85,18.4,18.4,0,0,1-5.51-7.86,20,20,0,0,1,1-15.76,13.67,13.67,0,0,1,9-7,8.72,8.72,0,0,1,1.79-.24,5.26,5.26,0,0,1,4.13,1.53l1.3,1.5a1.62,1.62,0,0,0,2.51-.07l1.21-1.57a5.26,5.26,0,0,1,4-1.75,8.72,8.72,0,0,1,1.8.14,13.67,13.67,0,0,1,9.33,6.49,20,20,0,0,1,1.88,15.68,18.41,18.41,0,0,1-5.07,8.15,20.36,20.36,0,0,1-13.55,5.6Z"/><path class="cls-29" d="M606.62,306.94a2.82,2.82,0,0,1-1.71-.52c-3.82-2.69-10.25-8.37-10.46-16.16a10.25,10.25,0,0,1,2.86-7.81,6.75,6.75,0,0,1,8.61-.35,2.83,2.83,0,0,1-3.26,4.64c-.16-.11-1-.63-1.52-.11a5,5,0,0,0-1,3.48c.15,5.53,5.69,10,8.06,11.69a2.83,2.83,0,0,1-1.56,5.15Z"/><path class="cls-29" d="M615.5,306.7a2.82,2.82,0,0,0,1.68-.61c3.66-2.89,9.78-8.91,9.57-16.71a10.25,10.25,0,0,0-3.28-7.64,6.75,6.75,0,0,0-8.62.12,2.83,2.83,0,0,0,3.51,4.46c.15-.12.92-.68,1.51-.2a5,5,0,0,1,1.21,3.42c.15,5.53-5.14,10.31-7.42,12.11a2.83,2.83,0,0,0,1.84,5.06Z"/><path class="cls-29" d="M610.85,290.17c1.43-.58,4.07-1.08,4.74.86a3.56,3.56,0,0,1,.12,1.49,7.52,7.52,0,0,1-4.33,6.25,5.51,5.51,0,0,1-.53.18H611l-.54-.15a7.52,7.52,0,0,1-4.67-6,3.56,3.56,0,0,1,0-1.5c.57-2,3.23-1.62,4.69-1.12Z"/><path class="cls-31" d="M601.55,284.64a1,1,0,0,1-.31,0,1.17,1.17,0,0,1-.27-.17.8.8,0,0,1-.25-.57.67.67,0,0,1,.06-.31.93.93,0,0,1,.16-.27l.12-.1.14-.08.14-.05a.82.82,0,0,1,.74.2.93.93,0,0,1,.18.26.8.8,0,0,1-.15.89,1.19,1.19,0,0,1-.26.19A1,1,0,0,1,601.55,284.64Z"/><path class="cls-31" d="M597.66,290.42a.8.8,0,0,1-.58-.22.93.93,0,0,1-.18-.26.81.81,0,0,1-.07-.31.85.85,0,0,1,.22-.58.84.84,0,0,1,1.15,0,.85.85,0,0,1,.25.57.8.8,0,0,1-.22.58,1.19,1.19,0,0,1-.26.19A1,1,0,0,1,597.66,290.42Z"/><path class="cls-31" d="M598.62,296.07a.81.81,0,0,1-.31-.06.73.73,0,0,1-.45-.43.76.76,0,0,1,0-.62.93.93,0,0,1,.16-.27l.12-.1.14-.08.14-.05a.83.83,0,0,1,.74.2.93.93,0,0,1,.18.26.76.76,0,0,1,0,.62.93.93,0,0,1-.16.27.8.8,0,0,1-.57.25Z"/><path class="cls-31" d="M602,300.84a.8.8,0,0,1-.58-.22.83.83,0,0,1-.18-.26.67.67,0,0,1-.07-.31.81.81,0,0,1,.06-.31.93.93,0,0,1,.16-.27.75.75,0,0,1,.26-.18.83.83,0,0,1,.89.15.93.93,0,0,1,.18.26.76.76,0,0,1,0,.62.83.83,0,0,1-.16.27A.8.8,0,0,1,602,300.84Z"/><path class="cls-31" d="M605.32,304a1,1,0,0,1-.31,0,1.17,1.17,0,0,1-.27-.17.8.8,0,0,1-.25-.57.85.85,0,0,1,.22-.58.83.83,0,0,1,.88-.19.84.84,0,0,1,.27.16.93.93,0,0,1,.18.26.8.8,0,0,1-.15.89,1.19,1.19,0,0,1-.26.19,1,1,0,0,1-.31.07Z"/><path class="cls-31" d="M619.36,284.16a1,1,0,0,1-.31,0,1.17,1.17,0,0,1-.27-.17.93.93,0,0,1-.18-.26.76.76,0,0,1,0-.62.73.73,0,0,1,.43-.45.78.78,0,0,1,1.06.41.8.8,0,0,1-.15.89,1.19,1.19,0,0,1-.26.19,1,1,0,0,1-.31.07Z"/><path class="cls-31" d="M623.56,289.72a.8.8,0,0,1-.58-.22,1.19,1.19,0,0,1-.19-.26.81.81,0,0,1,1.3-.92.93.93,0,0,1,.18.26.76.76,0,0,1,0,.62.93.93,0,0,1-.16.27A.8.8,0,0,1,623.56,289.72Z"/><path class="cls-31" d="M622.91,295.41a.81.81,0,0,1-.31-.06.83.83,0,0,1-.27-.16.93.93,0,0,1-.18-.26.76.76,0,0,1,0-.62.93.93,0,0,1,.16-.27.83.83,0,0,1,.26-.18.77.77,0,0,1,.47-.06l.15,0,.15.07.12.09a.93.93,0,0,1,.18.26.76.76,0,0,1,0,.62.93.93,0,0,1-.16.27A.8.8,0,0,1,622.91,295.41Z"/><path class="cls-31" d="M619.8,300.35a.8.8,0,0,1-.58-.22.93.93,0,0,1-.18-.26.76.76,0,0,1,0-.62.93.93,0,0,1,.16-.27.8.8,0,0,1,.72-.24l.16,0,.15.07.12.09a.93.93,0,0,1,.18.26.76.76,0,0,1,0,.62.83.83,0,0,1-.16.27.94.94,0,0,1-.26.18.81.81,0,0,1-.31.07Z"/><path class="cls-31" d="M616.65,303.68a.8.8,0,0,1-.78-1.1.93.93,0,0,1,.16-.27.83.83,0,0,1,.72-.24l.16,0a.44.44,0,0,1,.14.07l.13.09a.93.93,0,0,1,.18.26.8.8,0,0,1-.71,1.14Z"/><path class="cls-32" d="M450,13.61a47.33,47.33,0,0,0-24.46,6.77L450,61.17l24.46-40.79A47.33,47.33,0,0,0,450,13.61Z"/><path class="cls-33" d="M450,20.49a40.49,40.49,0,0,0-20.93,5.79l13.49,22.49s0,0,0,.05V62.3a1.85,1.85,0,0,0,3.7,0V54.94L450,61.17l8.46-14.11v5.65a1.85,1.85,0,0,0,3.7,0V40.89l1.7-2.83v5.26a1.85,1.85,0,0,0,3.7,0V31.89L471,26.28A40.49,40.49,0,0,0,450,20.49Z"/><path class="cls-34" d="M450,20.49a40.49,40.49,0,0,0-20.93,5.79l1,1.7A38.72,38.72,0,0,1,470,28l1-1.7A40.49,40.49,0,0,0,450,20.49Z"/><path class="cls-35" d="M456,40.18a6.88,6.88,0,0,0-1.55,13.59l6.74-11.23A6.87,6.87,0,0,0,456,40.18Z"/><path class="cls-35" d="M439.95,30.51a6.88,6.88,0,0,0-6.09,3.67l6.06,10.1h0a6.89,6.89,0,1,0,0-13.77Z"/><circle class="cls-35" cx="456.53" cy="30.84" r="6.89"/><path class="cls-35" d="M446,20.69a40.41,40.41,0,0,0-13.21,3.62A6.88,6.88,0,0,0,446,20.69Z"/><path class="cls-36" d="M446,20.69a40.41,40.41,0,0,0-13.21,3.62,6.88,6.88,0,0,0,1,1.73,38.44,38.44,0,0,1,12.26-3.36,6.79,6.79,0,0,0,0-2Z"/><circle class="cls-34" cx="429.13" cy="20.57" r="0.66"/><circle class="cls-34" cx="434.52" cy="21.89" r="0.66"/><circle class="cls-34" cx="440.35" cy="17.38" r="0.66"/><circle class="cls-34" cx="447.9" cy="18.71" r="0.66"/><circle class="cls-34" cx="455.85" cy="16.06" r="0.66"/><circle class="cls-34" cx="459.7" cy="19.91" r="0.66"/><circle class="cls-34" cx="471.64" cy="21.15" r="0.66"/><circle class="cls-34" cx="466.09" cy="19.83" r="0.66"/><path class="cls-37" d="M469.43,142.08a13.14,13.14,0,0,1-18.58,0l-20.65-20.65a13.14,13.14,0,1,1,18.58-18.58l20.65,20.65a13.14,13.14,0,0,1,0,18.58"/><path class="cls-38" d="M466.39,126.65c5.13,5.13,6.73,11.85,3.61,15s-9.84,1.52-15-3.61l-20.65-20.65c-5.13-5.13-6.73-11.85-3.61-15s9.84-1.52,15,3.61Z"/><path class="cls-39" d="M472,138.44c2.07,2.07,2.35,5.12.64,6.84s-4.77,1.42-6.84-.64L427.55,106.4c-2.07-2.06-2.35-5.13-.64-6.84s4.77-1.42,6.84.64Z"/><path class="cls-40" d="M470.47,142.64a1.58,1.58,0,0,1-1.12-.47,6,6,0,0,0-3.53-1.81,9.64,9.64,0,0,1-7.74-7.74,6.48,6.48,0,0,0-5.34-5.34,9.63,9.63,0,0,1-7.74-7.74,6.46,6.46,0,0,0-5.33-5.33,9.62,9.62,0,0,1-7.73-7.73,6,6,0,0,0-1.81-3.53,1.59,1.59,0,0,1,2.25-2.25,9.16,9.16,0,0,1,2.66,5.07,6.47,6.47,0,0,0,5.33,5.33,9.62,9.62,0,0,1,7.73,7.73,6.47,6.47,0,0,0,5.34,5.34,9.64,9.64,0,0,1,7.74,7.74,6.49,6.49,0,0,0,5.35,5.34,9.18,9.18,0,0,1,5.08,2.67,1.59,1.59,0,0,1-1.12,2.71Z"/><path class="cls-41" d="M439.44,192.5v-5.72h-5.72v5.72c0,3.5-6.92,3.69-6.92,12.09V227a5.72,5.72,0,0,0,5.72,5.72h8.15a5.72,5.72,0,0,0,5.72-5.72h0V204.59C446.36,196.19,439.44,196,439.44,192.5Z"/><rect class="cls-42" x="432.65" y="186.78" width="7.86" height="3.57"/><path class="cls-43" d="M432.52,232.69h8.15a5.72,5.72,0,0,0,5.72-5.72h0V204.59H426.8V227A5.72,5.72,0,0,0,432.52,232.69Z"/><path class="cls-41" d="M465.81,192.5v-5.72H460.1v5.72c0,3.5-6.92,3.69-6.92,12.09V227a5.72,5.72,0,0,0,5.72,5.72H467a5.72,5.72,0,0,0,5.7-5.72V204.59C472.74,196.19,465.81,196,465.81,192.5Z"/><rect class="cls-44" x="459.02" y="186.78" width="7.86" height="3.57"/><path class="cls-45" d="M458.89,232.69H467a5.72,5.72,0,0,0,5.7-5.72V204.59H453.17V227A5.72,5.72,0,0,0,458.89,232.69Z"/><path class="cls-41" d="M452.62,194.5v-5.72h-5.7v5.72c0,3.5-6.92,3.69-6.92,12.09V229a5.72,5.72,0,0,0,5.72,5.72h8.15a5.72,5.72,0,0,0,5.72-5.72h0V206.59C459.56,198.19,452.62,198,452.62,194.5Z"/><rect class="cls-46" x="445.84" y="188.78" width="7.86" height="3.57"/><path class="cls-47" d="M445.69,234.69h8.15a5.72,5.72,0,0,0,5.72-5.72h0V206.59H440V229A5.72,5.72,0,0,0,445.69,234.69Z"/><rect class="cls-5" x="39.76" y="7.05" width="118.5" height="40.58" rx="5.41" ry="5.41"/><line class="cls-15" x1="99.76" y1="65.59" x2="99.76" y2="46.09"/><circle class="cls-5" cx="99.76" cy="99.09" r="42.48"/><rect class="cls-48" x="1.21" y="157.19" width="66.77" height="20.11" rx="4.29" ry="4.29"/><path class="cls-17" d="M26.11,163.75a10.56,10.56,0,0,1,1.79-.14,2.91,2.91,0,0,1,2,.62,2,2,0,0,1,.63,1.56,2.24,2.24,0,0,1-.56,1.6,2.94,2.94,0,0,1-2.21.82,3.1,3.1,0,0,1-.75-.07v3h-.93Zm.93,3.6a3.07,3.07,0,0,0,.77.08c1.13,0,1.82-.56,1.82-1.59s-.68-1.46-1.71-1.46a3.76,3.76,0,0,0-.88.08Z"/><path class="cls-17" d="M32.09,168.78l-.75,2.35h-1l2.46-7.47H34l2.47,7.47h-1l-.77-2.35Zm2.37-.75-.71-2.15c-.16-.49-.27-.93-.38-1.36h0c-.11.44-.23.9-.37,1.35L32.28,168Z"/><path class="cls-17" d="M37.49,171.13v-7.47h1l2.32,3.78a21.32,21.32,0,0,1,1.3,2.43h0c-.09-1-.11-1.91-.11-3.07v-3.12h.88v7.47H42l-2.3-3.79a23.93,23.93,0,0,1-1.35-2.49h0c.05.94.08,1.84.08,3.08v3.19Z"/><path class="cls-17" d="M51.77,22.81v3.91h4.75V22.81H57.8v9.35H56.52V27.77H51.77v4.38H50.5V22.81Z"/><path class="cls-17" d="M61.59,29.22l-1,2.94H59.25l3.34-9.35h1.53l3.35,9.35H66.12l-1-2.94Zm3.22-.94-1-2.69c-.22-.61-.36-1.17-.51-1.71h0c-.15.55-.31,1.12-.5,1.69l-1,2.7Z"/><path class="cls-17" d="M77.13,28.05c-.07-1.3-.16-2.87-.15-4h0c-.33,1.1-.74,2.26-1.24,3.55L74,32.1H73l-1.59-4.45c-.47-1.32-.86-2.52-1.14-3.63h0c0,1.17-.1,2.73-.19,4.13l-.26,4H68.59l.69-9.35h1.62l1.68,4.52c.41,1.15.74,2.18,1,3.15h0c.25-.94.6-2,1-3.15l1.75-4.52H78l.61,9.35H77.38Z"/><path class="cls-17" d="M80.57,22.93a12.85,12.85,0,0,1,2.32-.19,4.21,4.21,0,0,1,2.7.68,1.93,1.93,0,0,1,.82,1.65,2.24,2.24,0,0,1-1.66,2.05v0a2.42,2.42,0,0,1,1.2,4.22,5.11,5.11,0,0,1-3.4.87,15.74,15.74,0,0,1-2-.11Zm1.27,3.83H83c1.34,0,2.13-.67,2.13-1.57,0-1.1-.87-1.53-2.16-1.53a5.67,5.67,0,0,0-1.12.08Zm0,4.48a7.21,7.21,0,0,0,1.06.05c1.31,0,2.52-.46,2.52-1.82s-1.15-1.8-2.54-1.8h-1Z"/><path class="cls-17" d="M89.73,22.81v5.53c0,2.09,1,3,2.29,3s2.39-.92,2.39-3V22.81h1.28v5.45c0,2.87-1.59,4-3.72,4s-3.53-1.1-3.53-4V22.81Z"/><path class="cls-17" d="M97.89,22.93a13.84,13.84,0,0,1,2.43-.19,4.16,4.16,0,0,1,2.84.76,2.28,2.28,0,0,1,.77,1.78,2.47,2.47,0,0,1-1.85,2.39v0a2.35,2.35,0,0,1,1.44,1.89,14.28,14.28,0,0,0,.76,2.57H103a11.65,11.65,0,0,1-.66-2.23c-.29-1.29-.82-1.78-2-1.82H99.15v4H97.89Zm1.27,4.26h1.3c1.35,0,2.21-.71,2.21-1.78s-.92-1.73-2.26-1.75a5.47,5.47,0,0,0-1.25.11Z"/><path class="cls-17" d="M113.24,31.74a9.56,9.56,0,0,1-3,.51A5.2,5.2,0,0,1,106.55,31a4.68,4.68,0,0,1-1.37-3.48c0-2.79,2-4.83,5.32-4.83a6.34,6.34,0,0,1,2.45.43l-.31,1a5.31,5.31,0,0,0-2.17-.4c-2.39,0-3.95,1.42-3.95,3.76a3.51,3.51,0,0,0,3.79,3.77A4.32,4.32,0,0,0,112,31V28.22h-2v-1h3.23Z"/><path class="cls-17" d="M116.44,22.81v5.53c0,2.09,1,3,2.29,3s2.39-.92,2.39-3V22.81h1.28v5.45c0,2.87-1.59,4-3.72,4s-3.53-1.1-3.53-4V22.81Z"/><path class="cls-17" d="M129.69,27.77h-3.82v3.37h4.25v1H124.6V22.81h5.3v1h-4v3h3.82Z"/><path class="cls-17" d="M131.59,30.69a4.66,4.66,0,0,0,2.27.61c1.3,0,2.05-.65,2.05-1.59s-.52-1.37-1.85-1.86c-1.6-.54-2.59-1.33-2.59-2.65s1.27-2.54,3.18-2.54a4.64,4.64,0,0,1,2.17.46l-.35,1a4.07,4.07,0,0,0-1.87-.44c-1.34,0-1.85.76-1.85,1.4,0,.87.6,1.3,2,1.8,1.66.61,2.51,1.37,2.51,2.75s-1.12,2.69-3.44,2.69a5.28,5.28,0,0,1-2.51-.6Z"/><path class="cls-17" d="M140.54,29.22l-1,2.94h-1.31l3.34-9.35h1.53l3.35,9.35h-1.35l-1-2.94Zm3.22-.94-1-2.69c-.22-.61-.36-1.17-.51-1.71h0c-.15.55-.31,1.12-.5,1.69l-1,2.7Z"/><rect class="cls-5" x="1.82" y="195.6" width="66.77" height="20.11" rx="4.29" ry="4.29"/><path class="cls-17" d="M25.67,209.29a4.51,4.51,0,0,1-1.91.35,3.44,3.44,0,0,1-3.58-3.78A3.66,3.66,0,0,1,24,202a3.78,3.78,0,0,1,1.72.33l-.23.79a3.32,3.32,0,0,0-1.46-.31c-1.7,0-2.82,1.12-2.82,3.08a2.68,2.68,0,0,0,2.78,3,3.64,3.64,0,0,0,1.52-.31Z"/><path class="cls-17" d="M28,207.19l-.75,2.35h-1l2.46-7.47h1.13l2.47,7.47h-1l-.77-2.35Zm2.37-.75-.71-2.15c-.16-.49-.27-.93-.38-1.36h0c-.11.44-.23.9-.37,1.35l-.71,2.16Z"/><path class="cls-17" d="M33.45,202.17a9.45,9.45,0,0,1,1.79-.15,2.89,2.89,0,0,1,2.09.61,1.89,1.89,0,0,1,.57,1.42,2,2,0,0,1-1.36,1.91v0a1.85,1.85,0,0,1,1.06,1.51,12.13,12.13,0,0,0,.56,2h-1a9.88,9.88,0,0,1-.48-1.78c-.21-1-.6-1.42-1.45-1.45h-.88v3.23h-.93Zm.93,3.4h1A1.44,1.44,0,0,0,37,204.15c0-1-.68-1.38-1.66-1.4a3.76,3.76,0,0,0-.92.09Z"/><path class="cls-17" d="M39.23,209.54v-7.47h1l2.32,3.78a21.32,21.32,0,0,1,1.3,2.43h0c-.09-1-.11-1.91-.11-3.07v-3.12h.88v7.47h-.94l-2.3-3.79a23.93,23.93,0,0,1-1.35-2.49h0c.05.94.08,1.84.08,3.08v3.19Z"/><path class="cls-17" d="M50,206H47.23v2.69h3.14v.81H46.29v-7.47H50.2v.81h-3v2.36H50Z"/><rect class="cls-5" x="1.21" y="232.98" width="66.77" height="20.11" rx="4.29" ry="4.29"/><path class="cls-17" d="M22,239.54a10.56,10.56,0,0,1,1.79-.14,2.91,2.91,0,0,1,2,.62,2,2,0,0,1,.63,1.56,2.24,2.24,0,0,1-.56,1.6,3,3,0,0,1-2.21.82,3.1,3.1,0,0,1-.75-.07v3H22Zm.93,3.6a3.07,3.07,0,0,0,.77.08c1.13,0,1.82-.56,1.82-1.59s-.68-1.46-1.71-1.46a3.75,3.75,0,0,0-.88.08Z"/><path class="cls-17" d="M28,244.57l-.75,2.35h-1l2.46-7.47h1.13l2.47,7.47h-1l-.77-2.35Zm2.37-.75-.71-2.15c-.16-.49-.27-.93-.38-1.36h0c-.11.44-.23.9-.36,1.35l-.71,2.16Z"/><path class="cls-17" d="M33.39,239.46h.93v6.66h3.09v.81h-4Z"/><path class="cls-17" d="M38.88,240.28h-2.2v-.82H42v.82H39.83v6.65h-.94Z"/><path class="cls-17" d="M43.21,244.57l-.75,2.35h-1L44,239.46h1.13l2.47,7.47h-1l-.77-2.35Zm2.37-.75-.71-2.15c-.16-.49-.27-.93-.38-1.36h0c-.11.44-.23.9-.37,1.35l-.71,2.16Z"/><rect class="cls-5" y="268.71" width="66.77" height="20.11" rx="4.29" ry="4.29"/><path class="cls-17" d="M17.48,276.4h-2.2v-.82h5.36v.82H18.42V283h-.94Z"/><path class="cls-17" d="M27.34,279.24c0,2.57-1.51,3.93-3.36,3.93s-3.25-1.53-3.25-3.79,1.43-3.92,3.36-3.92S27.34,277,27.34,279.24Zm-5.62.12c0,1.59.84,3,2.31,3s2.32-1.41,2.32-3.1c0-1.48-.75-3-2.31-3S21.72,277.72,21.72,279.36Z"/><path class="cls-17" d="M34.65,279.77c-.05-1-.12-2.29-.11-3.22h0c-.25.88-.55,1.81-.91,2.84L32.32,283h-.71l-1.17-3.56c-.34-1.05-.63-2-.84-2.9h0c0,.93-.07,2.18-.14,3.3l-.19,3.2h-.89l.51-7.47h1.19l1.23,3.61c.3.92.55,1.74.73,2.51h0c.18-.75.44-1.57.76-2.51l1.29-3.61h1.19l.45,7.47h-.91Z"/><path class="cls-17" d="M38.25,280.7,37.49,283h-1L39,275.58h1.13L42.58,283h-1l-.77-2.35Zm2.37-.75-.71-2.15c-.16-.49-.27-.93-.38-1.36h0c-.11.44-.23.9-.37,1.35l-.71,2.16Z"/><path class="cls-17" d="M44.19,276.4H42v-.82h5.36v.82H45.14V283h-.94Z"/><path class="cls-17" d="M51.9,279.55H49.09v2.69h3.14V283H48.16v-7.47h3.91v.81h-3v2.36H51.9Z"/><rect class="cls-5" y="305.68" width="66.77" height="20.11" rx="4.29" ry="4.29"/><path class="cls-17" d="M21.31,320.71c-1-.27-1.93-.57-2.77-.86a1.37,1.37,0,0,0-.44-.11c-1.72-.07-3.19-1.37-3.19-3.78S16.33,312,18.28,312s3.24,1.57,3.24,3.78c0,1.92-.86,3.15-2.06,3.58v0c.72.19,1.5.37,2.11.48Zm-.77-4.86c0-1.5-.75-3-2.29-3s-2.35,1.51-2.34,3.12.84,3,2.3,3S20.54,317.55,20.54,315.85Z"/><path class="cls-17" d="M23.67,312.15v4.42c0,1.67.72,2.38,1.69,2.38s1.76-.73,1.76-2.38v-4.42h.95v4.35c0,2.29-1.17,3.24-2.74,3.24s-2.6-.87-2.6-3.19v-4.4Z"/><path class="cls-17" d="M33.43,316.11H30.62v2.69h3.14v.81H29.69v-7.47H33.6V313h-3v2.36h2.81Z"/><path class="cls-17" d="M34.84,318.44a3.24,3.24,0,0,0,1.68.49c1,0,1.51-.52,1.51-1.27s-.39-1.1-1.36-1.48c-1.18-.43-1.91-1.06-1.91-2.12a2.11,2.11,0,0,1,2.34-2,3.2,3.2,0,0,1,1.6.37l-.26.79a2.82,2.82,0,0,0-1.37-.35c-1,0-1.36.61-1.36,1.12,0,.7.44,1,1.44,1.44,1.22.49,1.85,1.1,1.85,2.19s-.83,2.15-2.53,2.15a3.65,3.65,0,0,1-1.85-.48Z"/><path class="cls-17" d="M46.45,315.8c0,2.57-1.51,3.93-3.36,3.93s-3.25-1.53-3.25-3.79S41.26,312,43.19,312,46.45,313.59,46.45,315.8Zm-5.62.12c0,1.59.84,3,2.31,3s2.32-1.41,2.32-3.1c0-1.48-.75-3-2.31-3S40.83,314.29,40.83,315.93Z"/><rect class="cls-5" x="140.32" y="152.18" width="48.33" height="28.5" rx="5" ry="5"/><path class="cls-17" d="M155.08,164.12h0l-1.32.68-.2-.74,1.65-.84h.87v7.2h-1Z"/><path class="cls-17" d="M166.33,169c0,.55,0,1,0,1.46h-.91l-.06-.87h0a2.14,2.14,0,0,1-1.86,1c-.88,0-1.94-.47-1.94-2.35v-3.13h1v3c0,1,.33,1.71,1.26,1.71a1.48,1.48,0,0,0,1.35-.89,1.35,1.35,0,0,0,.09-.5v-3.29h1Z"/><path class="cls-17" d="M168,166.5c0-.55,0-1,0-1.45h.91l.06.89h0a2.09,2.09,0,0,1,1.86-1,2,2,0,0,1,2,2.28v3.2h-1v-3.09c0-.86-.34-1.58-1.3-1.58a1.45,1.45,0,0,0-1.37,1,1.34,1.34,0,0,0-.07.45v3.22h-1Z"/><rect class="cls-5" x="140.32" y="188.77" width="48.33" height="28.5" rx="5" ry="5"/><path class="cls-17" d="M150.52,207v-.6l.8-.74c1.93-1.75,2.81-2.68,2.82-3.77a1.32,1.32,0,0,0-1.5-1.41,2.65,2.65,0,0,0-1.61.61l-.33-.69a3.42,3.42,0,0,1,2.14-.73,2.08,2.08,0,0,1,2.32,2.09c0,1.33-1,2.4-2.61,3.87l-.61.53v0h3.4V207Z"/><path class="cls-17" d="M161,200.62h-2.89l-.29,1.85a4.35,4.35,0,0,1,.62,0,3.33,3.33,0,0,1,1.63.39,2,2,0,0,1,1.08,1.85,2.57,2.57,0,0,1-2.82,2.46,3.85,3.85,0,0,1-1.89-.44l.26-.74a3.53,3.53,0,0,0,1.62.4,1.64,1.64,0,0,0,1.79-1.56c0-.93-.66-1.6-2.18-1.6a8.22,8.22,0,0,0-1,.08l.49-3.46H161Z"/><path class="cls-17" d="M167.49,203.32c0,2.45-1,3.8-2.63,3.8-1.48,0-2.48-1.32-2.5-3.7s1.09-3.74,2.63-3.74S167.49,201,167.49,203.32Zm-4.11.11c0,1.87.6,2.94,1.54,2.94s1.55-1.16,1.55-3-.48-2.94-1.54-2.94C164,200.43,163.38,201.47,163.38,203.43Z"/><path class="cls-17" d="M176.08,201.64c0,.39,0,.82,0,1.47v3.11a3,3,0,0,1-.8,2.45,3.09,3.09,0,0,1-2,.64,3.78,3.78,0,0,1-1.87-.44l.26-.74a3.3,3.3,0,0,0,1.65.42,1.65,1.65,0,0,0,1.82-1.87v-.6h0a2,2,0,0,1-1.79.9,2.44,2.44,0,0,1-2.4-2.61,2.62,2.62,0,0,1,2.54-2.85,1.89,1.89,0,0,1,1.76.93h0l0-.81ZM175,203.75a1.31,1.31,0,0,0-.06-.44,1.46,1.46,0,0,0-1.43-1c-1,0-1.68.79-1.68,2a1.7,1.7,0,0,0,1.67,1.93,1.49,1.49,0,0,0,1.42-1,1.62,1.62,0,0,0,.08-.52Z"/><path class="cls-17" d="M177.67,203.31c0-.63,0-1.17,0-1.67h.9l0,1.05h0a1.68,1.68,0,0,1,1.56-1.17,1.15,1.15,0,0,1,.29,0v.92a1.66,1.66,0,0,0-.35,0,1.41,1.41,0,0,0-1.37,1.25,2.7,2.7,0,0,0,0,.45V207h-1Z"/><rect class="cls-5" x="139.82" y="225.36" width="48.33" height="28.5" rx="5" ry="5"/><path class="cls-17" d="M152.08,237.29h0l-1.32.68-.2-.74,1.65-.84h.87v7.2h-1Z"/><path class="cls-17" d="M160.85,239.91c0,2.45-1,3.8-2.63,3.8-1.48,0-2.48-1.32-2.5-3.7s1.09-3.74,2.63-3.74S160.85,237.61,160.85,239.91Zm-4.11.11c0,1.87.61,2.94,1.54,2.94s1.55-1.16,1.55-3-.48-2.94-1.54-2.94C157.4,237,156.74,238.06,156.74,240Z"/><path class="cls-17" d="M166.83,239.91c0,2.45-1,3.8-2.63,3.8-1.48,0-2.48-1.32-2.5-3.7s1.09-3.74,2.63-3.74S166.83,237.61,166.83,239.91Zm-4.11.11c0,1.87.61,2.94,1.54,2.94s1.55-1.16,1.55-3-.48-2.94-1.54-2.94C163.37,237,162.72,238.06,162.72,240Z"/><path class="cls-17" d="M175.42,238.22c0,.39,0,.82,0,1.47v3.11a3,3,0,0,1-.8,2.45,3.09,3.09,0,0,1-2,.64,3.78,3.78,0,0,1-1.87-.44l.26-.74a3.3,3.3,0,0,0,1.65.42,1.65,1.65,0,0,0,1.82-1.87v-.6h0a2,2,0,0,1-1.79.9,2.44,2.44,0,0,1-2.4-2.61,2.62,2.62,0,0,1,2.54-2.85,1.89,1.89,0,0,1,1.76.93h0l0-.81Zm-1.06,2.12a1.31,1.31,0,0,0-.06-.44,1.46,1.46,0,0,0-1.43-1c-1,0-1.68.79-1.68,2a1.7,1.7,0,0,0,1.67,1.93,1.49,1.49,0,0,0,1.42-1,1.64,1.64,0,0,0,.08-.52Z"/><path class="cls-17" d="M177,239.9c0-.63,0-1.17,0-1.67h.9l0,1.05h0a1.68,1.68,0,0,1,1.56-1.17,1.14,1.14,0,0,1,.29,0v.92a1.65,1.65,0,0,0-.35,0,1.41,1.41,0,0,0-1.37,1.25,2.6,2.6,0,0,0,0,.45v2.86h-1Z"/><rect class="cls-5" x="139.82" y="262.32" width="48.33" height="28.5" rx="5" ry="5"/><path class="cls-17" d="M151.92,278.72a2.07,2.07,0,0,1,1.5-1.93v0a1.79,1.79,0,0,1-1.2-1.62,2.09,2.09,0,0,1,2.34-1.92c1.47,0,2.2.88,2.2,1.77a1.83,1.83,0,0,1-1.25,1.68v0a2,2,0,0,1,1.53,1.86c0,1.25-1.13,2.09-2.57,2.09S151.92,279.77,151.92,278.72Zm4.08,0c0-.87-.64-1.3-1.67-1.57a1.59,1.59,0,0,0-1.36,1.48,1.37,1.37,0,0,0,1.51,1.37A1.34,1.34,0,0,0,156,278.68Zm-2.82-3.6c0,.72.57,1.11,1.44,1.33a1.44,1.44,0,0,0,1.15-1.31,1.15,1.15,0,0,0-1.28-1.17A1.18,1.18,0,0,0,153.17,275.08Z"/><path class="cls-17" d="M163,276.87c0,2.45-1,3.8-2.63,3.8-1.48,0-2.48-1.32-2.5-3.7s1.09-3.74,2.63-3.74S163,274.58,163,276.87Zm-4.11.11c0,1.87.61,2.94,1.54,2.94s1.55-1.16,1.55-3-.48-2.94-1.54-2.94C159.55,274,158.9,275,158.9,277Z"/><path class="cls-17" d="M171.6,275.19c0,.39,0,.82,0,1.47v3.11a3,3,0,0,1-.8,2.45,3.09,3.09,0,0,1-2,.64,3.78,3.78,0,0,1-1.87-.44l.26-.74a3.3,3.3,0,0,0,1.65.42,1.65,1.65,0,0,0,1.82-1.87v-.6h0a2,2,0,0,1-1.79.9,2.44,2.44,0,0,1-2.4-2.61,2.62,2.62,0,0,1,2.54-2.85,1.89,1.89,0,0,1,1.76.93h0l0-.81Zm-1.06,2.12a1.31,1.31,0,0,0-.06-.44,1.46,1.46,0,0,0-1.43-1c-1,0-1.68.79-1.68,2a1.7,1.7,0,0,0,1.67,1.93,1.49,1.49,0,0,0,1.42-1,1.64,1.64,0,0,0,.08-.52Z"/><path class="cls-17" d="M173.19,276.86c0-.63,0-1.17,0-1.67h.9l0,1.05h0a1.68,1.68,0,0,1,1.56-1.17,1.14,1.14,0,0,1,.29,0V276a1.65,1.65,0,0,0-.35,0,1.41,1.41,0,0,0-1.37,1.25,2.6,2.6,0,0,0,0,.45v2.86h-1Z"/><rect class="cls-5" x="140.09" y="299.29" width="48.33" height="28.5" rx="5" ry="5"/><path class="cls-17" d="M153.66,317.51v-.6l.8-.74c1.93-1.75,2.81-2.68,2.82-3.77a1.32,1.32,0,0,0-1.5-1.41,2.64,2.64,0,0,0-1.61.61l-.33-.69a3.42,3.42,0,0,1,2.14-.73,2.08,2.08,0,0,1,2.32,2.09c0,1.33-1,2.4-2.61,3.87l-.61.53v0h3.4v.81Z"/><path class="cls-17" d="M164.66,313.84c0,2.45-1,3.8-2.63,3.8-1.48,0-2.48-1.32-2.5-3.7s1.09-3.74,2.63-3.74S164.66,311.54,164.66,313.84Zm-4.11.11c0,1.87.61,2.94,1.54,2.94s1.55-1.16,1.55-3-.48-2.94-1.54-2.94C161.2,310.95,160.55,312,160.55,313.95Z"/><path class="cls-17" d="M173.25,312.15c0,.39,0,.82,0,1.47v3.11a3,3,0,0,1-.8,2.45,3.09,3.09,0,0,1-2,.64,3.78,3.78,0,0,1-1.87-.44l.26-.74a3.3,3.3,0,0,0,1.65.42,1.65,1.65,0,0,0,1.82-1.87v-.6h0a2,2,0,0,1-1.79.9,2.44,2.44,0,0,1-2.4-2.61,2.62,2.62,0,0,1,2.54-2.85,1.89,1.89,0,0,1,1.76.93h0l0-.81Zm-1.06,2.12a1.31,1.31,0,0,0-.06-.44,1.47,1.47,0,0,0-1.43-1c-1,0-1.68.79-1.68,2a1.7,1.7,0,0,0,1.67,1.93,1.49,1.49,0,0,0,1.42-1,1.61,1.61,0,0,0,.08-.52Z"/><path class="cls-17" d="M174.83,313.83c0-.63,0-1.17,0-1.67h.9l0,1.05h0a1.68,1.68,0,0,1,1.56-1.17,1.15,1.15,0,0,1,.29,0V313a1.66,1.66,0,0,0-.35,0,1.41,1.41,0,0,0-1.37,1.25,2.7,2.7,0,0,0,0,.45v2.86h-1Z"/><polygon class="cls-19" points="121.22 86.41 121.22 96.48 95.88 96.48 83.25 96.48 75.96 96.48 75.96 86.41 121.22 86.41"/><path class="cls-20" d="M123.9,88.92a2.31,2.31,0,0,1-2.31,2.31H75.23a2.31,2.31,0,0,1-2.31-2.31A15.09,15.09,0,0,1,88,73.83h20.8A15.09,15.09,0,0,1,123.9,88.92Z"/><path class="cls-20" d="M85.38,88.92a15.09,15.09,0,0,1,15.09-15.09H88.73A15.09,15.09,0,0,0,73.64,88.92a2.31,2.31,0,0,0,2.31,2.31H87.68a2.31,2.31,0,0,1-2.31-2.31Z"/><circle class="cls-21" cx="87.15" cy="78.52" r="1.15"/><circle class="cls-21" cx="109.67" cy="78.52" r="1.15"/><circle class="cls-21" cx="94.66" cy="78.52" r="1.15"/><circle class="cls-21" cx="102.16" cy="78.52" r="1.15"/><path class="cls-20" d="M121.77,111.75a2.31,2.31,0,0,1,2.31,2.31v2.81a6.06,6.06,0,0,1-6.06,6.06H79.16a6.06,6.06,0,0,1-6.06-6.06v-2.81a2.31,2.31,0,0,1,2.31-2.31h.41l22.26-5.18,23.27,5.18h.41Z"/><polygon class="cls-22" points="121.22 104.51 121.22 112.22 115.73 112.22 103.11 112.22 75.96 112.22 75.96 104.51 121.22 104.51"/><path class="cls-23" d="M121.49,96.48a5.08,5.08,0,1,1,0,10.17H76a5.08,5.08,0,0,1,0-10.17h45.53Z"/><polygon class="cls-21" points="116.01 96.48 109.87 102.97 103.39 96.48 116.01 96.48"/><polygon class="cls-21" points="96.57 96.48 90.43 102.97 83.95 96.48 96.57 96.48"/><path class="cls-20" d="M119.53,167.33a1.8,1.8,0,0,1-1.8,1.8H81.6a1.8,1.8,0,0,1-1.8-1.8,11.76,11.76,0,0,1,11.76-11.76h16.21a11.76,11.76,0,0,1,11.76,11.76Z"/><circle class="cls-21" cx="90.89" cy="159.22" r="0.9"/><circle class="cls-21" cx="108.44" cy="159.22" r="0.9"/><circle class="cls-21" cx="96.74" cy="159.22" r="0.9"/><circle class="cls-21" cx="102.59" cy="159.22" r="0.9"/><path class="cls-20" d="M117.87,170.58a1.8,1.8,0,0,1,1.8,1.8v2.19a4.72,4.72,0,0,1-4.72,4.72H84.66a4.72,4.72,0,0,1-4.72-4.72v-2.19a1.8,1.8,0,0,1,1.8-1.8h.32l17.61-.69,17.88.69h.32Z"/><path class="cls-24" d="M110.81,232.88c1.66,4.19-1,14.24-7.28,18.37s-14.14,2.48-16-4.47c-1.16-4.29,1.93-7.43,8.22-11.56s13.44-6.47,15.08-2.34"/><path class="cls-24" d="M100.83,246.83c-4.52,3.15-10.6,3.57-12.8.4s.29-8.72,4.81-11.87,15.22-6.79,17.42-3.63-4.91,11.94-9.43,15.09"/><path class="cls-25" d="M100.29,247.21c-4,2.78-9.35,2.15-11.29-.65s.33-7.74,4.32-10.52,14-6.42,16-3.63-3.35,11.21-9,14.8"/><path class="cls-26" d="M99.14,245.37c-3.12,2.18-6.89,2.17-8.41,0s-.23-5.72,2.9-7.9,11-5,12.5-2.83-3.86,8.57-7,10.75"/><path class="cls-27" d="M94.29,237.44a5.2,5.2,0,0,1,6.79.69c1,1-.61,3.73-3,5.35s-5.39,1.22-5.71.51a5.16,5.16,0,0,1,1.94-6.54"/><path class="cls-28" d="M95.61,237.87a1.92,1.92,0,1,1-.84,2.84,2.12,2.12,0,0,1,.84-2.84"/><path class="cls-29" d="M90.41,286.53a13.58,13.58,0,0,0,18.1-.49,12.4,12.4,0,0,0,3.39-5.46c1.82-6.18-1-13.74-7.83-15a5.35,5.35,0,0,0-4.82,1.25.45.45,0,0,1-.63,0,5.35,5.35,0,0,0-4.89-1c-6.73,1.62-9.16,9.32-7,15.39A12.4,12.4,0,0,0,90.41,286.53Z"/><path class="cls-30" d="M99.51,287.9a11.61,11.61,0,0,1-7.89-2.77,10.5,10.5,0,0,1-3.14-4.48,11.4,11.4,0,0,1,.58-9,7.8,7.8,0,0,1,5.11-4,5,5,0,0,1,1-.14,3,3,0,0,1,2.36.87l.74.86a.92.92,0,0,0,1.43,0l.69-.9a3,3,0,0,1,2.31-1,5,5,0,0,1,1,.08,7.8,7.8,0,0,1,5.32,3.7,11.4,11.4,0,0,1,1.07,8.95,10.5,10.5,0,0,1-2.9,4.65,11.62,11.62,0,0,1-7.73,3.19Z"/><path class="cls-29" d="M96.91,285.6a1.61,1.61,0,0,1-1-.29c-2.18-1.53-5.85-4.77-6-9.22a5.85,5.85,0,0,1,1.63-4.46,3.85,3.85,0,0,1,4.91-.2,1.62,1.62,0,0,1-1.86,2.65c-.09-.06-.55-.36-.87-.06a2.83,2.83,0,0,0-.58,2c.09,3.15,3.25,5.71,4.6,6.67a1.62,1.62,0,0,1-.89,2.94Z"/><path class="cls-29" d="M102,285.46a1.61,1.61,0,0,0,1-.35c2.09-1.65,5.58-5.08,5.46-9.53a5.85,5.85,0,0,0-1.87-4.36,3.85,3.85,0,0,0-4.92.07,1.62,1.62,0,0,0,2,2.54c.09-.07.53-.39.86-.11a2.83,2.83,0,0,1,.69,1.95c.08,3.15-2.93,5.88-4.23,6.91a1.62,1.62,0,0,0,1,2.89Z"/><path class="cls-29" d="M99.32,276c.81-.33,2.32-.61,2.71.49a2,2,0,0,1,.07.85,4.29,4.29,0,0,1-2.47,3.56l-.3.1h.08l-.31-.09a4.29,4.29,0,0,1-2.66-3.42,2,2,0,0,1,0-.85c.32-1.12,1.84-.92,2.68-.64Z"/><path class="cls-31" d="M94,272.88l-.18,0-.16-.1a.46.46,0,0,1-.14-.32.38.38,0,0,1,0-.18.53.53,0,0,1,.09-.16l.07-.06.08,0,.08,0a.47.47,0,0,1,.42.11.53.53,0,0,1,.1.15.46.46,0,0,1-.08.51.68.68,0,0,1-.15.11Z"/><path class="cls-31" d="M91.79,276.17a.46.46,0,0,1-.33-.13.53.53,0,0,1-.1-.15.46.46,0,0,1,0-.17.48.48,0,0,1,.13-.33.48.48,0,0,1,.66,0,.49.49,0,0,1,.14.32.46.46,0,0,1-.13.33.68.68,0,0,1-.15.11Z"/><path class="cls-31" d="M92.34,279.39a.46.46,0,0,1-.18,0,.42.42,0,0,1-.26-.24.43.43,0,0,1,0-.35.53.53,0,0,1,.09-.16l.07-.06.08,0,.08,0a.47.47,0,0,1,.42.11.53.53,0,0,1,.1.15.43.43,0,0,1,0,.35.53.53,0,0,1-.09.16.46.46,0,0,1-.32.14Z"/><path class="cls-31" d="M94.27,282.11a.46.46,0,0,1-.33-.13.48.48,0,0,1-.1-.15.38.38,0,0,1,0-.17.46.46,0,0,1,0-.18.53.53,0,0,1,.09-.16.43.43,0,0,1,.15-.1.47.47,0,0,1,.51.08.53.53,0,0,1,.1.15.43.43,0,0,1,0,.35.48.48,0,0,1-.09.16A.46.46,0,0,1,94.27,282.11Z"/><path class="cls-31" d="M96.17,283.91l-.18,0-.16-.1a.46.46,0,0,1-.14-.32.48.48,0,0,1,.13-.33.47.47,0,0,1,.5-.11.48.48,0,0,1,.16.09.53.53,0,0,1,.1.15.46.46,0,0,1-.08.51.68.68,0,0,1-.15.11l-.17,0Z"/><path class="cls-31" d="M104.18,272.6l-.18,0-.16-.1a.53.53,0,0,1-.1-.15.43.43,0,0,1,0-.35.42.42,0,0,1,.24-.26.45.45,0,0,1,.61.23.46.46,0,0,1-.08.51.68.68,0,0,1-.15.11l-.17,0Z"/><path class="cls-31" d="M106.58,275.77a.46.46,0,0,1-.33-.13.68.68,0,0,1-.11-.15.46.46,0,0,1,.74-.52.53.53,0,0,1,.1.15.43.43,0,0,1,0,.35.53.53,0,0,1-.09.16A.46.46,0,0,1,106.58,275.77Z"/><path class="cls-31" d="M106.2,279a.46.46,0,0,1-.18,0,.48.48,0,0,1-.16-.09.53.53,0,0,1-.1-.15.43.43,0,0,1,0-.35.53.53,0,0,1,.09-.16.48.48,0,0,1,.15-.1.44.44,0,0,1,.27,0l.08,0,.08,0,.07.05a.53.53,0,0,1,.1.15.43.43,0,0,1,0,.35.53.53,0,0,1-.09.16A.46.46,0,0,1,106.2,279Z"/><path class="cls-31" d="M104.43,281.84a.46.46,0,0,1-.33-.13.53.53,0,0,1-.1-.15.43.43,0,0,1,0-.35.53.53,0,0,1,.09-.16.46.46,0,0,1,.41-.14l.09,0,.08,0,.07.05a.53.53,0,0,1,.1.15.43.43,0,0,1,0,.35.48.48,0,0,1-.09.16.54.54,0,0,1-.15.1.46.46,0,0,1-.17,0Z"/><path class="cls-31" d="M102.63,283.74a.46.46,0,0,1-.44-.63.53.53,0,0,1,.09-.16.47.47,0,0,1,.41-.14l.09,0,.08,0,.08.05a.53.53,0,0,1,.1.15.46.46,0,0,1-.41.65Z"/><path class="cls-49" d="M112.13,309.65s-1.46-8.44-14.4-8.44l-12.6,10.13"/><path class="cls-50" d="M112.13,309.65l-27,1.69v14.28a.84.84,0,0,0,.9.84l25.31-1.76a.84.84,0,0,0,.78-.84Z"/><circle class="cls-51" cx="106.23" cy="315.56" r="2.53"/><circle class="cls-51" cx="97.79" cy="318.93" r="2.53"/><path class="cls-51" d="M86,316.4a2.5,2.5,0,0,0-.84.16v4.75a2.5,2.5,0,0,0,.84.16,2.53,2.53,0,0,0,0-5.06Z"/><path class="cls-52" d="M82.28,212.28a11.75,11.75,0,0,0,6.67,5.64,14.59,14.59,0,0,0,3.31.54c4.6.41,15.62-.57,18.16-11.09a16.3,16.3,0,0,0-.84-9.94c-1.84-4.54-6-10.35-14.52-6.46-4.87,2.22-4.5,6-3.46,8.64a4.41,4.41,0,0,1-4.71,6C82.7,205.08,80.65,207.61,82.28,212.28Z"/><path class="cls-53" d="M84.46,211.28a9.5,9.5,0,0,0,5.33,4.42,11.85,11.85,0,0,0,2.62.42h.16c.48,0,1,.06,1.53.06,10.63,0,13.36-6.56,14-9.38a13.81,13.81,0,0,0-.72-8.47c-1.71-4.2-4.16-6.33-7.28-6.33a10.52,10.52,0,0,0-4.3,1.07c-1.75.8-3.9,2.29-2.41,6.06a5.94,5.94,0,0,1-.6,5.61A6,6,0,0,1,87,207.31a6.33,6.33,0,0,0-.82-.06,2.27,2.27,0,0,0-1.85.67C83.92,208.56,84,209.77,84.46,211.28Z"/><path class="cls-54" d="M94.1,216.78c-.55,0-1.09,0-1.58-.07h-.17a12.17,12.17,0,0,1-2.75-.45,10.06,10.06,0,0,1-5.66-4.7l0-.08c-.58-1.71-.58-3.08,0-3.88s1.69-1.06,3.23-.85a5.4,5.4,0,0,0,5.76-7.38c-1.86-4.71,1.58-6.29,2.72-6.8,5.66-2.58,9.83-.68,12.36,5.57a14.39,14.39,0,0,1,.75,8.83C108,209.91,105.15,216.78,94.1,216.78ZM85,211a9,9,0,0,0,5,4.09,11.42,11.42,0,0,0,2.49.39h.17c.46,0,1,.06,1.48.06,10.21,0,12.82-6.24,13.47-8.93a13.23,13.23,0,0,0-.7-8.11c-1.61-4-3.88-6-6.74-6a10,10,0,0,0-4.05,1c-1.77.8-3.4,2.06-2.11,5.31a6.57,6.57,0,0,1-7,9c-1-.14-1.87,0-2.12.37S84.5,209.54,85,211Z"/><g class="cls-55"><circle class="cls-52" cx="100.69" cy="197.01" r="2.34"/><path class="cls-52" d="M100.69,199.94a2.92,2.92,0,1,1,2.92-2.92A2.93,2.93,0,0,1,100.69,199.94Zm0-4.68a1.75,1.75,0,1,0,1.75,1.75A1.76,1.76,0,0,0,100.69,195.26Z"/></g><path class="cls-54" d="M96.7,216.25,95.56,216c.25-1-.62-1.88-2-2.84a7.43,7.43,0,0,1-3.11-5c-.11-.74-.25-1.34-.25-1.34l1.12-.32A4.63,4.63,0,0,0,93.63,209a5.43,5.43,0,0,0,4.47-.49c6.77-3.25,10-1.55,10.13-1.47l-.57,1s-2.91-1.45-9.06,1.5a6.51,6.51,0,0,1-5.44.5,4.9,4.9,0,0,1-1.21-.74,6.23,6.23,0,0,0,2.26,2.87C95.25,212.89,97.19,214.23,96.7,216.25Z"/><path class="cls-54" d="M97.55,205.67a5.21,5.21,0,0,1-4.46-2.19l1-.59-.5.3.5-.3c.06.1,1.59,2.53,5.69,1.23.9-.46,7-3.51,9.13-1.34l-.84.81c-1.16-1.2-5.39.34-7.79,1.59l-.09,0A8.59,8.59,0,0,1,97.55,205.67Z"/><path class="cls-52" d="M499.88,306.33a19.24,19.24,0,0,0,10.92,9.23,23.9,23.9,0,0,0,5.43.88c7.53.67,25.57-.93,29.74-18.17A26.7,26.7,0,0,0,544.6,282c-3-7.43-9.78-17-23.77-10.58-8,3.63-7.37,9.84-5.66,14.16a7.22,7.22,0,0,1-7.72,9.88C500.57,294.55,497.22,298.68,499.88,306.33Z"/><path class="cls-53" d="M503.46,304.69a15.56,15.56,0,0,0,8.72,7.23,19.41,19.41,0,0,0,4.29.69l.27,0c.78.07,1.63.11,2.51.11,17.4,0,21.88-10.74,23-15.36a22.62,22.62,0,0,0-1.18-13.87c-2.79-6.88-6.81-10.37-11.93-10.37a17.23,17.23,0,0,0-7,1.75c-2.86,1.31-6.39,3.75-4,9.92a9.73,9.73,0,0,1-1,9.18,9.89,9.89,0,0,1-9.47,4.2,10.37,10.37,0,0,0-1.34-.09,3.72,3.72,0,0,0-3,1.09C502.58,300.24,502.63,302.23,503.46,304.69Z"/><path class="cls-54" d="M519.25,313.7c-.91,0-1.78,0-2.59-.11l-.27,0a19.94,19.94,0,0,1-4.51-.73,16.47,16.47,0,0,1-9.27-7.7l-.06-.13c-.94-2.79-1-5,0-6.35s2.77-1.73,5.29-1.39a8.85,8.85,0,0,0,9.44-12.08c-3.05-7.72,2.59-10.29,4.45-11.14,9.27-4.22,16.09-1.11,20.25,9.13a23.56,23.56,0,0,1,1.23,14.45C542,302.45,537.33,313.7,519.25,313.7Zm-14.91-9.38a14.75,14.75,0,0,0,8.14,6.7,18.71,18.71,0,0,0,4.07.64l.27,0c.75.07,1.57.1,2.42.1,16.72,0,21-10.23,22.06-14.62a21.67,21.67,0,0,0-1.14-13.28c-2.63-6.48-6.35-9.77-11-9.77a16.29,16.29,0,0,0-6.64,1.67c-2.89,1.32-5.56,3.38-3.46,8.7a10.76,10.76,0,0,1-11.47,14.68c-1.72-.23-3.06,0-3.48.61S503.52,301.85,504.34,304.32Z"/><g class="cls-55"><circle class="cls-52" cx="530.04" cy="281.33" r="3.83"/><path class="cls-52" d="M530,286.12a4.79,4.79,0,1,1,4.79-4.79A4.79,4.79,0,0,1,530,286.12Zm0-7.66a2.87,2.87,0,1,0,2.87,2.87A2.88,2.88,0,0,0,530,278.46Z"/></g><path class="cls-54" d="M523.5,312.83l-1.86-.46c.42-1.69-1-3.08-3.3-4.65a12.17,12.17,0,0,1-5.1-8.23c-.18-1.21-.41-2.19-.41-2.2l1.84-.52a7.58,7.58,0,0,0,3.81,4.13c2,.84,4.47.57,7.32-.8,11.08-5.32,16.37-2.53,16.59-2.41l-.93,1.68s-4.76-2.37-14.84,2.46c-3.38,1.62-6.38,1.9-8.91.83a8,8,0,0,1-2-1.21,10.21,10.21,0,0,0,3.7,4.7C521.13,307.33,524.31,309.52,523.5,312.83Z"/><path class="cls-54" d="M524.89,295.51a8.53,8.53,0,0,1-7.31-3.58l1.65-1-.83.48.82-.49c.1.17,2.6,4.15,9.32,2,1.47-.76,11.52-5.75,15-2.19l-1.38,1.33c-1.89-2-8.84.55-12.76,2.6l-.15.06A14.06,14.06,0,0,1,524.89,295.51Z"/><rect class="cls-5" x="748.57" y="36.18" width="146.99" height="295.26" rx="4.83" ry="4.83"/><path class="cls-56" d="M776.75,54.49a4,4,0,0,0,1.95.52c1.11,0,1.76-.56,1.76-1.37s-.45-1.18-1.59-1.6c-1.37-.46-2.22-1.14-2.22-2.27s1.09-2.18,2.72-2.18a4,4,0,0,1,1.86.39l-.3.85a3.49,3.49,0,0,0-1.6-.38c-1.15,0-1.59.65-1.59,1.2,0,.75.51,1.12,1.67,1.55,1.42.52,2.15,1.18,2.15,2.36s-1,2.31-2.95,2.31a4.53,4.53,0,0,1-2.15-.51Z"/><path class="cls-56" d="M784.66,48.61H782.1v-.88h6.24v.88h-2.57v7.14h-1.1Z"/><path class="cls-56" d="M796.14,51.66c0,2.76-1.76,4.23-3.91,4.23a3.75,3.75,0,0,1-3.79-4.07,3.89,3.89,0,0,1,3.91-4.21A3.73,3.73,0,0,1,796.14,51.66Zm-6.54.13c0,1.71,1,3.25,2.69,3.25s2.7-1.51,2.7-3.33c0-1.6-.87-3.26-2.69-3.26S789.6,50,789.6,51.79Z"/><path class="cls-56" d="M803.44,55.49a5.64,5.64,0,0,1-2.22.38,3.84,3.84,0,0,1-4.16-4.06,4.09,4.09,0,0,1,4.4-4.21,4.72,4.72,0,0,1,2,.36l-.26.85a4.13,4.13,0,0,0-1.7-.33,3.05,3.05,0,0,0-3.29,3.31A3,3,0,0,0,801.44,55a4.55,4.55,0,0,0,1.78-.33Z"/><path class="cls-56" d="M804.8,47.73h1.09V51.6h0c.23-.31.45-.6.66-.86l2.57-3h1.35l-3,3.4,3.29,4.62h-1.29l-2.77-3.94-.8.88v3.06H804.8Z"/><path class="cls-56" d="M818.59,52h-3.27v2.89H819v.87h-4.74v-8h4.55v.87h-3.46v2.54h3.27Z"/><path class="cls-56" d="M820.38,55.75v-8h1.19l2.7,4.06a22.47,22.47,0,0,1,1.51,2.61h0c-.1-1.07-.12-2-.12-3.3V47.73h1v8h-1.1l-2.67-4.07A25.17,25.17,0,0,1,821.35,49h0c.06,1,.09,2,.09,3.31v3.43Z"/><path class="cls-56" d="M831.26,47.84a11,11,0,0,1,2-.17,3.61,3.61,0,0,1,2.31.58,1.65,1.65,0,0,1,.7,1.42,1.92,1.92,0,0,1-1.42,1.76v0a2.08,2.08,0,0,1,1,3.62,4.38,4.38,0,0,1-2.91.75,13.28,13.28,0,0,1-1.69-.1Zm1.09,3.28h1c1.15,0,1.82-.57,1.82-1.34,0-.94-.75-1.31-1.85-1.31a4.89,4.89,0,0,0-1,.07Zm0,3.84a6.09,6.09,0,0,0,.91,0c1.13,0,2.16-.39,2.16-1.56s-1-1.55-2.17-1.55h-.9Z"/><path class="cls-56" d="M845.23,51.66c0,2.76-1.76,4.23-3.91,4.23a3.75,3.75,0,0,1-3.79-4.07,3.89,3.89,0,0,1,3.91-4.21A3.73,3.73,0,0,1,845.23,51.66Zm-6.54.13c0,1.71,1,3.25,2.69,3.25s2.7-1.51,2.7-3.33c0-1.6-.87-3.26-2.69-3.26S838.69,50,838.69,51.79Z"/><path class="cls-56" d="M846.65,47.84a16.32,16.32,0,0,1,2.31-.17,5,5,0,0,1,3.41,1,3.61,3.61,0,0,1,1.19,2.88,4.13,4.13,0,0,1-1.21,3.12,5.36,5.36,0,0,1-3.72,1.15,18.39,18.39,0,0,1-2-.1Zm1.09,7.09a7.17,7.17,0,0,0,1.1.06c2.32,0,3.59-1.24,3.59-3.4,0-1.89-1.11-3.09-3.41-3.09a6.46,6.46,0,0,0-1.27.11Z"/><path class="cls-56" d="M859.33,52h-3.27v2.89h3.65v.87H855v-8h4.55v.87h-3.46v2.54h3.27Z"/><path class="cls-56" d="M867.53,55.4a8.2,8.2,0,0,1-2.59.44,4.46,4.46,0,0,1-3.15-1.06,4,4,0,0,1-1.17-3c0-2.39,1.74-4.14,4.56-4.14a5.43,5.43,0,0,1,2.1.37l-.26.85a4.56,4.56,0,0,0-1.86-.35,3.08,3.08,0,0,0-3.39,3.23A3,3,0,0,0,865,55a3.7,3.7,0,0,0,1.45-.21V52.37h-1.71v-.83h2.77Z"/><path class="cls-56" d="M870.56,53.23l-.87,2.52h-1.12l2.86-8h1.31l2.87,8h-1.16l-.9-2.52Zm2.76-.81-.83-2.31c-.19-.52-.31-1-.44-1.46h0c-.12.48-.26,1-.42,1.45l-.82,2.32Z"/><path class="cls-56" d="M757.48,79a12.09,12.09,0,0,1,2-.16,3.32,3.32,0,0,1,2.27.67,2.17,2.17,0,0,1,.71,1.69,2.38,2.38,0,0,1-.62,1.73,3.35,3.35,0,0,1-2.47.89,3.58,3.58,0,0,1-.84-.07V87h-1Zm1,3.9a3.49,3.49,0,0,0,.86.08c1.26,0,2-.61,2-1.73s-.75-1.58-1.91-1.58a4.38,4.38,0,0,0-1,.08Z"/><path class="cls-56" d="M764.16,84.48,763.32,87h-1.08L765,78.94h1.26L769,87h-1.12L767,84.48Zm2.65-.82L766,81.34c-.18-.53-.3-1-.42-1.48h0c-.12.48-.25,1-.41,1.46l-.79,2.34Z"/><path class="cls-56" d="M770.2,87V78.94h1.14L773.93,83a22.86,22.86,0,0,1,1.45,2.63h0c-.1-1.08-.12-2.06-.12-3.32V78.94h1V87h-1.05l-2.57-4.1a25.65,25.65,0,0,1-1.51-2.7h0c.06,1,.08,2,.08,3.33V87Z"/><path class="cls-56" d="M855.26,87V84.9h-3.62v-.7l3.48-5h1.14v4.85h1.09v.83h-1.09V87Zm0-3v-2.6q0-.61,0-1.22h0c-.24.46-.43.79-.65,1.15L852.71,84v0Z"/><path class="cls-56" d="M858.06,85A2.23,2.23,0,0,1,859.61,83v0a1.93,1.93,0,0,1-1.24-1.75,2.18,2.18,0,0,1,2.41-2.08A2,2,0,0,1,863,81a2,2,0,0,1-1.28,1.82v0a2.16,2.16,0,0,1,1.57,2,2.4,2.4,0,0,1-2.65,2.27C859,87.15,858.06,86.18,858.06,85Zm4.2,0c0-.95-.66-1.4-1.71-1.7a1.69,1.69,0,0,0-1.4,1.61,1.44,1.44,0,0,0,1.56,1.49A1.41,1.41,0,0,0,862.26,85Zm-2.9-3.9c0,.78.59,1.2,1.49,1.44A1.54,1.54,0,0,0,862,81.12a1.21,1.21,0,0,0-1.32-1.27A1.24,1.24,0,0,0,859.36,81.1Z"/><path class="cls-56" d="M872,85.44c0,.6,0,1.13,0,1.58h-.94l-.06-.95h0a2.18,2.18,0,0,1-1.92,1.08c-.91,0-2-.5-2-2.54V81.22h1.06v3.21c0,1.1.34,1.85,1.3,1.85a1.48,1.48,0,0,0,1.49-1.5V81.22H872Z"/><path class="cls-56" d="M873.8,82.79c0-.6,0-1.09,0-1.57h.94l.06,1h0a2.13,2.13,0,0,1,1.92-1.09c.8,0,2.05.48,2.05,2.47V87h-1.06V83.68c0-.94-.35-1.71-1.34-1.71A1.5,1.5,0,0,0,874.93,83a1.52,1.52,0,0,0-.07.49V87H873.8Z"/><path class="cls-56" d="M763.13,115.56a5.18,5.18,0,0,1-2.13.38,3.78,3.78,0,0,1-4-4.09,4,4,0,0,1,4.22-4.25,4.33,4.33,0,0,1,1.92.36l-.25.85a3.79,3.79,0,0,0-1.63-.34,3,3,0,0,0-3.15,3.33,2.94,2.94,0,0,0,3.11,3.25,4.18,4.18,0,0,0,1.7-.34Z"/><path class="cls-56" d="M765.79,113.28l-.84,2.54h-1.08l2.75-8.08h1.26l2.76,8.08h-1.12l-.86-2.54Zm2.65-.82-.79-2.33c-.18-.53-.3-1-.42-1.48h0c-.12.48-.25,1-.41,1.46l-.79,2.34Z"/><path class="cls-56" d="M771.83,107.85a10.87,10.87,0,0,1,2-.17,3.31,3.31,0,0,1,2.34.66,2,2,0,0,1,.64,1.54,2.12,2.12,0,0,1-1.52,2.06v0a2,2,0,0,1,1.19,1.63,12.83,12.83,0,0,0,.62,2.22H776a10.47,10.47,0,0,1-.54-1.93c-.24-1.12-.67-1.54-1.62-1.57h-1v3.5h-1Zm1,3.68h1.07c1.12,0,1.82-.61,1.82-1.54s-.75-1.5-1.86-1.51a4.3,4.3,0,0,0-1,.1Z"/><path class="cls-56" d="M778.28,115.82v-8.08h1.14l2.59,4.09a22.86,22.86,0,0,1,1.45,2.63h0c-.1-1.08-.12-2.06-.12-3.32v-3.38h1v8.08H783.3l-2.57-4.1a25.65,25.65,0,0,1-1.51-2.7h0c.06,1,.08,2,.08,3.33v3.45Z"/><path class="cls-56" d="M790.37,112h-3.14v2.91h3.5v.88h-4.54v-8.08h4.37v.88h-3.32v2.55h3.14Z"/><path class="cls-56" d="M852,115.82v-.65l.83-.8c2-1.9,2.89-2.9,2.9-4.08a1.39,1.39,0,0,0-1.55-1.52,2.65,2.65,0,0,0-1.66.66l-.34-.74a3.42,3.42,0,0,1,2.21-.79,2.19,2.19,0,0,1,2.39,2.27c0,1.44-1,2.6-2.69,4.19l-.62.58v0H857v.88Z"/><path class="cls-56" d="M862.61,108.77a3.8,3.8,0,0,0-.79,0,3.17,3.17,0,0,0-2.71,2.77h0a2.38,2.38,0,0,1,4.23,1.62,2.61,2.61,0,0,1-2.59,2.75c-1.67,0-2.76-1.3-2.76-3.32a4.9,4.9,0,0,1,1.32-3.51,4.24,4.24,0,0,1,2.49-1.15,5,5,0,0,1,.77-.06Zm-.3,4.5a1.58,1.58,0,0,0-1.61-1.79,1.74,1.74,0,0,0-1.51,1,.9.9,0,0,0-.12.47c0,1.28.61,2.23,1.72,2.23C861.69,115.14,862.31,114.38,862.31,113.27Z"/><path class="cls-56" d="M864.4,115.2a.71.71,0,0,1,.72-.76.76.76,0,1,1-.72.76Z"/><path class="cls-56" d="M866.8,115.82v-.65l.83-.8c2-1.9,2.89-2.9,2.9-4.08a1.39,1.39,0,0,0-1.55-1.52,2.66,2.66,0,0,0-1.66.66l-.34-.74a3.42,3.42,0,0,1,2.21-.79,2.19,2.19,0,0,1,2.39,2.27c0,1.44-1,2.6-2.69,4.19l-.62.58v0h3.5v.88Z"/><path class="cls-56" d="M876.88,112.68h0c.14-.2.35-.46.52-.66l1.7-2h1.27l-2.24,2.39,2.55,3.42h-1.28l-2-2.78-.54.6v2.18h-1v-8.52h1Z"/><path class="cls-56" d="M886.46,110c0,.42,0,.89,0,1.6V115a3.34,3.34,0,0,1-.83,2.65,3.08,3.08,0,0,1-2.11.7,3.75,3.75,0,0,1-1.93-.48l.26-.8a3.27,3.27,0,0,0,1.7.46c1.08,0,1.87-.56,1.87-2v-.65h0a2.07,2.07,0,0,1-1.85,1A2.6,2.6,0,0,1,881,113a2.79,2.79,0,0,1,2.62-3.08,1.93,1.93,0,0,1,1.81,1h0l0-.88Zm-1.09,2.29a1.5,1.5,0,0,0-.06-.48,1.52,1.52,0,0,0-1.48-1.12c-1,0-1.73.85-1.73,2.19,0,1.14.58,2.09,1.72,2.09a1.54,1.54,0,0,0,1.46-1.08,1.85,1.85,0,0,0,.08-.56Z"/><path class="cls-56" d="M757.48,136.63a12.09,12.09,0,0,1,2-.16,3.32,3.32,0,0,1,2.27.67,2.17,2.17,0,0,1,.71,1.69,2.38,2.38,0,0,1-.62,1.73,3.35,3.35,0,0,1-2.47.89,3.58,3.58,0,0,1-.84-.07v3.24h-1Zm1,3.9a3.49,3.49,0,0,0,.86.08c1.26,0,2-.61,2-1.73s-.75-1.58-1.91-1.58a4.38,4.38,0,0,0-1,.08Z"/><path class="cls-56" d="M764.16,142.08l-.84,2.54h-1.08l2.75-8.08h1.26l2.76,8.08h-1.12l-.86-2.54Zm2.65-.82-.79-2.33c-.18-.53-.3-1-.42-1.48h0c-.12.48-.25,1-.41,1.46l-.79,2.34Z"/><path class="cls-56" d="M770.2,136.54h1v7.21h3.45v.88h-4.5Z"/><path class="cls-56" d="M776.34,137.43h-2.46v-.89h6v.89h-2.47v7.2h-1.05Z"/><path class="cls-56" d="M781.18,142.08l-.84,2.54h-1.08l2.75-8.08h1.26l2.76,8.08h-1.12l-.86-2.54Zm2.65-.82-.79-2.33c-.18-.53-.3-1-.42-1.48h0c-.12.48-.25,1-.41,1.46l-.79,2.34Z"/><path class="cls-56" d="M854.29,137.81h0l-1.36.73-.2-.8,1.7-.91h.9v7.8h-1Z"/><path class="cls-56" d="M863.34,140.64c0,2.65-1,4.11-2.71,4.11-1.52,0-2.55-1.43-2.58-4s1.13-4.05,2.71-4.05S863.34,138.16,863.34,140.64Zm-4.23.12c0,2,.62,3.18,1.58,3.18s1.6-1.26,1.6-3.25-.49-3.18-1.58-3.18C859.78,137.51,859.1,138.64,859.1,140.76Z"/><path class="cls-56" d="M868.24,141.48h0c.14-.2.35-.46.52-.66l1.7-2h1.27l-2.24,2.39,2.55,3.42h-1.28l-2-2.78-.54.6v2.18h-1v-8.52h1Z"/><path class="cls-56" d="M877.82,138.82c0,.42,0,.89,0,1.6v3.37a3.34,3.34,0,0,1-.83,2.65,3.08,3.08,0,0,1-2.11.7,3.75,3.75,0,0,1-1.93-.48l.26-.8a3.27,3.27,0,0,0,1.7.46c1.08,0,1.87-.56,1.87-2v-.65h0a2.07,2.07,0,0,1-1.85,1,2.6,2.6,0,0,1-2.47-2.83,2.79,2.79,0,0,1,2.62-3.08,1.93,1.93,0,0,1,1.81,1h0l0-.88Zm-1.09,2.29a1.5,1.5,0,0,0-.06-.48,1.52,1.52,0,0,0-1.48-1.12c-1,0-1.73.85-1.73,2.19,0,1.14.58,2.09,1.72,2.09a1.54,1.54,0,0,0,1.46-1.08,1.85,1.85,0,0,0,.08-.56Z"/><path class="cls-56" d="M759,166.23h-2.46v-.89h6v.89h-2.47v7.2H759Z"/><path class="cls-56" d="M770,169.3c0,2.78-1.69,4.26-3.75,4.26s-3.63-1.65-3.63-4.1,1.6-4.25,3.75-4.25S770,166.9,770,169.3Zm-6.27.13c0,1.73.93,3.27,2.58,3.27s2.59-1.52,2.59-3.36c0-1.61-.84-3.29-2.58-3.29S763.75,167.65,763.75,169.43Z"/><path class="cls-56" d="M778.2,169.87c-.06-1.13-.13-2.48-.12-3.49h0c-.28.95-.61,2-1,3.07l-1.43,3.92h-.79l-1.31-3.85c-.38-1.14-.71-2.18-.94-3.14h0c0,1-.08,2.36-.16,3.57l-.22,3.47h-1l.56-8.08h1.33l1.38,3.91c.34,1,.61,1.88.82,2.72h0c.2-.82.49-1.7.85-2.72l1.44-3.91h1.33l.5,8.08h-1Z"/><path class="cls-56" d="M782.22,170.88l-.84,2.54H780.3l2.75-8.08h1.26l2.76,8.08H786l-.86-2.54Zm2.65-.82-.79-2.33c-.18-.53-.3-1-.42-1.48h0c-.12.48-.25,1-.41,1.46l-.79,2.34Z"/><path class="cls-56" d="M788.87,166.23h-2.46v-.89h6v.89h-2.47v7.2h-1.05Z"/><path class="cls-56" d="M797.48,169.63h-3.14v2.91h3.5v.88H793.3v-8.08h4.37v.88h-3.32v2.55h3.14Z"/><path class="cls-56" d="M854.29,166.61h0l-1.36.73-.2-.8,1.7-.91h.9v7.8h-1Z"/><path class="cls-56" d="M858.16,173.42v-.65l.83-.8c2-1.9,2.89-2.9,2.9-4.08a1.39,1.39,0,0,0-1.55-1.52,2.66,2.66,0,0,0-1.66.66l-.34-.74a3.42,3.42,0,0,1,2.21-.79,2.19,2.19,0,0,1,2.39,2.27c0,1.44-1,2.6-2.69,4.19l-.62.58v0h3.5v.88Z"/><path class="cls-56" d="M868.24,170.28h0c.14-.2.35-.46.52-.66l1.7-2h1.27L869.51,170l2.55,3.42h-1.28l-2-2.78-.54.6v2.18h-1v-8.52h1Z"/><path class="cls-56" d="M877.82,167.62c0,.42,0,.89,0,1.6v3.37a3.34,3.34,0,0,1-.83,2.65,3.08,3.08,0,0,1-2.11.7,3.75,3.75,0,0,1-1.93-.48l.26-.8a3.27,3.27,0,0,0,1.7.46c1.08,0,1.87-.56,1.87-2v-.65h0a2.07,2.07,0,0,1-1.85,1,2.6,2.6,0,0,1-2.47-2.83,2.79,2.79,0,0,1,2.62-3.08,1.93,1.93,0,0,1,1.81,1h0l0-.88Zm-1.09,2.29a1.5,1.5,0,0,0-.06-.48,1.52,1.52,0,0,0-1.48-1.12c-1,0-1.73.85-1.73,2.19,0,1.14.58,2.09,1.72,2.09a1.54,1.54,0,0,0,1.46-1.08,1.85,1.85,0,0,0,.08-.56Z"/><path class="cls-56" d="M764.15,203.41c-1.09-.29-2.16-.61-3.09-.94a1.55,1.55,0,0,0-.49-.12c-1.92-.07-3.56-1.49-3.56-4.09s1.58-4.26,3.77-4.26,3.62,1.7,3.62,4.09c0,2.07-1,3.41-2.3,3.87v0c.8.2,1.68.4,2.36.52Zm-.86-5.27c0-1.62-.84-3.29-2.55-3.29s-2.63,1.63-2.61,3.38.94,3.26,2.57,3.26S763.28,200,763.28,198.14Z"/><path class="cls-56" d="M766.79,194.14v4.79c0,1.81.8,2.58,1.88,2.58s2-.79,2-2.58v-4.79h1.06v4.71c0,2.48-1.31,3.5-3.06,3.5s-2.9-.95-2.9-3.45v-4.76Z"/><path class="cls-56" d="M777.69,198.43h-3.14v2.91h3.5v.88h-4.54v-8.08h4.37V195h-3.32v2.55h3.14Z"/><path class="cls-56" d="M779.27,201a3.7,3.7,0,0,0,1.87.53c1.07,0,1.69-.56,1.69-1.38s-.43-1.19-1.52-1.61c-1.32-.47-2.13-1.15-2.13-2.29a2.33,2.33,0,0,1,2.61-2.19,3.68,3.68,0,0,1,1.79.4l-.29.85a3.22,3.22,0,0,0-1.54-.38c-1.1,0-1.52.66-1.52,1.21,0,.76.49,1.13,1.61,1.56,1.37.53,2.06,1.19,2.06,2.38s-.92,2.33-2.83,2.33a4.17,4.17,0,0,1-2.06-.52Z"/><path class="cls-56" d="M792.24,198.1c0,2.78-1.69,4.26-3.75,4.26s-3.63-1.65-3.63-4.1,1.59-4.25,3.75-4.25S792.24,195.7,792.24,198.1Zm-6.27.13c0,1.73.94,3.27,2.58,3.27s2.59-1.52,2.59-3.36c0-1.61-.84-3.29-2.58-3.29S786,196.45,786,198.23Z"/><path class="cls-56" d="M855.26,202.22V200.1h-3.62v-.7l3.48-5h1.14v4.85h1.09v.83h-1.09v2.12Zm0-3v-2.6q0-.61,0-1.22h0c-.24.46-.43.79-.65,1.15l-1.91,2.65v0Z"/><path class="cls-56" d="M862.81,195.31h-3l-.3,2a4.17,4.17,0,0,1,.64,0,3.3,3.3,0,0,1,1.68.42,2.22,2.22,0,0,1,1.12,2,2.7,2.7,0,0,1-2.9,2.66,3.82,3.82,0,0,1-1.94-.48l.26-.8a3.49,3.49,0,0,0,1.67.43,1.72,1.72,0,0,0,1.85-1.69c0-1-.68-1.73-2.24-1.73a8,8,0,0,0-1.08.08l.5-3.74h3.73Z"/><path class="cls-56" d="M865.69,199.08h0c.14-.2.35-.46.52-.66l1.7-2h1.27L867,198.8l2.55,3.42h-1.28l-2-2.78-.54.6v2.18h-1v-8.52h1Z"/><path class="cls-56" d="M875.28,196.42c0,.42,0,.89,0,1.6v3.37a3.34,3.34,0,0,1-.83,2.65,3.08,3.08,0,0,1-2.11.7,3.75,3.75,0,0,1-1.93-.48l.26-.8a3.27,3.27,0,0,0,1.7.46c1.08,0,1.87-.56,1.87-2v-.65h0a2.07,2.07,0,0,1-1.85,1,2.6,2.6,0,0,1-2.47-2.83,2.79,2.79,0,0,1,2.62-3.08,1.93,1.93,0,0,1,1.81,1h0l0-.88Zm-1.09,2.29a1.5,1.5,0,0,0-.06-.48,1.52,1.52,0,0,0-1.48-1.12c-1,0-1.73.85-1.73,2.19,0,1.14.58,2.09,1.72,2.09a1.54,1.54,0,0,0,1.46-1.08,1.85,1.85,0,0,0,.08-.56Z"/><path class="cls-56" d="M763.13,230.76a5.19,5.19,0,0,1-2.13.38,3.78,3.78,0,0,1-4-4.09,4,4,0,0,1,4.22-4.25,4.32,4.32,0,0,1,1.92.36l-.25.85a3.79,3.79,0,0,0-1.63-.34A3,3,0,0,0,758.1,227a2.94,2.94,0,0,0,3.11,3.25,4.17,4.17,0,0,0,1.7-.34Z"/><path class="cls-56" d="M765.48,222.94v3.38h3.91v-3.38h1.06V231h-1.06v-3.79h-3.91V231h-1v-8.08Z"/><path class="cls-56" d="M773.3,222.94v4.79c0,1.81.8,2.58,1.88,2.58s2-.79,2-2.58v-4.79h1.06v4.71c0,2.48-1.31,3.5-3.06,3.5s-2.9-.95-2.9-3.45v-4.76Z"/><path class="cls-56" d="M780,222.94h1v7.21h3.45V231H780Z"/><path class="cls-56" d="M789.87,227.23h-3.14v2.91h3.5V231h-4.55v-8.08h4.37v.88h-3.32v2.55h3.14Z"/><path class="cls-56" d="M793.32,223.83h-2.46v-.89h6v.89h-2.47V231h-1.06Z"/><path class="cls-56" d="M798.15,228.48l-.84,2.54h-1.08l2.75-8.08h1.26L803,231h-1.12l-.86-2.54Zm2.65-.82-.79-2.33c-.18-.53-.3-1-.42-1.47h0c-.12.48-.25,1-.41,1.46l-.79,2.34Z"/><path class="cls-56" d="M856.6,224a3.78,3.78,0,0,0-.79,0,3.17,3.17,0,0,0-2.71,2.77h0a2.38,2.38,0,0,1,4.23,1.62,2.61,2.61,0,0,1-2.59,2.75c-1.67,0-2.76-1.3-2.76-3.32a4.9,4.9,0,0,1,1.32-3.51,4.24,4.24,0,0,1,2.5-1.15,5,5,0,0,1,.77-.06Zm-.3,4.5a1.58,1.58,0,0,0-1.61-1.79,1.74,1.74,0,0,0-1.51,1,.9.9,0,0,0-.12.47c0,1.28.61,2.23,1.71,2.23C855.69,230.34,856.3,229.58,856.3,228.47Z"/><path class="cls-56" d="M858.56,229.81a3.52,3.52,0,0,0,1.73.49c1.36,0,1.78-.86,1.76-1.51,0-1.09-1-1.56-2-1.56h-.59v-.79H860c.77,0,1.74-.4,1.74-1.32,0-.62-.4-1.17-1.37-1.17a2.86,2.86,0,0,0-1.56.52l-.28-.77a3.71,3.71,0,0,1,2-.6c1.54,0,2.23.91,2.23,1.86a1.94,1.94,0,0,1-1.44,1.83v0a2,2,0,0,1,1.74,2c0,1.25-1,2.34-2.84,2.34a4,4,0,0,1-2-.53Z"/><path class="cls-56" d="M872.2,229.44c0,.6,0,1.13,0,1.58h-.94l-.06-.95h0a2.18,2.18,0,0,1-1.92,1.08c-.91,0-2-.5-2-2.54v-3.39h1.06v3.21c0,1.1.34,1.85,1.3,1.85a1.48,1.48,0,0,0,1.49-1.5v-3.56h1.06Z"/><path class="cls-56" d="M874,226.79c0-.6,0-1.09,0-1.57h.94l.06,1h0a2.13,2.13,0,0,1,1.92-1.09c.8,0,2.05.48,2.05,2.47V231h-1.06v-3.35c0-.94-.35-1.71-1.34-1.71a1.5,1.5,0,0,0-1.42,1.08,1.53,1.53,0,0,0-.07.49V231H874Z"/><path class="cls-56" d="M757.48,251.85a10.06,10.06,0,0,1,1.91-.17,3.34,3.34,0,0,1,2.22.59,1.69,1.69,0,0,1,.67,1.43,1.92,1.92,0,0,1-1.37,1.78v0a2.08,2.08,0,0,1,1.67,2,2.18,2.18,0,0,1-.68,1.62,4.06,4.06,0,0,1-2.79.75,12.23,12.23,0,0,1-1.62-.1Zm1,3.31h.95c1.1,0,1.75-.58,1.75-1.35,0-.95-.72-1.32-1.78-1.32a4.47,4.47,0,0,0-.92.07Zm0,3.87a5.54,5.54,0,0,0,.88,0c1.08,0,2.08-.4,2.08-1.57s-.95-1.56-2.09-1.56h-.86Z"/><path class="cls-56" d="M765.29,257.28l-.84,2.54h-1.08l2.75-8.08h1.26l2.76,8.08H769l-.86-2.54Zm2.65-.82-.79-2.33c-.18-.53-.3-1-.42-1.47h0c-.12.48-.25,1-.41,1.46l-.79,2.34Z"/><path class="cls-56" d="M771.32,251.85a10.83,10.83,0,0,1,2-.17,3.31,3.31,0,0,1,2.34.66,2,2,0,0,1,.64,1.54,2.12,2.12,0,0,1-1.52,2.06v0A2,2,0,0,1,776,257.6a12.86,12.86,0,0,0,.62,2.22h-1.08a10.49,10.49,0,0,1-.54-1.93c-.24-1.12-.67-1.54-1.62-1.57h-1v3.5h-1Zm1,3.68h1.07c1.12,0,1.82-.61,1.82-1.54s-.75-1.5-1.86-1.51a4.3,4.3,0,0,0-1,.1Z"/><path class="cls-56" d="M777.78,251.85a10.83,10.83,0,0,1,2-.17,3.31,3.31,0,0,1,2.34.66,2,2,0,0,1,.64,1.54,2.12,2.12,0,0,1-1.52,2.06v0a2,2,0,0,1,1.19,1.63,12.86,12.86,0,0,0,.62,2.22H782a10.49,10.49,0,0,1-.54-1.93c-.24-1.12-.67-1.54-1.62-1.57h-1v3.5h-1Zm1,3.68h1.07c1.12,0,1.82-.61,1.82-1.54s-.75-1.5-1.86-1.51a4.3,4.3,0,0,0-1,.1Z"/><path class="cls-56" d="M785.28,251.74v8.08h-1v-8.08Z"/><path class="cls-56" d="M787.1,251.74h1v7.21h3.45v.88h-4.5Z"/><path class="cls-56" d="M801,259.56a5.19,5.19,0,0,1-2.13.38,3.78,3.78,0,0,1-4-4.09,4,4,0,0,1,4.22-4.25A4.32,4.32,0,0,1,801,252l-.25.85a3.79,3.79,0,0,0-1.63-.34,3,3,0,0,0-3.15,3.33,2.94,2.94,0,0,0,3.11,3.25,4.17,4.17,0,0,0,1.7-.34Z"/><path class="cls-56" d="M806.46,256h-3.14v2.91h3.5v.88h-4.55v-8.08h4.37v.88h-3.32v2.55h3.14Z"/><path class="cls-56" d="M808.18,251.85a10.82,10.82,0,0,1,2-.17,3.31,3.31,0,0,1,2.34.66,2,2,0,0,1,.64,1.54,2.12,2.12,0,0,1-1.52,2.06v0a2,2,0,0,1,1.19,1.63,13,13,0,0,0,.62,2.22h-1.08a10.46,10.46,0,0,1-.54-1.93c-.24-1.12-.67-1.54-1.62-1.57h-1v3.5h-1Zm1,3.68h1.07c1.12,0,1.82-.61,1.82-1.54s-.76-1.5-1.86-1.51a4.3,4.3,0,0,0-1,.1Z"/><path class="cls-56" d="M816.6,259.82,814,251.74h1.13l1.26,4c.35,1.09.65,2.07.86,3h0c.23-.93.56-2,.92-3l1.37-4h1.12l-2.89,8.08Z"/><path class="cls-56" d="M825.71,256h-3.14v2.91h3.5v.88h-4.54v-8.08h4.37v.88h-3.32v2.55h3.14Z"/><path class="cls-56" d="M826.87,259.21l4.49-6.56v0h-4.1v-.88h5.46v.64l-4.46,6.54v0h4.52v.88h-5.9Z"/><path class="cls-56" d="M835.37,257.28l-.84,2.54h-1.08l2.75-8.08h1.26l2.76,8.08H839.1l-.86-2.54Zm2.65-.82-.79-2.33c-.18-.53-.3-1-.42-1.47h0c-.12.48-.25,1-.41,1.46l-.79,2.34Z"/><path class="cls-56" d="M855.86,252.91h-3l-.3,2a4.11,4.11,0,0,1,.64,0,3.31,3.31,0,0,1,1.68.42,2.22,2.22,0,0,1,1.12,2,2.71,2.71,0,0,1-2.9,2.66,3.83,3.83,0,0,1-1.94-.48l.26-.8a3.5,3.5,0,0,0,1.67.43,1.72,1.72,0,0,0,1.85-1.69c0-1-.68-1.73-2.24-1.73a8,8,0,0,0-1.08.08l.5-3.74h3.73Z"/><path class="cls-56" d="M860.63,259.82V257.7H857V257l3.48-5h1.14v4.85h1.09v.83h-1.09v2.12Zm0-3v-2.6q0-.61,0-1.22h0c-.24.46-.43.79-.65,1.15l-1.91,2.65v0Z"/><path class="cls-56" d="M866.4,251.31h1.06v8.52H866.4Z"/><path class="cls-56" d="M870.5,252.35V254H872v.8H870.5V258c0,.72.2,1.13.79,1.13a2.4,2.4,0,0,0,.61-.07l0,.79a2.58,2.58,0,0,1-.94.14,1.46,1.46,0,0,1-1.14-.44,2.15,2.15,0,0,1-.41-1.51v-3.17h-.9V254h.9v-1.39Z"/><path class="cls-56" d="M873.06,258.74a2.77,2.77,0,0,0,1.39.42c.77,0,1.13-.38,1.13-.86s-.3-.78-1.08-1.07c-1-.37-1.54-.95-1.54-1.64a1.79,1.79,0,0,1,2-1.7,2.9,2.9,0,0,1,1.43.36l-.26.77a2.26,2.26,0,0,0-1.19-.34c-.62,0-1,.36-1,.79s.35.7,1.1,1c1,.38,1.52.89,1.52,1.75,0,1-.79,1.74-2.17,1.74a3.31,3.31,0,0,1-1.63-.4Z"/><path class="cls-56" d="M829.19,288a.71.71,0,0,1,.72-.75.76.76,0,1,1-.72.75Z"/><path class="cls-56" d="M829.19,302.4a.71.71,0,0,1,.72-.75.76.76,0,1,1-.72.75Z"/><path class="cls-56" d="M829.19,316.8a.71.71,0,0,1,.72-.75.76.76,0,0,1,0,1.51A.71.71,0,0,1,829.19,316.8Z"/></g></g></svg>