<svg xmlns="http://www.w3.org/2000/svg" viewBox="0 0 575.18 502.69"><defs><style>.cls-1,.cls-18,.cls-2{fill:#ededed;}.cls-10,.cls-18,.cls-2,.cls-3,.cls-4,.cls-5{stroke:#ededed;}.cls-10,.cls-11,.cls-12,.cls-13,.cls-14,.cls-15,.cls-16,.cls-17,.cls-18,.cls-2,.cls-3,.cls-4,.cls-5{stroke-miterlimit:10;}.cls-2{stroke-width:0.89px;}.cls-10,.cls-11,.cls-12,.cls-13,.cls-14,.cls-15,.cls-16,.cls-17,.cls-3,.cls-4,.cls-5{fill:none;}.cls-15,.cls-16,.cls-17,.cls-3{stroke-width:3px;}.cls-4{stroke-width:2.68px;}.cls-5{stroke-width:3.41px;}.cls-6{fill:#209191;}.cls-7{fill:#d61e1a;}.cls-8{fill:#e5ac0e;}.cls-9{fill:#d61c18;}.cls-10,.cls-11,.cls-12,.cls-13,.cls-14{stroke-width:15px;}.cls-11{stroke:#1d1d1b;opacity:0;}.cls-12,.cls-17{stroke:#e5ac0e;}.cls-13,.cls-16{stroke:#d61e1a;}.cls-14,.cls-15{stroke:#209191;}.cls-18{stroke-width:1.23px;}.cls-19{fill:#1d1d1b;}.cls-20{fill:#fff;}.cls-21{fill:#9cc651;}.cls-22{fill:#df9b2d;}.cls-23{fill:#f4de3e;}.cls-24{fill:#ea5730;}.cls-25{fill:#9a371a;}.cls-26{fill:#40732e;}.cls-27{fill:#a7ce88;}.cls-28{fill:#c7dfb3;}.cls-29{fill:#662114;}.cls-30{fill:#7d3325;}.cls-31{fill:#cf5038;}.cls-32{fill:#ec644c;}.cls-33{fill:#ebca6e;}.cls-34{fill:#ffe082;}.cls-35{fill:#fcc010;}.cls-36{fill:#fed068;}.cls-37{fill:#daa561;}.cls-38{fill:#f2d383;}.cls-39{fill:#b3874e;}.cls-40{fill:#ea503f;}.cls-41{fill:#c34332;}.cls-42{fill:#d99e83;}.cls-43{fill:#f7bba6;}.cls-44{fill:#de2f45;}.cls-45{fill:#fecc50;}.cls-46{fill:#e0f0f0;}.cls-47{fill:#d51116;}.cls-48{fill:#3f2824;}.cls-49{fill:#e8451e;}.cls-50{fill:#f38f1c;}.cls-51{fill:#3c5fa9;}.cls-52{fill:#aed3b0;}.cls-53{fill:#9a4730;}.cls-54{fill:#d85b4b;}.cls-55{fill:#c74a41;}.cls-56{opacity:0.5;}</style></defs><title>ingredientes</title><g id="Capa_2" data-name="Capa 2"><g id="Capa_1-2" data-name="Capa 1"><rect class="cls-1" x="22" y="325.15" width="118.5" height="40.58" rx="5.41" ry="5.41"/><rect class="cls-1" x="403.7" y="375.75" width="72.39" height="20.11" rx="4.47" ry="4.47"/><rect class="cls-1" x="485.48" y="375.75" width="72.39" height="20.11" rx="4.47" ry="4.47"/><rect class="cls-1" x="321.92" y="375.75" width="72.39" height="20.11" rx="4.47" ry="4.47"/><rect class="cls-1" x="238.36" y="375.75" width="72.39" height="20.11" rx="4.47" ry="4.47"/><rect class="cls-2" x="158.81" y="375.75" width="72.39" height="20.11" rx="4.47" ry="4.47"/><line class="cls-3" x1="82" y1="383.69" x2="82" y2="364.19"/><polyline class="cls-4" points="132 348.27 439.9 348.27 439.9 375.75"/><line class="cls-4" x1="195.01" y1="348.27" x2="195.01" y2="375.75"/><line class="cls-4" x1="274.55" y1="348.27" x2="274.55" y2="375.75"/><line class="cls-4" x1="358.12" y1="348.27" x2="358.12" y2="375.75"/><line class="cls-5" x1="141.5" y1="443.19" x2="526.74" y2="443.19"/><rect class="cls-1" x="170.76" y="470.1" width="48.33" height="28.5" rx="5" ry="5"/><rect class="cls-1" x="253.42" y="470.1" width="48.33" height="28.5" rx="5" ry="5"/><rect class="cls-1" x="336.08" y="470.1" width="48.33" height="28.5" rx="5" ry="5"/><rect class="cls-1" x="416.84" y="470.1" width="48.33" height="28.5" rx="5" ry="5"/><rect class="cls-1" x="497.51" y="470.1" width="48.33" height="28.5" rx="5" ry="5"/><circle class="cls-6" cx="250.92" cy="35.92" r="35.92"/><circle class="cls-7" cx="250.92" cy="122.83" r="35.92"/><circle class="cls-8" cx="250.92" cy="209.74" r="35.92"/><circle class="cls-1" cx="160.92" cy="271.27" r="35.92"/><circle class="cls-8" cx="446.88" cy="253.9" r="41.35"/><circle class="cls-9" cx="533.83" cy="253.9" r="41.35"/><path class="cls-10" d="M92.75,214.67l-1.75,0a83.5,83.5,0,0,1,0-167"/><path class="cls-11" d="M95.76,214.55q-1.5.08-3,.12"/><path class="cls-12" d="M169.84,158.75a83.55,83.55,0,0,1-74.08,55.8"/><path class="cls-11" d="M170.77,155.94q-.44,1.41-.93,2.81"/><path class="cls-13" d="M170.34,105.08a84,84,0,0,1,.43,50.87"/><path class="cls-11" d="M169.35,102.25q.52,1.4,1,2.83"/><path class="cls-14" d="M95.77,47.82a83.55,83.55,0,0,1,73.58,54.42"/><path class="cls-11" d="M92.75,47.71q1.52,0,3,.12"/><path class="cls-10" d="M91,47.69l1.75,0"/><polyline class="cls-15" points="138.24 62.33 170.77 35.92 215 35.92"/><line class="cls-16" x1="176.62" y1="122.83" x2="215" y2="122.83"/><polyline class="cls-17" points="154.82 185.04 183 209.74 215 209.74"/><polyline class="cls-3" points="52.45 205.27 52.45 271.26 125 271.26"/><polygon class="cls-6" points="334.38 222.4 334.38 67.19 359.93 50.13 387 67.86 387 222.4 334.38 222.4"/><polygon class="cls-8" points="420.12 222.4 420.12 97.52 446.5 80.86 473.33 96.86 472.43 221.4 420.12 222.4"/><polygon class="cls-9" points="507.07 222.4 507.07 131.19 533.83 114.86 561 131.19 559.38 221.4 507.07 222.4"/><rect class="cls-1" x="427.39" y="22.41" width="147.68" height="49.12" rx="6.8" ry="6.8"/><circle class="cls-18" cx="93.26" cy="131.19" r="60.07"/><circle class="cls-6" cx="359.93" cy="253.9" r="41.35"/><circle class="cls-1" cx="82" cy="443.19" r="59.5"/><path class="cls-19" d="M185.81,382.31a12.38,12.38,0,0,1,1.94-.14,3.33,3.33,0,0,1,2.2.62,2,2,0,0,1,.69,1.56,2.14,2.14,0,0,1-.61,1.6,3.35,3.35,0,0,1-2.4.82,3.64,3.64,0,0,1-.81-.07v3h-1Zm1,3.6a3.6,3.6,0,0,0,.84.08c1.22,0,2-.56,2-1.59s-.73-1.46-1.85-1.46a4.41,4.41,0,0,0-1,.08Z"/><path class="cls-19" d="M192.29,387.34l-.81,2.35h-1l2.67-7.47h1.22l2.68,7.47h-1.08l-.84-2.35Zm2.57-.75-.77-2.15c-.17-.49-.29-.93-.41-1.36h0c-.12.44-.24.9-.4,1.35l-.77,2.16Z"/><path class="cls-19" d="M198.15,389.69v-7.47h1.11l2.52,3.78a20.83,20.83,0,0,1,1.41,2.43h0c-.09-1-.12-1.91-.12-3.07v-3.12h1v7.47h-1l-2.49-3.79a23.41,23.41,0,0,1-1.47-2.49h0c.06.94.08,1.84.08,3.08v3.19Z"/><path class="cls-19" d="M34,340.91v3.91h4.75v-3.91H40v9.35H38.76v-4.38H34v4.38H32.74v-9.35Z"/><path class="cls-19" d="M43.83,347.31l-1,2.94H41.5l3.34-9.35h1.53l3.35,9.35H48.36l-1-2.94Zm3.22-.94-1-2.69c-.22-.61-.36-1.17-.51-1.71h0c-.15.55-.31,1.12-.5,1.69l-1,2.7Z"/><path class="cls-19" d="M59.37,346.15c-.07-1.3-.16-2.87-.15-4h0c-.33,1.1-.74,2.26-1.24,3.55l-1.73,4.54h-1l-1.59-4.45c-.47-1.32-.86-2.52-1.14-3.63h0c0,1.17-.1,2.73-.19,4.13l-.26,4H50.83l.69-9.35h1.62l1.68,4.52c.41,1.15.74,2.18,1,3.15h0c.25-.94.6-2,1-3.15l1.75-4.52h1.62l.61,9.35H59.62Z"/><path class="cls-19" d="M62.81,341a12.85,12.85,0,0,1,2.32-.19,4.21,4.21,0,0,1,2.7.68,1.93,1.93,0,0,1,.82,1.65A2.24,2.24,0,0,1,67,345.22v0a2.42,2.42,0,0,1,1.2,4.22,5.11,5.11,0,0,1-3.4.87,15.74,15.74,0,0,1-2-.11Zm1.27,3.83h1.15c1.34,0,2.13-.67,2.13-1.57,0-1.1-.87-1.53-2.16-1.53a5.67,5.67,0,0,0-1.12.08Zm0,4.48a7.21,7.21,0,0,0,1.06.05c1.31,0,2.52-.46,2.52-1.82s-1.15-1.8-2.54-1.8h-1Z"/><path class="cls-19" d="M72,340.91v5.53c0,2.09,1,3,2.29,3s2.39-.92,2.39-3v-5.53h1.28v5.45c0,2.87-1.59,4-3.72,4s-3.53-1.1-3.53-4v-5.51Z"/><path class="cls-19" d="M80.13,341a13.84,13.84,0,0,1,2.43-.19,4.16,4.16,0,0,1,2.84.76,2.28,2.28,0,0,1,.77,1.78,2.47,2.47,0,0,1-1.85,2.39v0a2.35,2.35,0,0,1,1.44,1.89,14.28,14.28,0,0,0,.76,2.57H85.21a11.65,11.65,0,0,1-.66-2.23c-.29-1.29-.82-1.78-2-1.82H81.4v4H80.13Zm1.27,4.26h1.3c1.35,0,2.21-.71,2.21-1.78s-.92-1.73-2.26-1.75a5.47,5.47,0,0,0-1.25.11Z"/><path class="cls-19" d="M95.48,349.84a9.56,9.56,0,0,1-3,.51,5.2,5.2,0,0,1-3.67-1.23,4.68,4.68,0,0,1-1.37-3.48c0-2.79,2-4.83,5.32-4.83a6.34,6.34,0,0,1,2.45.43l-.31,1a5.31,5.31,0,0,0-2.17-.4c-2.39,0-3.95,1.42-3.95,3.76a3.51,3.51,0,0,0,3.79,3.77,4.32,4.32,0,0,0,1.69-.25v-2.79h-2v-1h3.23Z"/><path class="cls-19" d="M98.69,340.91v5.53c0,2.09,1,3,2.29,3s2.39-.92,2.39-3v-5.53h1.28v5.45c0,2.87-1.59,4-3.72,4s-3.53-1.1-3.53-4v-5.51Z"/><path class="cls-19" d="M111.93,345.87h-3.82v3.37h4.25v1h-5.52v-9.35h5.3v1h-4v3h3.82Z"/><path class="cls-19" d="M113.84,348.78a4.66,4.66,0,0,0,2.27.61c1.3,0,2.05-.65,2.05-1.59s-.52-1.37-1.85-1.86c-1.6-.54-2.59-1.33-2.59-2.65s1.27-2.54,3.18-2.54a4.64,4.64,0,0,1,2.17.46l-.35,1a4.07,4.07,0,0,0-1.87-.44c-1.34,0-1.85.76-1.85,1.4,0,.87.6,1.3,2,1.8,1.66.61,2.51,1.37,2.51,2.75s-1.12,2.69-3.44,2.69a5.28,5.28,0,0,1-2.51-.6Z"/><path class="cls-19" d="M122.78,347.31l-1,2.94h-1.31l3.34-9.35h1.53l3.35,9.35h-1.35l-1-2.94Zm3.22-.94-1-2.69c-.22-.61-.36-1.17-.51-1.71h0c-.15.55-.31,1.12-.5,1.69l-1,2.7Z"/><path class="cls-19" d="M463.93,35.9v8h-1.09v-8Z"/><path class="cls-19" d="M465.83,43.92v-8H467l2.7,4.06a22.47,22.47,0,0,1,1.51,2.61h0c-.1-1.07-.12-2-.12-3.3V35.9h1v8h-1.1l-2.67-4.07a25.17,25.17,0,0,1-1.57-2.68h0c.06,1,.09,2,.09,3.31v3.43Z"/><path class="cls-19" d="M480.47,43.56a8.2,8.2,0,0,1-2.59.44,4.46,4.46,0,0,1-3.15-1.06,4,4,0,0,1-1.17-3c0-2.39,1.74-4.14,4.56-4.14a5.43,5.43,0,0,1,2.1.37L480,37a4.56,4.56,0,0,0-1.86-.35,3.08,3.08,0,0,0-3.39,3.23A3,3,0,0,0,478,43.15a3.7,3.7,0,0,0,1.45-.21V40.54h-1.71v-.83h2.77Z"/><path class="cls-19" d="M482.13,36a11.84,11.84,0,0,1,2.09-.17,3.56,3.56,0,0,1,2.44.65,2,2,0,0,1,.66,1.52,2.12,2.12,0,0,1-1.59,2v0A2,2,0,0,1,487,41.72a12.29,12.29,0,0,0,.65,2.2H486.5a10,10,0,0,1-.56-1.92c-.25-1.11-.7-1.52-1.69-1.56h-1v3.48h-1.09Zm1.09,3.65h1.11c1.16,0,1.9-.61,1.9-1.52s-.79-1.49-1.94-1.5a4.71,4.71,0,0,0-1.07.09Z"/><path class="cls-19" d="M493.22,40.16h-3.27v2.89h3.65v.87h-4.74v-8h4.55v.87h-3.46V39.3h3.27Z"/><path class="cls-19" d="M495,36a16.32,16.32,0,0,1,2.31-.17,5,5,0,0,1,3.41,1,3.61,3.61,0,0,1,1.19,2.88,4.13,4.13,0,0,1-1.21,3.12A5.36,5.36,0,0,1,497,44a18.39,18.39,0,0,1-2-.1Zm1.09,7.09a7.17,7.17,0,0,0,1.1.06c2.32,0,3.59-1.24,3.59-3.4,0-1.89-1.11-3.09-3.41-3.09a6.46,6.46,0,0,0-1.27.11Z"/><path class="cls-19" d="M504.42,35.9v8h-1.09v-8Z"/><path class="cls-19" d="M510.69,40.16h-3.27v2.89h3.65v.87h-4.74v-8h4.55v.87h-3.46V39.3h3.27Z"/><path class="cls-19" d="M512.47,43.92v-8h1.19l2.7,4.06a22.47,22.47,0,0,1,1.51,2.61h0c-.1-1.07-.12-2-.12-3.3V35.9h1v8h-1.1L515,39.85a25.17,25.17,0,0,1-1.57-2.68h0c.06,1,.09,2,.09,3.31v3.43Z"/><path class="cls-19" d="M522.3,36.78h-2.56V35.9H526v.88H523.4v7.14h-1.1Z"/><path class="cls-19" d="M531.27,40.16H528v2.89h3.65v.87h-4.74v-8h4.55v.87H528V39.3h3.27Z"/><path class="cls-19" d="M532.91,42.66a4,4,0,0,0,1.95.52c1.11,0,1.76-.56,1.76-1.37s-.45-1.18-1.59-1.6c-1.37-.46-2.22-1.14-2.22-2.27s1.09-2.18,2.72-2.18a4,4,0,0,1,1.86.39l-.3.85a3.49,3.49,0,0,0-1.6-.38c-1.15,0-1.59.65-1.59,1.2,0,.75.51,1.12,1.67,1.55,1.42.52,2.15,1.18,2.15,2.36s-1,2.31-2.95,2.31a4.53,4.53,0,0,1-2.15-.51Z"/><path class="cls-19" d="M459.34,54.67c-.06-1.12-.14-2.46-.12-3.46h0c-.29.94-.64,1.94-1.06,3l-1.49,3.89h-.82l-1.36-3.82c-.4-1.13-.74-2.17-1-3.12h0c0,1-.09,2.34-.16,3.55l-.23,3.44h-1l.59-8H454l1.44,3.88c.35,1,.64,1.87.85,2.7h0c.21-.81.51-1.69.89-2.7l1.5-3.88h1.39l.52,8h-1.06Z"/><path class="cls-19" d="M463.53,55.67l-.87,2.52h-1.12l2.86-8h1.31l2.87,8h-1.16l-.9-2.52Zm2.76-.81-.83-2.31c-.19-.52-.31-1-.44-1.46h0c-.12.48-.26,1-.42,1.45l-.82,2.32Zm.6-6.51-1.59,1.39h-.9l1.16-1.39Z"/><path class="cls-19" d="M469.67,56.94a4,4,0,0,0,1.95.52c1.11,0,1.76-.56,1.76-1.37s-.45-1.18-1.59-1.6c-1.37-.46-2.22-1.14-2.22-2.27S470.66,50,472.29,50a4,4,0,0,1,1.86.39l-.3.85a3.49,3.49,0,0,0-1.6-.38c-1.15,0-1.59.65-1.59,1.2,0,.75.51,1.12,1.67,1.55,1.42.52,2.15,1.18,2.15,2.36s-1,2.31-2.95,2.31a4.53,4.53,0,0,1-2.15-.51Z"/><path class="cls-19" d="M484.52,57.94a5.64,5.64,0,0,1-2.22.38,3.84,3.84,0,0,1-4.16-4.06,4.09,4.09,0,0,1,4.4-4.21,4.72,4.72,0,0,1,2,.36l-.26.85a4.13,4.13,0,0,0-1.7-.33,3.05,3.05,0,0,0-3.29,3.31,3,3,0,0,0,3.24,3.23,4.55,4.55,0,0,0,1.78-.33Z"/><path class="cls-19" d="M492.82,54.1c0,2.76-1.76,4.23-3.91,4.23a3.75,3.75,0,0,1-3.79-4.07A3.89,3.89,0,0,1,489,50,3.73,3.73,0,0,1,492.82,54.1Zm-6.54.13c0,1.71,1,3.25,2.69,3.25s2.7-1.51,2.7-3.33c0-1.6-.87-3.26-2.69-3.26S486.28,52.47,486.28,54.23Z"/><path class="cls-19" d="M494.24,58.2v-8h1.19l2.7,4.06a22.47,22.47,0,0,1,1.51,2.61h0c-.1-1.07-.12-2-.12-3.3V50.18h1v8h-1.1l-2.67-4.07a25.17,25.17,0,0,1-1.57-2.68h0c.06,1,.09,2,.09,3.31V58.2Z"/><path class="cls-19" d="M502.31,56.94a4,4,0,0,0,1.95.52c1.11,0,1.76-.56,1.76-1.37s-.45-1.18-1.59-1.6c-1.37-.46-2.22-1.14-2.22-2.27S503.3,50,504.93,50a4,4,0,0,1,1.86.39l-.3.85a3.49,3.49,0,0,0-1.6-.38c-1.15,0-1.59.65-1.59,1.2,0,.75.51,1.12,1.67,1.55,1.42.52,2.15,1.18,2.15,2.36s-1,2.31-2.95,2.31A4.53,4.53,0,0,1,502,57.8Z"/><path class="cls-19" d="M509.71,50.18v4.75c0,1.8.84,2.56,2,2.56s2-.79,2-2.56V50.18h1.1v4.68c0,2.46-1.36,3.48-3.19,3.48s-3-.94-3-3.43V50.18Z"/><path class="cls-19" d="M523.81,54.67c-.06-1.12-.14-2.46-.12-3.46h0c-.29.94-.64,1.94-1.06,3l-1.49,3.89h-.82l-1.36-3.82c-.4-1.13-.74-2.17-1-3.12h0c0,1-.09,2.34-.16,3.55l-.23,3.44h-1l.59-8h1.39l1.44,3.88c.35,1,.64,1.87.85,2.7h0c.21-.81.51-1.69.89-2.7l1.5-3.88h1.39l.52,8H524Z"/><path class="cls-19" d="M527.85,50.18v8h-1.09v-8Z"/><path class="cls-19" d="M529.75,50.28a16.32,16.32,0,0,1,2.31-.17,5,5,0,0,1,3.41,1A3.61,3.61,0,0,1,536.66,54a4.13,4.13,0,0,1-1.21,3.12,5.36,5.36,0,0,1-3.72,1.15,18.39,18.39,0,0,1-2-.1Zm1.09,7.09a7.17,7.17,0,0,0,1.1.06c2.32,0,3.59-1.24,3.59-3.4,0-1.89-1.11-3.09-3.41-3.09a6.46,6.46,0,0,0-1.27.11Z"/><path class="cls-19" d="M545.28,54.1c0,2.76-1.76,4.23-3.91,4.23a3.75,3.75,0,0,1-3.79-4.07A3.89,3.89,0,0,1,541.49,50,3.73,3.73,0,0,1,545.28,54.1Zm-6.54.13c0,1.71,1,3.25,2.69,3.25s2.7-1.51,2.7-3.33c0-1.6-.87-3.26-2.69-3.26S538.74,52.47,538.74,54.23Z"/><path class="cls-19" d="M546.54,56.94a4,4,0,0,0,1.95.52c1.11,0,1.76-.56,1.76-1.37s-.45-1.18-1.59-1.6c-1.37-.46-2.22-1.14-2.22-2.27S547.53,50,549.17,50a4,4,0,0,1,1.86.39l-.3.85a3.49,3.49,0,0,0-1.6-.38c-1.15,0-1.59.65-1.59,1.2,0,.75.51,1.12,1.67,1.55,1.42.52,2.15,1.18,2.15,2.36s-1,2.31-2.95,2.31a4.53,4.53,0,0,1-2.15-.51Z"/><path class="cls-20" d="M353.73,135.88v.9l-4.59,9.15h-1.48l4.58-8.89v0h-5.16v-1.13Z"/><path class="cls-20" d="M362.22,140.8c0,3.42-1.33,5.3-3.67,5.3-2.06,0-3.46-1.84-3.49-5.16s1.53-5.22,3.67-5.22S362.22,137.6,362.22,140.8Zm-5.73.15c0,2.61.84,4.1,2.14,4.1,1.46,0,2.16-1.62,2.16-4.19s-.67-4.1-2.14-4.1C357.4,136.77,356.49,138.22,356.49,141Z"/><path class="cls-20" d="M368.29,138.71c0,2.12-1.17,3.17-2.53,3.17s-2.45-1-2.47-3,1.15-3.14,2.55-3.14S368.29,136.8,368.29,138.71Zm-3.86.09c0,1.28.47,2.26,1.36,2.26s1.36-1,1.36-2.29-.37-2.24-1.36-2.24S364.43,137.54,364.43,138.81Zm1.23,7.3,6.2-10.39h.91l-6.2,10.39Zm9.5-3.23c0,2.12-1.17,3.17-2.52,3.17s-2.45-1-2.47-3,1.15-3.15,2.55-3.15S375.16,141,375.16,142.87Zm-3.86.09c0,1.28.5,2.26,1.38,2.26s1.36-1,1.36-2.29-.37-2.24-1.36-2.24S371.3,141.7,371.3,143Z"/><path class="cls-20" d="M440.92,159.72h-4l-.41,2.58a5.86,5.86,0,0,1,.86-.06,4.64,4.64,0,0,1,2.27.54,2.84,2.84,0,0,1,1.51,2.58c0,2-1.64,3.43-3.93,3.43a5.37,5.37,0,0,1-2.63-.62l.36-1a4.91,4.91,0,0,0,2.26.56,2.29,2.29,0,0,0,2.5-2.18c0-1.3-.93-2.23-3-2.23a11.46,11.46,0,0,0-1.46.11l.68-4.82h5Z"/><path class="cls-20" d="M450,163.49c0,3.42-1.33,5.3-3.67,5.3-2.06,0-3.46-1.84-3.49-5.16s1.53-5.22,3.67-5.22S450,160.3,450,163.49Zm-5.73.15c0,2.61.84,4.1,2.14,4.1,1.46,0,2.16-1.62,2.16-4.19s-.67-4.1-2.14-4.1C445.14,159.46,444.23,160.91,444.23,163.65Z"/><path class="cls-20" d="M456,161.41c0,2.12-1.17,3.17-2.53,3.17s-2.45-1-2.47-3,1.15-3.14,2.55-3.14S456,159.49,456,161.41Zm-3.86.09c0,1.28.47,2.26,1.36,2.26s1.36-1,1.36-2.29-.37-2.24-1.36-2.24S452.17,160.23,452.17,161.5Zm1.23,7.3,6.2-10.39h.91l-6.2,10.39Zm9.5-3.23c0,2.12-1.17,3.17-2.52,3.17s-2.45-1-2.47-3,1.15-3.15,2.55-3.15S462.9,163.65,462.9,165.57Zm-3.86.09c0,1.28.5,2.26,1.38,2.26s1.36-1,1.36-2.29-.37-2.24-1.36-2.24S459,164.39,459,165.66Z"/><path class="cls-20" d="M521.91,185.22a5,5,0,0,0,2.34.63c1.83,0,2.4-1.11,2.39-1.95,0-1.41-1.35-2-2.73-2h-.8v-1h.8c1,0,2.35-.51,2.35-1.7,0-.8-.54-1.51-1.85-1.51a4,4,0,0,0-2.11.66l-.37-1a5.2,5.2,0,0,1,2.76-.77c2.08,0,3,1.17,3,2.4a2.52,2.52,0,0,1-1.95,2.36v0a2.66,2.66,0,0,1,2.35,2.58c0,1.61-1.32,3-3.85,3a5.57,5.57,0,0,1-2.74-.68Z"/><path class="cls-20" d="M536.91,181.65c0,3.42-1.33,5.3-3.67,5.3-2.06,0-3.46-1.84-3.49-5.16s1.53-5.22,3.67-5.22S536.91,178.45,536.91,181.65Zm-5.73.15c0,2.61.84,4.1,2.14,4.1,1.46,0,2.16-1.62,2.16-4.19s-.67-4.1-2.14-4.1C532.09,177.62,531.18,179.07,531.18,181.81Z"/><path class="cls-20" d="M543,179.57c0,2.12-1.17,3.17-2.53,3.17s-2.45-1-2.47-3,1.15-3.14,2.55-3.14S543,177.65,543,179.57Zm-3.86.09c0,1.28.47,2.26,1.36,2.26s1.36-1,1.36-2.29-.37-2.24-1.36-2.24S539.12,178.39,539.12,179.66Zm1.23,7.3,6.2-10.39h.91L541.26,187Zm9.5-3.23c0,2.12-1.17,3.17-2.52,3.17s-2.45-1-2.47-3,1.15-3.15,2.55-3.15S549.85,181.81,549.85,183.72Zm-3.86.09c0,1.28.5,2.26,1.38,2.26s1.36-1,1.36-2.29-.37-2.24-1.36-2.24S546,182.55,546,183.82Z"/><path class="cls-19" d="M57.72,120.72a13.5,13.5,0,0,1,2.13-.16,3.66,3.66,0,0,1,2.41.68,2.15,2.15,0,0,1,.75,1.71,2.34,2.34,0,0,1-.66,1.75,3.67,3.67,0,0,1-2.63.9,4,4,0,0,1-.89-.07v3.28H57.72Zm1.11,3.94a3.92,3.92,0,0,0,.92.08c1.34,0,2.16-.62,2.16-1.75s-.8-1.6-2-1.6a4.91,4.91,0,0,0-1,.08Z"/><path class="cls-19" d="M64.51,120.73a12.12,12.12,0,0,1,2.13-.17,3.64,3.64,0,0,1,2.49.67,2,2,0,0,1,.68,1.55,2.16,2.16,0,0,1-1.62,2.09v0a2.05,2.05,0,0,1,1.26,1.65,12.58,12.58,0,0,0,.66,2.24H69a10.21,10.21,0,0,1-.57-2c-.26-1.13-.71-1.55-1.72-1.59h-1v3.54H64.51Zm1.11,3.72h1.14c1.19,0,1.94-.62,1.94-1.55s-.8-1.52-2-1.53a4.81,4.81,0,0,0-1.1.1Z"/><path class="cls-19" d="M78.75,124.62c0,2.81-1.8,4.31-4,4.31a3.83,3.83,0,0,1-3.87-4.15,4,4,0,0,1,4-4.29A3.8,3.8,0,0,1,78.75,124.62Zm-6.67.13c0,1.75,1,3.31,2.74,3.31s2.76-1.54,2.76-3.4c0-1.63-.89-3.32-2.74-3.32S72.08,123,72.08,124.76Z"/><path class="cls-19" d="M80.19,120.73a16.69,16.69,0,0,1,2.36-.17,5.09,5.09,0,0,1,3.48,1,3.67,3.67,0,0,1,1.21,2.94A4.21,4.21,0,0,1,86,127.69a5.47,5.47,0,0,1-3.8,1.18,18.73,18.73,0,0,1-2-.1ZM81.3,128a7.39,7.39,0,0,0,1.12.06c2.37,0,3.66-1.26,3.66-3.47,0-1.93-1.14-3.15-3.48-3.15a6.63,6.63,0,0,0-1.3.11Z"/><path class="cls-19" d="M89.79,120.62v4.84c0,1.83.85,2.61,2,2.61s2.09-.8,2.09-2.61v-4.84H95v4.77c0,2.51-1.39,3.54-3.25,3.54s-3.09-1-3.09-3.49v-4.82Z"/><path class="cls-19" d="M102.94,128.53a5.75,5.75,0,0,1-2.27.39,3.92,3.92,0,0,1-4.25-4.14,4.18,4.18,0,0,1,4.49-4.29,4.81,4.81,0,0,1,2,.36l-.27.86a4.22,4.22,0,0,0-1.73-.34,3.11,3.11,0,0,0-3.35,3.37,3,3,0,0,0,3.3,3.29,4.63,4.63,0,0,0,1.81-.34Z"/><path class="cls-19" d="M106.32,121.52H103.7v-.9h6.37v.9h-2.63v7.28h-1.12Z"/><path class="cls-19" d="M118,124.62c0,2.81-1.8,4.31-4,4.31a3.83,3.83,0,0,1-3.86-4.15,4,4,0,0,1,4-4.29A3.8,3.8,0,0,1,118,124.62Zm-6.67.13c0,1.75,1,3.31,2.74,3.31s2.76-1.54,2.76-3.4c0-1.63-.89-3.32-2.74-3.32S111.35,123,111.35,124.76Z"/><path class="cls-19" d="M119.31,127.51a4.09,4.09,0,0,0,2,.53c1.14,0,1.8-.57,1.8-1.4s-.46-1.2-1.62-1.63c-1.4-.47-2.27-1.16-2.27-2.32s1.11-2.22,2.78-2.22a4.07,4.07,0,0,1,1.9.4l-.31.86a3.56,3.56,0,0,0-1.63-.39c-1.17,0-1.62.67-1.62,1.23,0,.76.52,1.14,1.71,1.58,1.45.53,2.19,1.2,2.19,2.4s-1,2.35-3,2.35a4.63,4.63,0,0,1-2.19-.52Z"/><path class="cls-19" d="M59.56,139.77c-.06-1.14-.14-2.51-.13-3.53h0c-.29,1-.65,2-1.08,3.11l-1.52,4H56l-1.39-3.89c-.41-1.15-.75-2.21-1-3.18h0c0,1-.09,2.39-.17,3.61l-.23,3.51H52.09l.6-8.18H54.1l1.47,4c.36,1,.65,1.9.87,2.75h0c.22-.82.52-1.72.91-2.75l1.53-4h1.42l.54,8.18H59.78Z"/><path class="cls-19" d="M63.83,140.79l-.89,2.57H61.79l2.92-8.18h1.34L69,143.36H67.8l-.92-2.57Zm2.82-.82-.84-2.35c-.19-.53-.32-1-.45-1.49h0c-.13.49-.27,1-.43,1.48L64.06,140Zm.61-6.64-1.62,1.42h-.92l1.19-1.42Z"/><path class="cls-19" d="M70.09,142.07a4.09,4.09,0,0,0,2,.53c1.14,0,1.8-.57,1.8-1.4s-.46-1.2-1.62-1.63c-1.4-.47-2.27-1.16-2.27-2.32S71.1,135,72.77,135a4.07,4.07,0,0,1,1.9.4l-.31.86a3.56,3.56,0,0,0-1.63-.39c-1.17,0-1.62.67-1.62,1.23,0,.76.52,1.14,1.71,1.58,1.45.53,2.19,1.2,2.19,2.4s-1,2.35-3,2.35a4.63,4.63,0,0,1-2.19-.52Z"/><path class="cls-19" d="M80.66,143.36l-2.81-8.18h1.2l1.34,4c.37,1.1.69,2.1.92,3.06h0c.24-.95.6-2,1-3l1.45-4H85l-3.07,8.18Z"/><path class="cls-19" d="M90.34,139.52H87v2.95h3.73v.89H85.89v-8.18h4.64v.89H87v2.58h3.34Z"/><path class="cls-19" d="M92.16,143.36v-8.18h1.21l2.76,4.14A22.8,22.8,0,0,1,97.67,142h0c-.1-1.09-.13-2.09-.13-3.36v-3.42h1v8.18H97.49l-2.73-4.15a25.6,25.6,0,0,1-1.61-2.73h0c.06,1,.09,2,.09,3.37v3.49Z"/><path class="cls-19" d="M100.55,135.29a16.67,16.67,0,0,1,2.36-.17,5.09,5.09,0,0,1,3.48,1,3.67,3.67,0,0,1,1.21,2.94,4.21,4.21,0,0,1-1.24,3.18,5.47,5.47,0,0,1-3.8,1.18,18.72,18.72,0,0,1-2-.1Zm1.11,7.23a7.39,7.39,0,0,0,1.12.06c2.37,0,3.66-1.26,3.66-3.47,0-1.93-1.14-3.15-3.48-3.15a6.63,6.63,0,0,0-1.3.11Z"/><path class="cls-19" d="M110.15,135.18v8.18H109v-8.18Z"/><path class="cls-19" d="M112.09,135.29a16.67,16.67,0,0,1,2.36-.17,5.09,5.09,0,0,1,3.48,1,3.67,3.67,0,0,1,1.21,2.94,4.21,4.21,0,0,1-1.24,3.18,5.47,5.47,0,0,1-3.8,1.18,18.72,18.72,0,0,1-2-.1Zm1.11,7.23a7.39,7.39,0,0,0,1.12.06c2.37,0,3.66-1.26,3.66-3.47,0-1.93-1.14-3.15-3.48-3.15a6.63,6.63,0,0,0-1.3.11Z"/><path class="cls-19" d="M127.93,139.18c0,2.81-1.8,4.31-4,4.31a3.83,3.83,0,0,1-3.87-4.15,4,4,0,0,1,4-4.29A3.8,3.8,0,0,1,127.93,139.18Zm-6.67.13c0,1.75,1,3.31,2.74,3.31s2.76-1.54,2.76-3.4c0-1.63-.89-3.32-2.74-3.32S121.26,137.52,121.26,139.32Z"/><path class="cls-19" d="M129.21,142.07a4.09,4.09,0,0,0,2,.53c1.14,0,1.8-.57,1.8-1.4s-.46-1.2-1.62-1.63c-1.4-.47-2.27-1.16-2.27-2.32s1.11-2.22,2.78-2.22a4.07,4.07,0,0,1,1.9.4l-.31.86a3.56,3.56,0,0,0-1.63-.39c-1.17,0-1.62.67-1.62,1.23,0,.76.52,1.14,1.71,1.58,1.45.53,2.19,1.2,2.19,2.4s-1,2.35-3,2.35a4.63,4.63,0,0,1-2.19-.52Z"/><path class="cls-19" d="M264.21,389.44a5.24,5.24,0,0,1-2.07.35,3.58,3.58,0,0,1-3.88-3.78,3.81,3.81,0,0,1,4.1-3.92,4.39,4.39,0,0,1,1.86.33l-.24.79a3.86,3.86,0,0,0-1.58-.31,2.84,2.84,0,0,0-3.06,3.08,2.78,2.78,0,0,0,3,3,4.23,4.23,0,0,0,1.65-.31Z"/><path class="cls-19" d="M266.8,387.34l-.81,2.35h-1l2.67-7.47h1.22l2.68,7.47h-1.08l-.84-2.35Zm2.57-.75-.77-2.15c-.17-.49-.29-.93-.41-1.36h0c-.12.44-.24.9-.4,1.35l-.77,2.16Z"/><path class="cls-19" d="M272.65,382.32a11.09,11.09,0,0,1,1.94-.15,3.32,3.32,0,0,1,2.27.61,1.82,1.82,0,0,1,.62,1.42A2,2,0,0,1,276,386.1v0a1.87,1.87,0,0,1,1.15,1.51,11.4,11.4,0,0,0,.61,2h-1a9.29,9.29,0,0,1-.52-1.78c-.23-1-.65-1.42-1.57-1.45h-1v3.23h-1Zm1,3.4h1c1.08,0,1.77-.57,1.77-1.42s-.73-1.38-1.8-1.4a4.4,4.4,0,0,0-1,.09Z"/><path class="cls-19" d="M278.92,389.69v-7.47H280l2.52,3.78a20.83,20.83,0,0,1,1.41,2.43h0c-.09-1-.12-1.91-.12-3.07v-3.12h1v7.47h-1l-2.49-3.79a23.41,23.41,0,0,1-1.47-2.49h0c.06.94.08,1.84.08,3.08v3.19Z"/><path class="cls-19" d="M290.64,386.19h-3.05v2.69H291v.81h-4.41v-7.47h4.24V383h-3.22v2.36h3.05Z"/><path class="cls-19" d="M344.47,382.31a12.39,12.39,0,0,1,1.94-.14,3.33,3.33,0,0,1,2.2.62,2,2,0,0,1,.69,1.56,2.14,2.14,0,0,1-.61,1.6,3.35,3.35,0,0,1-2.4.82,3.64,3.64,0,0,1-.81-.07v3h-1Zm1,3.6a3.6,3.6,0,0,0,.84.08c1.22,0,2-.56,2-1.59s-.73-1.46-1.85-1.46a4.4,4.4,0,0,0-1,.08Z"/><path class="cls-19" d="M351,387.34l-.81,2.35h-1l2.67-7.47H353l2.68,7.47h-1.08l-.84-2.35Zm2.57-.75-.77-2.15c-.17-.49-.29-.93-.41-1.36h0c-.12.44-.24.9-.4,1.35l-.77,2.16Z"/><path class="cls-19" d="M356.81,382.22h1v6.66h3.35v.81h-4.37Z"/><path class="cls-19" d="M362.77,383h-2.39v-.82h5.81V383h-2.4v6.65h-1Z"/><path class="cls-19" d="M367.46,387.34l-.82,2.35h-1l2.67-7.47h1.22l2.68,7.47h-1.08l-.84-2.35Zm2.57-.75-.77-2.15c-.17-.49-.29-.93-.41-1.36h0c-.12.44-.25.9-.4,1.35l-.77,2.16Z"/><path class="cls-19" d="M422.65,383.44h-2.39v-.82h5.81v.82h-2.4v6.65h-1Z"/><path class="cls-19" d="M433.34,386.27a3.57,3.57,0,0,1-3.64,3.93,3.49,3.49,0,0,1-3.53-3.79,3.62,3.62,0,0,1,3.64-3.92A3.47,3.47,0,0,1,433.34,386.27Zm-6.09.12c0,1.59.91,3,2.5,3s2.51-1.41,2.51-3.1c0-1.48-.81-3-2.5-3S427.25,384.76,427.25,386.4Z"/><path class="cls-19" d="M441.27,386.81c-.06-1-.13-2.29-.12-3.22h0c-.27.88-.59,1.81-1,2.84L438.74,390H438l-1.27-3.56c-.37-1.05-.69-2-.91-2.9h0c0,.93-.08,2.18-.15,3.3l-.21,3.2h-1l.55-7.47h1.29l1.34,3.61c.33.92.59,1.74.79,2.51h0c.2-.75.48-1.57.83-2.51l1.4-3.61H442l.49,7.47h-1Z"/><path class="cls-19" d="M445.17,387.74l-.82,2.35h-1l2.67-7.47h1.22l2.68,7.47h-1.08l-.84-2.35Zm2.57-.75-.77-2.15c-.17-.49-.29-.93-.41-1.36h0c-.12.44-.25.9-.4,1.35l-.77,2.16Z"/><path class="cls-19" d="M451.62,383.44h-2.39v-.82H455v.82h-2.4v6.65h-1Z"/><path class="cls-19" d="M460,386.58h-3v2.69h3.4v.81h-4.41v-7.47h4.24v.81h-3.22v2.36h3Z"/><path class="cls-19" d="M508.58,390.78c-1.06-.27-2.1-.57-3-.86a1.59,1.59,0,0,0-.48-.11,3.51,3.51,0,0,1-3.46-3.78,3.61,3.61,0,0,1,3.66-3.93,3.87,3.87,0,0,1,1.28,7.36v0c.78.19,1.63.37,2.29.48Zm-.84-4.86c0-1.5-.82-3-2.48-3s-2.55,1.51-2.54,3.12.91,3,2.49,3S507.75,387.63,507.75,385.92Z"/><path class="cls-19" d="M511.15,382.22v4.42c0,1.67.78,2.38,1.83,2.38s1.91-.73,1.91-2.38v-4.42h1v4.35c0,2.29-1.27,3.24-3,3.24s-2.82-.87-2.82-3.19v-4.4Z"/><path class="cls-19" d="M521.73,386.19h-3v2.69h3.4v.81h-4.41v-7.47h4.24V383h-3.22v2.36h3Z"/><path class="cls-19" d="M523.25,388.51a3.73,3.73,0,0,0,1.82.49c1,0,1.64-.52,1.64-1.27s-.42-1.1-1.48-1.48c-1.28-.43-2.07-1.06-2.07-2.12s1-2,2.54-2a3.71,3.71,0,0,1,1.73.37l-.28.79a3.25,3.25,0,0,0-1.49-.35c-1.07,0-1.48.61-1.48,1.12,0,.7.48,1,1.56,1.44,1.33.49,2,1.1,2,2.19s-.9,2.15-2.75,2.15a4.22,4.22,0,0,1-2-.48Z"/><path class="cls-19" d="M535.84,385.88a3.57,3.57,0,0,1-3.64,3.93,3.49,3.49,0,0,1-3.53-3.79,3.62,3.62,0,0,1,3.64-3.92A3.47,3.47,0,0,1,535.84,385.88Zm-6.09.12c0,1.59.91,3,2.5,3s2.52-1.41,2.52-3.1c0-1.48-.82-3-2.5-3S529.75,384.36,529.75,386Z"/><path class="cls-19" d="M185.52,482h0l-1.32.68L184,482l1.65-.84h.87v7.2h-1Z"/><path class="cls-19" d="M196.78,486.87c0,.55,0,1,0,1.46h-.91l-.06-.87h0a2.14,2.14,0,0,1-1.86,1c-.88,0-1.94-.47-1.94-2.35V483h1v3c0,1,.33,1.71,1.26,1.71a1.48,1.48,0,0,0,1.35-.89,1.35,1.35,0,0,0,.09-.5V483h1Z"/><path class="cls-19" d="M198.48,484.42c0-.55,0-1,0-1.45h.91l.06.89h0a2.09,2.09,0,0,1,1.86-1,2,2,0,0,1,2,2.28v3.2h-1v-3.09c0-.86-.34-1.58-1.3-1.58a1.45,1.45,0,0,0-1.37,1,1.34,1.34,0,0,0-.07.45v3.22h-1Z"/><path class="cls-19" d="M263.62,488.33v-.6l.8-.74c1.93-1.75,2.81-2.68,2.82-3.77a1.32,1.32,0,0,0-1.5-1.41,2.65,2.65,0,0,0-1.61.61l-.33-.69A3.42,3.42,0,0,1,266,481a2.08,2.08,0,0,1,2.32,2.09c0,1.33-1,2.4-2.61,3.87l-.61.53v0h3.4v.81Z"/><path class="cls-19" d="M274.11,482h-2.89l-.29,1.85a4.35,4.35,0,0,1,.62,0,3.33,3.33,0,0,1,1.63.39,2,2,0,0,1,1.08,1.85,2.57,2.57,0,0,1-2.82,2.46,3.85,3.85,0,0,1-1.89-.44l.26-.74a3.53,3.53,0,0,0,1.62.4,1.64,1.64,0,0,0,1.79-1.56c0-.93-.66-1.6-2.18-1.6a8.22,8.22,0,0,0-1,.08l.49-3.46h3.62Z"/><path class="cls-19" d="M280.6,484.66c0,2.45-1,3.8-2.63,3.8-1.48,0-2.48-1.32-2.5-3.7s1.09-3.74,2.63-3.74S280.6,482.36,280.6,484.66Zm-4.11.11c0,1.87.6,2.94,1.54,2.94s1.55-1.16,1.55-3-.48-2.94-1.54-2.94C277.14,481.76,276.49,482.81,276.49,484.77Z"/><path class="cls-19" d="M289.19,483c0,.39,0,.82,0,1.47v3.11a3,3,0,0,1-.8,2.45,3.09,3.09,0,0,1-2,.64,3.78,3.78,0,0,1-1.87-.44l.26-.74a3.3,3.3,0,0,0,1.65.42,1.65,1.65,0,0,0,1.82-1.87v-.6h0a2,2,0,0,1-1.79.9,2.44,2.44,0,0,1-2.4-2.61,2.62,2.62,0,0,1,2.54-2.85,1.89,1.89,0,0,1,1.76.93h0l0-.81Zm-1.06,2.12a1.31,1.31,0,0,0-.06-.44,1.46,1.46,0,0,0-1.43-1c-1,0-1.68.79-1.68,2a1.7,1.7,0,0,0,1.67,1.93,1.49,1.49,0,0,0,1.42-1,1.62,1.62,0,0,0,.08-.52Z"/><path class="cls-19" d="M290.77,484.65c0-.63,0-1.17,0-1.67h.9l0,1.05h0a1.68,1.68,0,0,1,1.56-1.17,1.15,1.15,0,0,1,.29,0v.92a1.66,1.66,0,0,0-.35,0,1.41,1.41,0,0,0-1.37,1.25,2.7,2.7,0,0,0,0,.45v2.86h-1Z"/><path class="cls-19" d="M348.34,482h0l-1.32.68-.2-.74,1.65-.84h.87v7.2h-1Z"/><path class="cls-19" d="M357.11,484.66c0,2.45-1,3.8-2.63,3.8-1.48,0-2.48-1.32-2.5-3.7s1.09-3.74,2.63-3.74S357.11,482.36,357.11,484.66Zm-4.11.11c0,1.87.61,2.94,1.54,2.94s1.55-1.16,1.55-3-.48-2.94-1.54-2.94C353.66,481.76,353,482.81,353,484.77Z"/><path class="cls-19" d="M363.09,484.66c0,2.45-1,3.8-2.63,3.8-1.48,0-2.48-1.32-2.5-3.7S359,481,360.58,481,363.09,482.36,363.09,484.66Zm-4.11.11c0,1.87.61,2.94,1.54,2.94s1.55-1.16,1.55-3-.48-2.94-1.54-2.94C359.63,481.76,359,482.81,359,484.77Z"/><path class="cls-19" d="M371.68,483c0,.39,0,.82,0,1.47v3.11a3,3,0,0,1-.8,2.45,3.09,3.09,0,0,1-2,.64,3.78,3.78,0,0,1-1.87-.44l.26-.74a3.3,3.3,0,0,0,1.65.42,1.65,1.65,0,0,0,1.82-1.87v-.6h0a2,2,0,0,1-1.79.9,2.44,2.44,0,0,1-2.4-2.61,2.62,2.62,0,0,1,2.54-2.85,1.89,1.89,0,0,1,1.76.93h0l0-.81Zm-1.06,2.12a1.31,1.31,0,0,0-.06-.44,1.46,1.46,0,0,0-1.43-1c-1,0-1.68.79-1.68,2a1.7,1.7,0,0,0,1.67,1.93,1.49,1.49,0,0,0,1.42-1,1.64,1.64,0,0,0,.08-.52Z"/><path class="cls-19" d="M373.26,484.65c0-.63,0-1.17,0-1.67h.9l0,1.05h0a1.68,1.68,0,0,1,1.56-1.17,1.14,1.14,0,0,1,.29,0v.92a1.65,1.65,0,0,0-.35,0,1.41,1.41,0,0,0-1.37,1.25,2.6,2.6,0,0,0,0,.45v2.86h-1Z"/><path class="cls-19" d="M428.94,486.5a2.07,2.07,0,0,1,1.5-1.93v0a1.79,1.79,0,0,1-1.2-1.62,2.09,2.09,0,0,1,2.34-1.92c1.47,0,2.2.88,2.2,1.77a1.83,1.83,0,0,1-1.25,1.68v0a2,2,0,0,1,1.53,1.86c0,1.25-1.13,2.09-2.57,2.09S428.94,487.56,428.94,486.5Zm4.08,0c0-.87-.64-1.3-1.67-1.57a1.59,1.59,0,0,0-1.36,1.48,1.37,1.37,0,0,0,1.51,1.37A1.34,1.34,0,0,0,433,486.46Zm-2.82-3.6c0,.72.57,1.11,1.44,1.33a1.44,1.44,0,0,0,1.15-1.31,1.15,1.15,0,0,0-1.28-1.17A1.18,1.18,0,0,0,430.19,482.86Z"/><path class="cls-19" d="M440,484.66c0,2.45-1,3.8-2.63,3.8-1.48,0-2.48-1.32-2.5-3.7S436,481,437.53,481,440,482.36,440,484.66Zm-4.11.11c0,1.87.61,2.94,1.54,2.94s1.55-1.16,1.55-3-.48-2.94-1.54-2.94C436.57,481.76,435.92,482.8,435.92,484.77Z"/><path class="cls-19" d="M448.62,483c0,.39,0,.82,0,1.47v3.11a3,3,0,0,1-.8,2.45,3.09,3.09,0,0,1-2,.64,3.78,3.78,0,0,1-1.87-.44l.26-.74a3.3,3.3,0,0,0,1.65.42,1.65,1.65,0,0,0,1.82-1.87v-.6h0a2,2,0,0,1-1.79.9,2.44,2.44,0,0,1-2.4-2.61,2.62,2.62,0,0,1,2.54-2.85,1.89,1.89,0,0,1,1.76.93h0l0-.81Zm-1.06,2.12a1.31,1.31,0,0,0-.06-.44,1.46,1.46,0,0,0-1.43-1c-1,0-1.68.79-1.68,2a1.7,1.7,0,0,0,1.67,1.93,1.49,1.49,0,0,0,1.42-1,1.64,1.64,0,0,0,.08-.52Z"/><path class="cls-19" d="M450.21,484.64c0-.63,0-1.17,0-1.67h.9l0,1.05h0a1.68,1.68,0,0,1,1.56-1.17,1.14,1.14,0,0,1,.29,0v.92a1.65,1.65,0,0,0-.35,0,1.41,1.41,0,0,0-1.37,1.25,2.6,2.6,0,0,0,0,.45v2.86h-1Z"/><path class="cls-19" d="M511.08,488.33v-.6l.8-.74c1.93-1.75,2.81-2.68,2.82-3.77a1.32,1.32,0,0,0-1.5-1.41,2.64,2.64,0,0,0-1.61.61l-.33-.69a3.42,3.42,0,0,1,2.14-.73,2.08,2.08,0,0,1,2.32,2.09c0,1.33-1,2.4-2.61,3.87l-.61.53v0h3.4v.81Z"/><path class="cls-19" d="M522.08,484.66c0,2.45-1,3.8-2.63,3.8-1.48,0-2.48-1.32-2.5-3.7S518,481,519.58,481,522.08,482.36,522.08,484.66Zm-4.11.11c0,1.87.61,2.94,1.54,2.94s1.55-1.16,1.55-3-.48-2.94-1.54-2.94C518.62,481.76,518,482.81,518,484.77Z"/><path class="cls-19" d="M530.67,483c0,.39,0,.82,0,1.47v3.11a3,3,0,0,1-.8,2.45,3.09,3.09,0,0,1-2,.64,3.78,3.78,0,0,1-1.87-.44l.26-.74a3.3,3.3,0,0,0,1.65.42,1.65,1.65,0,0,0,1.82-1.87v-.6h0a2,2,0,0,1-1.79.9,2.44,2.44,0,0,1-2.4-2.61,2.62,2.62,0,0,1,2.54-2.85,1.89,1.89,0,0,1,1.76.93h0l0-.81Zm-1.06,2.12a1.31,1.31,0,0,0-.06-.44,1.47,1.47,0,0,0-1.43-1c-1,0-1.68.79-1.68,2a1.7,1.7,0,0,0,1.67,1.93,1.49,1.49,0,0,0,1.42-1,1.61,1.61,0,0,0,.08-.52Z"/><path class="cls-19" d="M532.25,484.65c0-.63,0-1.17,0-1.67h.9l0,1.05h0a1.68,1.68,0,0,1,1.56-1.17,1.15,1.15,0,0,1,.29,0v.92a1.66,1.66,0,0,0-.35,0,1.41,1.41,0,0,0-1.37,1.25,2.7,2.7,0,0,0,0,.45v2.86h-1Z"/><polygon class="cls-21" points="112.06 425.43 112.06 439.53 76.56 439.53 58.88 439.53 48.67 439.53 48.67 425.43 112.06 425.43"/><path class="cls-22" d="M115.81,428.94a3.23,3.23,0,0,1-3.23,3.23H47.64a3.23,3.23,0,0,1-3.23-3.23A21.14,21.14,0,0,1,65.55,407.8H94.68a21.14,21.14,0,0,1,21.14,21.14Z"/><path class="cls-22" d="M61.85,428.94A21.14,21.14,0,0,1,83,407.8H66.55a21.14,21.14,0,0,0-21.13,21.14,3.23,3.23,0,0,0,3.23,3.23H65.08a3.23,3.23,0,0,1-3.23-3.23Z"/><circle class="cls-23" cx="64.34" cy="414.37" r="1.61"/><circle class="cls-23" cx="95.88" cy="414.37" r="1.61"/><circle class="cls-23" cx="74.86" cy="414.37" r="1.61"/><circle class="cls-23" cx="85.37" cy="414.37" r="1.61"/><path class="cls-22" d="M112.83,460.92a3.23,3.23,0,0,1,3.23,3.23v3.94a8.49,8.49,0,0,1-8.49,8.49H53.15a8.49,8.49,0,0,1-8.49-8.49v-3.94a3.23,3.23,0,0,1,3.23-3.23h.58l31.18-7.25,32.6,7.25h.58Z"/><polygon class="cls-24" points="112.06 450.78 112.06 461.57 104.38 461.57 86.69 461.57 48.67 461.57 48.67 450.78 112.06 450.78"/><path class="cls-25" d="M112.44,439.53a7.12,7.12,0,0,1,0,14.24H48.67a7.12,7.12,0,0,1,0-14.24h63.78Z"/><polygon class="cls-23" points="104.76 439.53 96.16 448.61 87.08 439.53 104.76 439.53"/><polygon class="cls-23" points="77.53 439.53 68.94 448.61 59.85 439.53 77.53 439.53"/><polygon class="cls-21" points="181.1 258.53 181.1 267.56 158.37 267.56 147.04 267.56 140.5 267.56 140.5 258.53 181.1 258.53"/><path class="cls-22" d="M183.5,260.78a2.07,2.07,0,0,1-2.07,2.07H139.84a2.07,2.07,0,0,1-2.07-2.07,13.54,13.54,0,0,1,13.53-13.54H170a13.54,13.54,0,0,1,13.54,13.54Z"/><path class="cls-22" d="M148.95,260.78a13.54,13.54,0,0,1,13.53-13.54H152a13.54,13.54,0,0,0-13.53,13.54,2.07,2.07,0,0,0,2.07,2.07H151a2.07,2.07,0,0,1-2.07-2.07Z"/><circle class="cls-23" cx="150.54" cy="251.45" r="1.03"/><circle class="cls-23" cx="170.73" cy="251.45" r="1.03"/><circle class="cls-23" cx="157.27" cy="251.45" r="1.03"/><circle class="cls-23" cx="164" cy="251.45" r="1.03"/><path class="cls-22" d="M181.59,281.26a2.07,2.07,0,0,1,2.07,2.07v2.52a5.44,5.44,0,0,1-5.44,5.43H143.37a5.43,5.43,0,0,1-5.43-5.43v-2.52a2.07,2.07,0,0,1,2.07-2.07h.37l20-4.64,20.88,4.64h.37Z"/><polygon class="cls-24" points="181.1 274.76 181.1 281.68 176.18 281.68 164.85 281.68 140.5 281.68 140.5 274.76 181.1 274.76"/><path class="cls-25" d="M181.34,267.56a4.56,4.56,0,0,1,0,9.12H140.5a4.56,4.56,0,0,1,0-9.12h40.84Z"/><polygon class="cls-23" points="176.43 267.56 170.92 273.38 165.1 267.56 176.43 267.56"/><polygon class="cls-23" points="158.99 267.56 153.48 273.38 147.66 267.56 158.99 267.56"/><path class="cls-22" d="M217.68,442.16a2.06,2.06,0,0,1-2.06,2.06H174.23a2.06,2.06,0,0,1-2.06-2.06,13.47,13.47,0,0,1,13.47-13.47h18.57a13.47,13.47,0,0,1,13.47,13.47Z"/><circle class="cls-23" cx="184.88" cy="432.87" r="1.03"/><circle class="cls-23" cx="204.98" cy="432.87" r="1.03"/><circle class="cls-23" cx="191.58" cy="432.87" r="1.03"/><circle class="cls-23" cx="198.28" cy="432.87" r="1.03"/><path class="cls-22" d="M215.78,444.81a2.06,2.06,0,0,1,2.06,2.06v2.51a5.41,5.41,0,0,1-5.41,5.41H177.74a5.41,5.41,0,0,1-5.41-5.41v-2.51a2.06,2.06,0,0,1,2.06-2.06h.37l20.16-.79,20.48.79h.37Z"/><path class="cls-26" d="M369.68,435.56c1.66,4.19-1,14.24-7.28,18.37s-14.14,2.48-16-4.47c-1.16-4.29,1.93-7.43,8.22-11.56s13.44-6.47,15.08-2.34"/><path class="cls-26" d="M359.7,449.51c-4.52,3.15-10.6,3.57-12.8.4s.29-8.72,4.81-11.87,15.22-6.79,17.42-3.63-4.91,11.94-9.43,15.09"/><path class="cls-27" d="M359.15,449.89c-4,2.78-9.35,2.15-11.29-.65s.33-7.74,4.32-10.52,14-6.42,16-3.63-3.35,11.21-9,14.8"/><path class="cls-28" d="M358,448.06c-3.12,2.18-6.89,2.17-8.41,0s-.23-5.72,2.9-7.9,11-5,12.5-2.83-3.86,8.57-7,10.75"/><path class="cls-29" d="M353.15,440.13a5.2,5.2,0,0,1,6.79.69c1,1-.61,3.73-3,5.35s-5.39,1.22-5.71.51a5.16,5.16,0,0,1,1.94-6.54"/><path class="cls-30" d="M354.48,440.55a1.92,1.92,0,1,1-.84,2.84,2.12,2.12,0,0,1,.84-2.84"/><path class="cls-26" d="M554.25,237.78c2.93,7.4-1.76,25.16-12.86,32.46s-25,4.38-28.29-7.89c-2-7.58,3.42-13.13,14.52-20.43s23.74-11.44,26.63-4.14"/><path class="cls-26" d="M536.62,262.43c-8,5.57-18.72,6.31-22.62.71s.51-15.41,8.5-21,26.89-12,30.78-6.4-8.68,21.1-16.67,26.67"/><path class="cls-27" d="M535.65,263.1c-7.05,4.92-16.51,3.79-20-1.14s.58-13.68,7.63-18.59S548.15,232,551.59,237s-5.91,19.81-15.93,26.15"/><path class="cls-28" d="M533.64,259.86c-5.52,3.85-12.17,3.83-14.86,0s-.4-10.11,5.11-14,19.39-8.87,22.09-5-6.82,15.15-12.34,19"/><path class="cls-29" d="M525.06,245.85a9.19,9.19,0,0,1,12,1.22c1.75,1.81-1.08,6.59-5.34,9.45s-9.52,2.16-10.09.9a9.12,9.12,0,0,1,3.43-11.56"/><path class="cls-30" d="M527.39,246.6c1.85-1.24,4.18-1,5.21.53s.36,3.78-1.49,5-4.18,1-5.21-.53-.36-3.78,1.49-5"/><path class="cls-31" d="M431.11,453.7a13.58,13.58,0,0,0,18.1-.49,12.4,12.4,0,0,0,3.39-5.46c1.82-6.18-1-13.74-7.83-15a5.35,5.35,0,0,0-4.82,1.25.45.45,0,0,1-.63,0,5.35,5.35,0,0,0-4.89-1c-6.73,1.62-9.16,9.32-7,15.39A12.4,12.4,0,0,0,431.11,453.7Z"/><path class="cls-32" d="M440.2,455.07a11.61,11.61,0,0,1-7.89-2.77,10.5,10.5,0,0,1-3.14-4.48,11.4,11.4,0,0,1,.58-9,7.8,7.8,0,0,1,5.11-4,5,5,0,0,1,1-.14,3,3,0,0,1,2.36.87l.74.86a.92.92,0,0,0,1.43,0l.69-.9a3,3,0,0,1,2.31-1,5,5,0,0,1,1,.08,7.8,7.8,0,0,1,5.32,3.7,11.4,11.4,0,0,1,1.07,8.95,10.5,10.5,0,0,1-2.9,4.65,11.62,11.62,0,0,1-7.73,3.19Z"/><path class="cls-31" d="M437.6,452.77a1.61,1.61,0,0,1-1-.29c-2.18-1.53-5.85-4.77-6-9.22a5.85,5.85,0,0,1,1.63-4.46,3.85,3.85,0,0,1,4.91-.2,1.62,1.62,0,0,1-1.86,2.65c-.09-.06-.55-.36-.87-.06a2.83,2.83,0,0,0-.58,2c.09,3.15,3.25,5.71,4.6,6.67a1.62,1.62,0,0,1-.89,2.94Z"/><path class="cls-31" d="M442.67,452.63a1.61,1.61,0,0,0,1-.35c2.09-1.65,5.58-5.08,5.46-9.53a5.85,5.85,0,0,0-1.87-4.36,3.85,3.85,0,0,0-4.92.07,1.62,1.62,0,1,0,2,2.54c.09-.07.53-.39.86-.11a2.83,2.83,0,0,1,.69,1.95c.08,3.15-2.93,5.88-4.23,6.91a1.62,1.62,0,0,0,1,2.89Z"/><path class="cls-31" d="M440,443.2c.81-.33,2.32-.61,2.71.49a2,2,0,0,1,.07.85,4.29,4.29,0,0,1-2.47,3.56l-.3.1h.08l-.31-.09a4.29,4.29,0,0,1-2.66-3.42,2,2,0,0,1,0-.85c.32-1.12,1.84-.92,2.68-.64Z"/><path class="cls-33" d="M434.71,440l-.18,0-.16-.1a.46.46,0,0,1-.14-.32.38.38,0,0,1,0-.18.53.53,0,0,1,.09-.16l.07-.06.08,0,.08,0a.47.47,0,0,1,.42.11.53.53,0,0,1,.1.15.46.46,0,0,1-.08.51.68.68,0,0,1-.15.11Z"/><path class="cls-33" d="M432.49,443.34a.46.46,0,0,1-.33-.13.53.53,0,0,1-.1-.15.46.46,0,0,1,0-.17.48.48,0,0,1,.13-.33.48.48,0,0,1,.66,0,.49.49,0,0,1,.14.32.46.46,0,0,1-.13.33.68.68,0,0,1-.15.11Z"/><path class="cls-33" d="M433,446.56a.46.46,0,0,1-.18,0,.42.42,0,0,1-.26-.24.43.43,0,0,1,0-.35.53.53,0,0,1,.09-.16l.07-.06.08,0,.08,0a.47.47,0,0,1,.42.11.53.53,0,0,1,.1.15.43.43,0,0,1,0,.35.53.53,0,0,1-.09.16.46.46,0,0,1-.32.14Z"/><path class="cls-33" d="M435,449.29a.46.46,0,0,1-.33-.13.48.48,0,0,1-.1-.15.38.38,0,0,1,0-.17.46.46,0,0,1,0-.18.53.53,0,0,1,.09-.16.43.43,0,0,1,.15-.1.47.47,0,0,1,.51.08.53.53,0,0,1,.1.15.43.43,0,0,1,0,.35.48.48,0,0,1-.09.16A.46.46,0,0,1,435,449.29Z"/><path class="cls-33" d="M436.86,451.08l-.18,0-.16-.1a.46.46,0,0,1-.14-.32.48.48,0,0,1,.13-.33.47.47,0,0,1,.5-.11.48.48,0,0,1,.16.09.53.53,0,0,1,.1.15.46.46,0,0,1-.08.51.68.68,0,0,1-.15.11l-.17,0Z"/><path class="cls-33" d="M444.87,439.77l-.18,0-.16-.1a.53.53,0,0,1-.1-.15.43.43,0,0,1,0-.35.42.42,0,0,1,.24-.26.45.45,0,0,1,.61.23.46.46,0,0,1-.08.51.68.68,0,0,1-.15.11l-.17,0Z"/><path class="cls-33" d="M447.27,442.94a.46.46,0,0,1-.33-.13.68.68,0,0,1-.11-.15.46.46,0,0,1,.74-.52.53.53,0,0,1,.1.15.43.43,0,0,1,0,.35.53.53,0,0,1-.09.16A.46.46,0,0,1,447.27,442.94Z"/><path class="cls-33" d="M446.89,446.19a.46.46,0,0,1-.18,0,.48.48,0,0,1-.16-.09.53.53,0,0,1-.1-.15.43.43,0,0,1,0-.35.53.53,0,0,1,.09-.16.48.48,0,0,1,.15-.1.44.44,0,0,1,.27,0l.08,0,.08,0,.07.05a.53.53,0,0,1,.1.15.43.43,0,0,1,0,.35.53.53,0,0,1-.09.16A.46.46,0,0,1,446.89,446.19Z"/><path class="cls-33" d="M445.12,449a.46.46,0,0,1-.33-.13.53.53,0,0,1-.1-.15.43.43,0,0,1,0-.35.53.53,0,0,1,.09-.16.46.46,0,0,1,.41-.14l.09,0,.08,0,.07.05a.53.53,0,0,1,.1.15.43.43,0,0,1,0,.35.48.48,0,0,1-.09.16.54.54,0,0,1-.15.1.46.46,0,0,1-.17,0Z"/><path class="cls-33" d="M443.32,450.91a.46.46,0,0,1-.44-.63.53.53,0,0,1,.09-.16.47.47,0,0,1,.41-.14l.09,0,.08,0,.08.05a.53.53,0,0,1,.1.15.46.46,0,0,1-.41.65Z"/><path class="cls-31" d="M432.11,271.58a23.8,23.8,0,0,0,31.73-.86,21.73,21.73,0,0,0,5.94-9.57c3.2-10.83-1.79-24.08-13.73-26.27-3-.55-6.31,0-8.46,2.2a.79.79,0,0,1-1.1,0c-2.27-2.09-5.61-2.44-8.56-1.74-11.8,2.83-16.06,16.33-12.28,27A21.72,21.72,0,0,0,432.11,271.58Z"/><path class="cls-32" d="M448.05,274a20.36,20.36,0,0,1-13.83-4.85,18.4,18.4,0,0,1-5.51-7.86,20,20,0,0,1,1-15.76,13.67,13.67,0,0,1,9-7,8.72,8.72,0,0,1,1.79-.24,5.26,5.26,0,0,1,4.13,1.53l1.3,1.5a1.62,1.62,0,0,0,2.51-.07l1.21-1.57a5.26,5.26,0,0,1,4-1.75,8.72,8.72,0,0,1,1.8.14,13.67,13.67,0,0,1,9.33,6.49,20,20,0,0,1,1.88,15.68,18.41,18.41,0,0,1-5.07,8.15,20.36,20.36,0,0,1-13.55,5.6Z"/><path class="cls-31" d="M443.49,269.94a2.82,2.82,0,0,1-1.71-.52c-3.82-2.69-10.25-8.37-10.46-16.16a10.25,10.25,0,0,1,2.86-7.81,6.75,6.75,0,0,1,8.61-.35,2.83,2.83,0,0,1-3.26,4.64c-.16-.11-1-.63-1.52-.11a5,5,0,0,0-1,3.48c.15,5.53,5.69,10,8.06,11.69a2.83,2.83,0,0,1-1.56,5.15Z"/><path class="cls-31" d="M452.37,269.7a2.82,2.82,0,0,0,1.68-.61c3.66-2.89,9.78-8.91,9.57-16.71a10.25,10.25,0,0,0-3.28-7.64,6.75,6.75,0,0,0-8.62.12,2.83,2.83,0,0,0,3.51,4.46c.15-.12.92-.68,1.51-.2a5,5,0,0,1,1.21,3.42c.15,5.53-5.14,10.31-7.42,12.11a2.83,2.83,0,0,0,1.84,5.06Z"/><path class="cls-31" d="M447.72,253.17c1.43-.58,4.07-1.08,4.74.86a3.56,3.56,0,0,1,.12,1.49,7.52,7.52,0,0,1-4.33,6.25,5.51,5.51,0,0,1-.53.18h.13l-.54-.15a7.52,7.52,0,0,1-4.67-6,3.56,3.56,0,0,1,0-1.5c.57-2,3.23-1.62,4.69-1.12Z"/><path class="cls-33" d="M438.43,247.64a1,1,0,0,1-.31,0,1.17,1.17,0,0,1-.27-.17.8.8,0,0,1-.25-.57.67.67,0,0,1,.06-.31.93.93,0,0,1,.16-.27l.12-.1.14-.08.14-.05a.82.82,0,0,1,.74.2.93.93,0,0,1,.18.26.8.8,0,0,1-.15.89,1.19,1.19,0,0,1-.26.19A1,1,0,0,1,438.43,247.64Z"/><path class="cls-33" d="M434.53,253.42a.8.8,0,0,1-.58-.22.93.93,0,0,1-.18-.26.81.81,0,0,1-.07-.31.85.85,0,0,1,.22-.58.84.84,0,0,1,1.15,0,.85.85,0,0,1,.25.57.8.8,0,0,1-.22.58,1.19,1.19,0,0,1-.26.19A1,1,0,0,1,434.53,253.42Z"/><path class="cls-33" d="M435.5,259.07a.81.81,0,0,1-.31-.06.73.73,0,0,1-.45-.43.76.76,0,0,1,0-.62.93.93,0,0,1,.16-.27l.12-.1.14-.08.14-.05a.83.83,0,0,1,.74.2.93.93,0,0,1,.18.26.76.76,0,0,1,0,.62.93.93,0,0,1-.16.27.8.8,0,0,1-.57.25Z"/><path class="cls-33" d="M438.87,263.84a.8.8,0,0,1-.58-.22.83.83,0,0,1-.18-.26A.67.67,0,0,1,438,263a.81.81,0,0,1,.06-.31.93.93,0,0,1,.16-.27.75.75,0,0,1,.26-.18.83.83,0,0,1,.89.15.93.93,0,0,1,.18.26.76.76,0,0,1,0,.62.83.83,0,0,1-.16.27A.8.8,0,0,1,438.87,263.84Z"/><path class="cls-33" d="M442.19,267a1,1,0,0,1-.31,0,1.17,1.17,0,0,1-.27-.17.8.8,0,0,1-.25-.57.85.85,0,0,1,.22-.58.83.83,0,0,1,.88-.19.84.84,0,0,1,.27.16.93.93,0,0,1,.18.26.8.8,0,0,1-.15.89,1.19,1.19,0,0,1-.26.19,1,1,0,0,1-.31.07Z"/><path class="cls-33" d="M456.24,247.16a1,1,0,0,1-.31,0,1.17,1.17,0,0,1-.27-.17.93.93,0,0,1-.18-.26.76.76,0,0,1,0-.62.73.73,0,0,1,.43-.45A.78.78,0,0,1,457,246a.8.8,0,0,1-.15.89,1.19,1.19,0,0,1-.26.19,1,1,0,0,1-.31.07Z"/><path class="cls-33" d="M460.44,252.72a.8.8,0,0,1-.58-.22,1.19,1.19,0,0,1-.19-.26.81.81,0,0,1,1.3-.92.93.93,0,0,1,.18.26.76.76,0,0,1,0,.62.93.93,0,0,1-.16.27A.8.8,0,0,1,460.44,252.72Z"/><path class="cls-33" d="M459.78,258.41a.81.81,0,0,1-.31-.06.83.83,0,0,1-.27-.16.93.93,0,0,1-.18-.26.76.76,0,0,1,0-.62.93.93,0,0,1,.16-.27.83.83,0,0,1,.26-.18.77.77,0,0,1,.47-.06l.15,0,.15.07.12.09a.93.93,0,0,1,.18.26.76.76,0,0,1,0,.62.93.93,0,0,1-.16.27A.8.8,0,0,1,459.78,258.41Z"/><path class="cls-33" d="M456.68,263.35a.8.8,0,0,1-.58-.22.93.93,0,0,1-.18-.26.76.76,0,0,1,0-.62.93.93,0,0,1,.16-.27.8.8,0,0,1,.72-.24l.16,0,.15.07.12.09a.93.93,0,0,1,.18.26.76.76,0,0,1,0,.62.83.83,0,0,1-.16.27.94.94,0,0,1-.26.18.81.81,0,0,1-.31.07Z"/><path class="cls-33" d="M453.53,266.68a.8.8,0,0,1-.78-1.1.93.93,0,0,1,.16-.27.83.83,0,0,1,.72-.24l.16,0a.44.44,0,0,1,.14.07l.13.09a.93.93,0,0,1,.18.26.8.8,0,0,1-.71,1.14Z"/><path class="cls-34" d="M535.18,439.45s-1.46-8.44-14.4-8.44l-12.6,10.13"/><path class="cls-35" d="M535.18,439.45l-27,1.69v14.28a.84.84,0,0,0,.9.84l25.31-1.76a.84.84,0,0,0,.78-.84Z"/><circle class="cls-36" cx="529.27" cy="445.36" r="2.53"/><circle class="cls-36" cx="520.83" cy="448.73" r="2.53"/><path class="cls-36" d="M509,446.2a2.5,2.5,0,0,0-.84.16v4.75a2.5,2.5,0,0,0,.84.16,2.53,2.53,0,0,0,0-5.06Z"/><polyline class="cls-4" points="439.9 348.27 521.68 348.27 521.68 375.75"/><path class="cls-37" d="M250.92,13.61a47.33,47.33,0,0,0-24.46,6.77l24.46,40.79,24.46-40.79A47.33,47.33,0,0,0,250.92,13.61Z"/><path class="cls-38" d="M250.92,20.49A40.49,40.49,0,0,0,230,26.28l13.49,22.49s0,0,0,.05V62.3a1.85,1.85,0,0,0,3.7,0V54.94l3.74,6.23,8.46-14.11v5.65a1.85,1.85,0,0,0,3.7,0V40.89l1.7-2.83v5.26a1.85,1.85,0,0,0,3.7,0V31.89l3.36-5.61A40.49,40.49,0,0,0,250.92,20.49Z"/><path class="cls-39" d="M250.92,20.49A40.49,40.49,0,0,0,230,26.28l1,1.7a38.72,38.72,0,0,1,39.81,0l1-1.7A40.49,40.49,0,0,0,250.92,20.49Z"/><path class="cls-40" d="M256.91,40.18a6.88,6.88,0,0,0-1.55,13.59l6.74-11.23A6.87,6.87,0,0,0,256.91,40.18Z"/><path class="cls-40" d="M240.82,30.51a6.88,6.88,0,0,0-6.09,3.67l6.06,10.1h0a6.89,6.89,0,1,0,0-13.77Z"/><circle class="cls-40" cx="257.4" cy="30.84" r="6.89"/><path class="cls-40" d="M246.91,20.69a40.41,40.41,0,0,0-13.21,3.62,6.88,6.88,0,0,0,13.21-3.62Z"/><path class="cls-41" d="M246.91,20.69a40.41,40.41,0,0,0-13.21,3.62,6.88,6.88,0,0,0,1,1.73A38.44,38.44,0,0,1,247,22.68a6.79,6.79,0,0,0,0-2Z"/><circle class="cls-39" cx="230" cy="20.57" r="0.66"/><circle class="cls-39" cx="235.39" cy="21.89" r="0.66"/><circle class="cls-39" cx="241.22" cy="17.38" r="0.66"/><circle class="cls-39" cx="248.77" cy="18.71" r="0.66"/><circle class="cls-39" cx="256.72" cy="16.06" r="0.66"/><circle class="cls-39" cx="260.58" cy="19.91" r="0.66"/><circle class="cls-39" cx="272.51" cy="21.15" r="0.66"/><circle class="cls-39" cx="266.96" cy="19.83" r="0.66"/><path class="cls-42" d="M270.31,142.08a13.14,13.14,0,0,1-18.58,0l-20.65-20.65a13.14,13.14,0,1,1,18.58-18.58l20.65,20.65a13.14,13.14,0,0,1,0,18.58"/><path class="cls-43" d="M267.26,126.65c5.13,5.13,6.73,11.85,3.61,15s-9.84,1.52-15-3.61l-20.65-20.65c-5.13-5.13-6.73-11.85-3.61-15s9.84-1.52,15,3.61Z"/><path class="cls-44" d="M272.86,138.44c2.07,2.07,2.35,5.12.64,6.84s-4.77,1.42-6.84-.64L228.43,106.4c-2.07-2.06-2.35-5.13-.64-6.84s4.77-1.42,6.84.64Z"/><path class="cls-45" d="M271.34,142.64a1.58,1.58,0,0,1-1.12-.47,6,6,0,0,0-3.53-1.81,9.64,9.64,0,0,1-7.74-7.74,6.48,6.48,0,0,0-5.34-5.34,9.63,9.63,0,0,1-7.74-7.74,6.46,6.46,0,0,0-5.33-5.33,9.62,9.62,0,0,1-7.73-7.73,6,6,0,0,0-1.81-3.53,1.59,1.59,0,0,1,2.25-2.25,9.16,9.16,0,0,1,2.66,5.07,6.47,6.47,0,0,0,5.33,5.33,9.62,9.62,0,0,1,7.73,7.73,6.47,6.47,0,0,0,5.34,5.34,9.64,9.64,0,0,1,7.74,7.74,6.49,6.49,0,0,0,5.35,5.34,9.18,9.18,0,0,1,5.08,2.67,1.59,1.59,0,0,1-1.12,2.71Z"/><path class="cls-46" d="M240.31,192.5v-5.72H234.6v5.72c0,3.5-6.92,3.69-6.92,12.09V227a5.72,5.72,0,0,0,5.72,5.72h8.15a5.72,5.72,0,0,0,5.72-5.72h0V204.59C247.24,196.19,240.31,196,240.31,192.5Z"/><rect class="cls-47" x="233.52" y="186.78" width="7.86" height="3.57"/><path class="cls-48" d="M233.39,232.69h8.15a5.72,5.72,0,0,0,5.72-5.72h0V204.59H227.67V227A5.72,5.72,0,0,0,233.39,232.69Z"/><path class="cls-46" d="M266.69,192.5v-5.72H261v5.72c0,3.5-6.92,3.69-6.92,12.09V227a5.72,5.72,0,0,0,5.72,5.72h8.15a5.72,5.72,0,0,0,5.7-5.72V204.59C273.61,196.19,266.69,196,266.69,192.5Z"/><rect class="cls-49" x="259.9" y="186.78" width="7.86" height="3.57"/><path class="cls-50" d="M259.76,232.69h8.15a5.72,5.72,0,0,0,5.7-5.72V204.59H254V227A5.72,5.72,0,0,0,259.76,232.69Z"/><path class="cls-46" d="M253.49,194.5v-5.72h-5.7v5.72c0,3.5-6.92,3.69-6.92,12.09V229a5.72,5.72,0,0,0,5.72,5.72h8.15a5.72,5.72,0,0,0,5.72-5.72h0V206.59C260.43,198.19,253.49,198,253.49,194.5Z"/><rect class="cls-51" x="246.72" y="188.78" width="7.86" height="3.57"/><path class="cls-52" d="M246.57,234.69h8.15a5.72,5.72,0,0,0,5.72-5.72h0V206.59H240.85V229A5.72,5.72,0,0,0,246.57,234.69Z"/><path class="cls-53" d="M263.58,451a11.75,11.75,0,0,0,6.67,5.64,14.59,14.59,0,0,0,3.31.54c4.6.41,15.62-.57,18.16-11.09a16.3,16.3,0,0,0-.84-9.94c-1.84-4.54-6-10.35-14.52-6.46-4.87,2.22-4.5,6-3.46,8.64a4.41,4.41,0,0,1-4.71,6C264,443.81,262,446.33,263.58,451Z"/><path class="cls-54" d="M265.77,450a9.5,9.5,0,0,0,5.33,4.42,11.85,11.85,0,0,0,2.62.42h.16c.48,0,1,.06,1.53.06,10.63,0,13.36-6.56,14-9.38a13.81,13.81,0,0,0-.72-8.47c-1.71-4.2-4.16-6.33-7.28-6.33a10.52,10.52,0,0,0-4.3,1.07c-1.75.8-3.9,2.29-2.41,6.06a5.94,5.94,0,0,1-.6,5.61,6,6,0,0,1-5.78,2.57,6.33,6.33,0,0,0-.82-.06,2.27,2.27,0,0,0-1.85.67C265.23,447.28,265.26,448.5,265.77,450Z"/><path class="cls-55" d="M275.41,455.5c-.55,0-1.09,0-1.58-.07h-.17a12.17,12.17,0,0,1-2.75-.45,10.06,10.06,0,0,1-5.66-4.7l0-.08c-.58-1.71-.58-3.08,0-3.88s1.69-1.06,3.23-.85a5.4,5.4,0,0,0,5.76-7.38c-1.86-4.71,1.58-6.29,2.72-6.8,5.66-2.58,9.83-.68,12.36,5.57a14.39,14.39,0,0,1,.75,8.83C289.3,448.63,286.45,455.5,275.41,455.5Zm-9.1-5.73a9,9,0,0,0,5,4.09,11.42,11.42,0,0,0,2.49.39h.17c.46,0,1,.06,1.48.06,10.21,0,12.82-6.24,13.47-8.93a13.23,13.23,0,0,0-.7-8.11c-1.61-4-3.88-6-6.74-6a10,10,0,0,0-4.05,1c-1.77.8-3.4,2.06-2.11,5.31a6.57,6.57,0,0,1-7,9c-1-.14-1.87,0-2.12.37S265.81,448.26,266.31,449.77Z"/><g class="cls-56"><circle class="cls-53" cx="282" cy="435.74" r="2.34"/><path class="cls-53" d="M282,438.66a2.92,2.92,0,1,1,2.92-2.92A2.93,2.93,0,0,1,282,438.66Zm0-4.68a1.75,1.75,0,1,0,1.75,1.75A1.76,1.76,0,0,0,282,434Z"/></g><path class="cls-55" d="M278,455l-1.13-.28c.25-1-.62-1.88-2-2.84a7.43,7.43,0,0,1-3.11-5c-.11-.74-.25-1.34-.25-1.34l1.12-.32a4.63,4.63,0,0,0,2.33,2.52,5.43,5.43,0,0,0,4.47-.49c6.77-3.25,10-1.55,10.13-1.47l-.57,1s-2.91-1.45-9.06,1.5a6.51,6.51,0,0,1-5.44.5,4.9,4.9,0,0,1-1.21-.74,6.23,6.23,0,0,0,2.26,2.87C276.56,451.61,278.5,452.95,278,455Z"/><path class="cls-55" d="M278.85,444.39a5.21,5.21,0,0,1-4.46-2.19l1-.59-.5.3.5-.3c.06.1,1.59,2.53,5.69,1.23.9-.46,7-3.51,9.13-1.34l-.84.81c-1.16-1.2-5.39.34-7.79,1.59l-.09,0A8.59,8.59,0,0,1,278.85,444.39Z"/><path class="cls-53" d="M336.76,269.33a19.24,19.24,0,0,0,10.92,9.23,23.9,23.9,0,0,0,5.43.88c7.53.67,25.57-.93,29.74-18.17A26.7,26.7,0,0,0,381.47,245c-3-7.43-9.78-17-23.77-10.58-8,3.63-7.37,9.84-5.66,14.16a7.22,7.22,0,0,1-7.72,9.88C337.44,257.55,334.1,261.68,336.76,269.33Z"/><path class="cls-54" d="M340.34,267.69a15.56,15.56,0,0,0,8.72,7.23,19.41,19.41,0,0,0,4.29.69l.27,0c.78.07,1.63.11,2.51.11,17.4,0,21.88-10.74,23-15.36a22.62,22.62,0,0,0-1.18-13.87c-2.79-6.88-6.81-10.37-11.93-10.37a17.23,17.23,0,0,0-7,1.75c-2.86,1.31-6.39,3.75-4,9.92a9.73,9.73,0,0,1-1,9.18,9.89,9.89,0,0,1-9.47,4.2,10.37,10.37,0,0,0-1.34-.09,3.72,3.72,0,0,0-3,1.09C339.45,263.24,339.51,265.23,340.34,267.69Z"/><path class="cls-55" d="M356.13,276.7c-.91,0-1.78,0-2.59-.11l-.27,0a19.94,19.94,0,0,1-4.51-.73,16.47,16.47,0,0,1-9.27-7.7l-.06-.13c-.94-2.79-1-5,0-6.35s2.77-1.73,5.29-1.39a8.85,8.85,0,0,0,9.44-12.08c-3.05-7.72,2.59-10.29,4.45-11.14,9.27-4.22,16.09-1.11,20.25,9.13A23.56,23.56,0,0,1,380,260.61C378.88,265.45,374.21,276.7,356.13,276.7Zm-14.91-9.38a14.75,14.75,0,0,0,8.14,6.7,18.71,18.71,0,0,0,4.07.64l.27,0c.75.07,1.57.1,2.42.1,16.72,0,21-10.23,22.06-14.62A21.67,21.67,0,0,0,377,246.88c-2.63-6.48-6.35-9.77-11-9.77a16.29,16.29,0,0,0-6.64,1.67c-2.89,1.32-5.56,3.38-3.46,8.7a10.76,10.76,0,0,1-11.47,14.68c-1.72-.23-3.06,0-3.48.61S340.4,264.85,341.22,267.32Z"/><g class="cls-56"><circle class="cls-53" cx="366.92" cy="244.33" r="3.83"/><path class="cls-53" d="M366.92,249.12a4.79,4.79,0,1,1,4.79-4.79A4.79,4.79,0,0,1,366.92,249.12Zm0-7.66a2.87,2.87,0,1,0,2.87,2.87A2.88,2.88,0,0,0,366.92,241.46Z"/></g><path class="cls-55" d="M360.37,275.83l-1.86-.46c.42-1.69-1-3.08-3.3-4.65a12.17,12.17,0,0,1-5.1-8.23c-.18-1.21-.41-2.19-.41-2.2l1.84-.52a7.58,7.58,0,0,0,3.81,4.13c2,.84,4.47.57,7.32-.8,11.08-5.32,16.37-2.53,16.59-2.41l-.93,1.68s-4.76-2.37-14.84,2.46c-3.38,1.62-6.38,1.9-8.91.83a8,8,0,0,1-2-1.21,10.21,10.21,0,0,0,3.7,4.7C358,270.33,361.19,272.52,360.37,275.83Z"/><path class="cls-55" d="M361.76,258.51a8.53,8.53,0,0,1-7.31-3.58l1.65-1-.83.48.82-.49c.1.17,2.6,4.15,9.32,2,1.47-.76,11.52-5.75,15-2.19L379,255.11c-1.89-2-8.84.55-12.76,2.6l-.15.06A14.06,14.06,0,0,1,361.76,258.51Z"/></g></g></svg>