<svg xmlns="http://www.w3.org/2000/svg" viewBox="0 0 506.41 571.66"><defs><style>.cls-1{fill:#3c3c3b;}.cls-2{fill:#222323;}.cls-3{fill:#badaed;}.cls-4{fill:#3f3f3f;}.cls-5{fill:#e5e4e4;}.cls-6{fill:#dadada;}.cls-7{fill:#e9e1d7;}.cls-8{fill:#e2e2e1;}.cls-9{fill:#c6c6c6;}.cls-10{fill:#dbdbdb;}.cls-11{opacity:0.04;}.cls-12{fill:#ededed;}</style></defs><title>manotablet</title><g id="Capa_2" data-name="Capa 2"><g id="Capa_1-2" data-name="Capa 1"><path class="cls-1" d="M506.41,39.75l-1.72,519.44v.06c-10,6.63-17.35,7.88-21,7.88a.46.46,0,0,1-.18-.06c1.24-.12,3.91-.89,5.45-4.92,2.13-5.39.41-528.32.41-528.32h-.06L486.8,30.1a9.19,9.19,0,0,1,2.31.53C506,35.72,506.41,39.4,506.41,39.75Z"/><path class="cls-2" d="M489.41,33.83s1.72,522.93-.41,528.32c-1.54,4-4.21,4.8-5.45,4.92-.71-.3-3.32-1.48-5.27-2.55-25.59-13.74-131-76.82-131-76.82A10.47,10.47,0,0,1,341,477.51V119.18s1.72,3.26.3-1.24a5.77,5.77,0,0,1-.3-1.66c0-3.61,3.73-6.46,3.73-6.46S472.83,34.3,474.07,33.59c5.69-3.44,10.19-3.73,12.73-3.49l2.55,3.73Z"/><path class="cls-3" d="M347.28,138.11,474.56,74.48a3,3,0,0,1,4.33,2.68V497.09a3,3,0,0,1-4.22,2.73L347.39,442.54a3,3,0,0,1-1.77-2.73v-299A3,3,0,0,1,347.28,138.11Z"/><path class="cls-4" d="M379.31,111.55,427.07,86s3.95-2.22,1.73-5.92a3.57,3.57,0,0,0-5.09-1.48l-46.12,25.67h0s-3,2.1-2,4.94,4.86,2.34,4.86,2.34"/><path class="cls-4" d="M351.67,123.14c0,3.48-1.36,6.47-3,6.67s-3-2.45-3-5.92,1.35-6.46,3-6.67S351.67,119.65,351.67,123.14Z"/><path class="cls-4" d="M399.29,501.57A5.25,5.25,0,0,0,406,502c1.94-1.48,3.73-4.5,2.91-10.67-1.6-12.09-6.29-16.16-6.29-16.16s-4.94-4.69-8.14,1.48.49,18,.49,18A17.55,17.55,0,0,0,399.29,501.57Z"/><path class="cls-1" d="M406.21,258.88s-54,7.13-162.26-14.7h0L223.1,319.1h0s19.74,18.26,183.12,34.55h0s38.38-45.72,2.34-93.1"/><path class="cls-5" d="M270.37,431.84l92.35,6.86a4.19,4.19,0,0,0,4.51-4.18V257.38a1.6,1.6,0,0,0-1.46-1.6l-97-8.77a1.11,1.11,0,0,0-1.21,1.11V428.77A3.08,3.08,0,0,0,270.37,431.84Z"/><path class="cls-5" d="M259.65,331.83v93.27h0c.29,2.58.83,3.35,1.85,3.37l6,.15h0v-95h0l-7.87-1.82Z"/><path class="cls-6" d="M261,428.46"/><path class="cls-7" d="M209.69,300.5l-17.51-4.61h0S212,277,218.84,251.11h3.85l-13,49.4Z"/><path class="cls-8" d="M192.19,295.9l-1.61,1.53h0s-8.64-5.5-10.73-8.08h0S155.11,279.73,143,259.5s-16.16-16.78-31.71-47.38-66.39-67-66.39-67h0s-21.22-9.36-19.25-15.29,5.92-12.1,19.5-8.4h0s12.59-6.42,26.65,3.21,54,52.32,54,52.32h0s3.95,2.47,7.9,1.23-6.17-31.34-11.11-40.23h0s-8.64-7.9-10.37-12.09,4.44-5.18,4.44-5.18,13.57-3,17,3.95,11.85,14.31,17,27.89,3.46,9.62,9.87,31.34h0s7.16,7.65,21-3.46h0s20.73-40,34.55-54.29,32.08-2.6,32.08-2.6h0s5.92,6.55-1.73,11S227,158.93,227,158.93h0l-10.61,28.38h0s9.15,46.47,2.41,63.79h0s-1.3,24.06-26.65,44.79Z"/><path class="cls-9" d="M272.57,119H8.85a6.08,6.08,0,0,1-4.75-2.29L0,111.58H281.34l-2.51,4A7.4,7.4,0,0,1,272.57,119Z"/><path class="cls-10" d="M21,111.58h0s-2.47-97,119.69-96.53,118.21,96.53,118.21,96.53H21Z"/><polyline class="cls-9" points="144.86 15.05 157.2 0 157.2 0 124.38 0 124.38 0 135.73 15.05"/><path class="cls-5" d="M232.47,106.61h13.82s4.19-83.41-105.5-85.88h0s95.63,15.8,91.68,85.88Z"/><path class="cls-11" d="M373,503.07H281.16S113.91,438.71,18,512.69c-.5.39-6.09,5.69-6,11.7,0,5.19,0,11,4,15.4,6.17,6.72,96.73,69.28,263.73-1.72h0l154,1h0l-60.62-36Z"/><path class="cls-12" d="M243.16,247s-12.68-2.42-17.81-4.25a1.3,1.3,0,0,0-1.69.92l-16.34,66.46a1.89,1.89,0,0,0,1.62,2.33l15.5,1.76h0L243.16,247Z"/></g></g></svg>